G04 #@! TF.GenerationSoftware,KiCad,Pcbnew,9.0.2*
G04 #@! TF.CreationDate,2026-08-31T18:38:58-07:00*
G04 #@! TF.ProjectId,bloo,626c6f6f-2e6b-4696-9361-645f70636258,rev?*
G04 #@! TF.SameCoordinates,Original*
G04 #@! TF.FileFunction,Soldermask,Top*
G04 #@! TF.FilePolarity,Negative*
%FSLAX46Y46*%
G04 Gerber Fmt 4.6, Leading zero omitted, Abs format (unit mm)*
G04 Created by KiCad (PCBNEW 9.0.2) date 2026-08-31 18:38:58*
%MOMM*%
%LPD*%
G01*
G04 APERTURE LIST*
G04 Aperture macros list*
%AMRoundRect*
0 Rectangle with rounded corners*
0 $1 Rounding radius*
0 $2 $3 $4 $5 $6 $7 $8 $9 X,Y pos of 4 corners*
0 Add a 4 corners polygon primitive as box body*
4,1,4,$2,$3,$4,$5,$6,$7,$8,$9,$2,$3,0*
0 Add four circle primitives for the rounded corners*
1,1,$1+$1,$2,$3*
1,1,$1+$1,$4,$5*
1,1,$1+$1,$6,$7*
1,1,$1+$1,$8,$9*
0 Add four rect primitives between the rounded corners*
20,1,$1+$1,$2,$3,$4,$5,0*
20,1,$1+$1,$4,$5,$6,$7,0*
20,1,$1+$1,$6,$7,$8,$9,0*
20,1,$1+$1,$8,$9,$2,$3,0*%
%AMRotRect*
0 Rectangle, with rotation*
0 The origin of the aperture is its center*
0 $1 length*
0 $2 width*
0 $3 Rotation angle, in degrees counterclockwise*
0 Add horizontal line*
21,1,$1,$2,0,0,$3*%
G04 Aperture macros list end*
%ADD10R,2.000000X2.500000*%
%ADD11RoundRect,0.250000X0.325000X0.650000X-0.325000X0.650000X-0.325000X-0.650000X0.325000X-0.650000X0*%
%ADD12C,2.000000*%
%ADD13R,1.800000X1.800000*%
%ADD14C,1.800000*%
%ADD15RoundRect,0.250000X0.412500X0.650000X-0.412500X0.650000X-0.412500X-0.650000X0.412500X-0.650000X0*%
%ADD16RoundRect,0.150000X0.150000X-0.587500X0.150000X0.587500X-0.150000X0.587500X-0.150000X-0.587500X0*%
%ADD17RoundRect,0.250000X-0.412500X-0.650000X0.412500X-0.650000X0.412500X0.650000X-0.412500X0.650000X0*%
%ADD18C,2.200000*%
%ADD19R,1.700000X1.700000*%
%ADD20C,1.700000*%
%ADD21RoundRect,0.250000X0.400000X0.625000X-0.400000X0.625000X-0.400000X-0.625000X0.400000X-0.625000X0*%
%ADD22RoundRect,0.250000X-0.650000X0.412500X-0.650000X-0.412500X0.650000X-0.412500X0.650000X0.412500X0*%
%ADD23RoundRect,0.225000X0.225000X0.250000X-0.225000X0.250000X-0.225000X-0.250000X0.225000X-0.250000X0*%
%ADD24RoundRect,0.250000X-0.625000X0.400000X-0.625000X-0.400000X0.625000X-0.400000X0.625000X0.400000X0*%
%ADD25RoundRect,0.250000X0.325000X0.450000X-0.325000X0.450000X-0.325000X-0.450000X0.325000X-0.450000X0*%
%ADD26RoundRect,0.150000X-0.150000X-0.625000X0.150000X-0.625000X0.150000X0.625000X-0.150000X0.625000X0*%
%ADD27O,1.700000X1.700000*%
%ADD28RoundRect,0.250000X-0.350000X-0.650000X0.350000X-0.650000X0.350000X0.650000X-0.350000X0.650000X0*%
%ADD29RoundRect,0.250000X0.625000X-0.400000X0.625000X0.400000X-0.625000X0.400000X-0.625000X-0.400000X0*%
%ADD30RotRect,1.800000X1.800000X120.000000*%
%ADD31R,1.000000X1.500000*%
%ADD32C,2.184400*%
%ADD33RoundRect,0.109250X0.562750X0.327750X-0.562750X0.327750X-0.562750X-0.327750X0.562750X-0.327750X0*%
%ADD34C,0.704000*%
%ADD35RoundRect,0.150000X-0.150000X0.512500X-0.150000X-0.512500X0.150000X-0.512500X0.150000X0.512500X0*%
%ADD36RotRect,1.800000X1.800000X240.000000*%
%ADD37C,3.000000*%
%ADD38RoundRect,0.250000X0.550000X0.550000X-0.550000X0.550000X-0.550000X-0.550000X0.550000X-0.550000X0*%
%ADD39C,1.600000*%
%ADD40RoundRect,0.150000X0.587500X0.150000X-0.587500X0.150000X-0.587500X-0.150000X0.587500X-0.150000X0*%
%ADD41RoundRect,0.250000X-0.550000X0.550000X-0.550000X-0.550000X0.550000X-0.550000X0.550000X0.550000X0*%
%ADD42RoundRect,0.150000X-0.587500X-0.150000X0.587500X-0.150000X0.587500X0.150000X-0.587500X0.150000X0*%
%ADD43RoundRect,0.250001X-0.462499X-0.624999X0.462499X-0.624999X0.462499X0.624999X-0.462499X0.624999X0*%
%ADD44RoundRect,0.250000X0.650000X-0.412500X0.650000X0.412500X-0.650000X0.412500X-0.650000X-0.412500X0*%
%ADD45RoundRect,0.250000X-0.400000X-0.625000X0.400000X-0.625000X0.400000X0.625000X-0.400000X0.625000X0*%
%ADD46R,4.600000X1.100000*%
%ADD47C,1.524000*%
%ADD48R,9.400000X10.800000*%
%ADD49RoundRect,0.250000X0.550000X-0.550000X0.550000X0.550000X-0.550000X0.550000X-0.550000X-0.550000X0*%
G04 APERTURE END LIST*
G36*
X225840000Y-116600000D02*
G01*
X226140000Y-116600000D01*
X226140000Y-118100000D01*
X225840000Y-118100000D01*
X225840000Y-116600000D01*
G37*
D10*
X295900000Y-77500000D03*
X295900000Y-68940000D03*
D11*
X285337500Y-131479000D03*
X282387500Y-131479000D03*
D12*
X290317626Y-60435000D03*
D13*
X291587626Y-64245000D03*
D14*
X289047626Y-64245000D03*
D15*
X258705000Y-61040000D03*
X255580000Y-61040000D03*
D16*
X234845000Y-55110000D03*
X236745000Y-55110000D03*
X235795000Y-53235000D03*
D17*
X213405000Y-77680000D03*
X216530000Y-77680000D03*
D18*
X79940000Y-146540000D03*
D19*
X284697500Y-122819000D03*
D20*
X287237500Y-122819000D03*
X289777500Y-122819000D03*
X292317500Y-122819000D03*
X294857500Y-122819000D03*
D21*
X239010000Y-89960000D03*
X235910000Y-89960000D03*
D19*
X229350000Y-82030000D03*
D20*
X231890000Y-82030000D03*
X234430000Y-82030000D03*
X236970000Y-82030000D03*
X239510000Y-82030000D03*
X242050000Y-82030000D03*
X244590000Y-82030000D03*
X247130000Y-82030000D03*
X249670000Y-82030000D03*
X252210000Y-82030000D03*
X254750000Y-82030000D03*
X257290000Y-82030000D03*
X259830000Y-82030000D03*
X262370000Y-82030000D03*
X264910000Y-82030000D03*
X267450000Y-82030000D03*
X269990000Y-82030000D03*
X272530000Y-82030000D03*
X275070000Y-82030000D03*
X277610000Y-82030000D03*
X277610000Y-66790000D03*
X275070000Y-66790000D03*
X272530000Y-66790000D03*
X269990000Y-66790000D03*
X267450000Y-66790000D03*
X264910000Y-66790000D03*
X262370000Y-66790000D03*
X259830000Y-66790000D03*
X257290000Y-66790000D03*
X254750000Y-66790000D03*
X252210000Y-66790000D03*
X249670000Y-66790000D03*
X247130000Y-66790000D03*
X244590000Y-66790000D03*
X242050000Y-66790000D03*
X239510000Y-66790000D03*
X236970000Y-66790000D03*
X234430000Y-66790000D03*
X231890000Y-66790000D03*
X229350000Y-66790000D03*
D22*
X251555000Y-129805000D03*
X251555000Y-132930000D03*
D12*
X223750000Y-56140000D03*
D13*
X225020000Y-59950000D03*
D14*
X222480000Y-59950000D03*
D23*
X285472500Y-133599000D03*
X283922500Y-133599000D03*
D24*
X250380000Y-58420000D03*
X250380000Y-61520000D03*
X270265000Y-57830000D03*
X270265000Y-60930000D03*
D25*
X243410000Y-92160000D03*
X241360000Y-92160000D03*
D24*
X264280000Y-57970000D03*
X264280000Y-61070000D03*
D19*
X251123200Y-110326600D03*
D26*
X247276600Y-116525800D03*
D27*
X248583200Y-110326600D03*
D26*
X246276600Y-116525800D03*
D27*
X246043200Y-110326600D03*
D26*
X245276600Y-116525800D03*
X244276600Y-116525800D03*
D27*
X243503200Y-110326600D03*
D26*
X243276600Y-116525800D03*
D27*
X240963200Y-110326600D03*
D26*
X242276600Y-116525800D03*
D27*
X238423200Y-110326600D03*
D28*
X248576600Y-114000800D03*
X240976600Y-114000800D03*
D29*
X252970000Y-61510000D03*
X252970000Y-58410000D03*
D18*
X91840000Y-146540000D03*
D21*
X239000000Y-87480000D03*
X235900000Y-87480000D03*
D22*
X295490000Y-80180000D03*
X295490000Y-83305000D03*
D12*
X269650000Y-49420000D03*
D30*
X266985443Y-52424852D03*
D14*
X265715443Y-50225147D03*
D31*
X225340000Y-117350000D03*
X226640000Y-117350000D03*
D17*
X276387500Y-133480000D03*
X279512500Y-133480000D03*
D10*
X283340000Y-77520000D03*
X283340000Y-68960000D03*
D29*
X289700000Y-83330000D03*
X289700000Y-80230000D03*
D32*
X226460000Y-91620000D03*
X226460000Y-109620000D03*
D21*
X253420000Y-55730000D03*
X250320000Y-55730000D03*
D33*
X295327500Y-133609000D03*
X295327500Y-132509000D03*
X295327500Y-131409000D03*
X295327500Y-130309000D03*
X295327500Y-129209000D03*
X295327500Y-128109000D03*
X295327500Y-127009000D03*
X295327500Y-125909000D03*
X287657500Y-125909000D03*
X287657500Y-127009000D03*
X287657500Y-128109000D03*
X287657500Y-129209000D03*
X287657500Y-130309000D03*
X287657500Y-131409000D03*
X287657500Y-132509000D03*
X287657500Y-133609000D03*
D34*
X293242500Y-130610000D03*
X293242500Y-129410000D03*
X293242500Y-128210000D03*
X293242500Y-127010000D03*
X293242500Y-125810000D03*
X292042500Y-130610000D03*
X292042500Y-129410000D03*
X292042500Y-128210000D03*
X292042500Y-127010000D03*
X292042500Y-125810000D03*
X290842500Y-130610000D03*
X290842500Y-129410000D03*
X290842500Y-128210000D03*
X290842500Y-127010000D03*
X290842500Y-125810000D03*
X289642500Y-130610000D03*
X289642500Y-129410000D03*
X289642500Y-128210000D03*
X289642500Y-127010000D03*
X289642500Y-125810000D03*
D19*
X214200000Y-64620000D03*
D21*
X279950000Y-61290000D03*
X276850000Y-61290000D03*
D15*
X257730000Y-122410000D03*
X254605000Y-122410000D03*
D25*
X243417500Y-87760000D03*
X241367500Y-87760000D03*
D35*
X216590000Y-72930000D03*
X215640000Y-72930000D03*
X214690000Y-72930000D03*
X214690000Y-75205000D03*
X216590000Y-75205000D03*
D12*
X243395445Y-45334852D03*
D36*
X247330000Y-46140000D03*
D14*
X246060000Y-48339705D03*
D21*
X237570000Y-60690000D03*
X234470000Y-60690000D03*
D15*
X216710000Y-68210000D03*
X213585000Y-68210000D03*
D18*
X85890000Y-146540000D03*
D22*
X222990000Y-129467500D03*
X222990000Y-132592500D03*
D24*
X284982500Y-126079000D03*
X284982500Y-129179000D03*
X240090000Y-57850000D03*
X240090000Y-60950000D03*
D29*
X286700000Y-83350000D03*
X286700000Y-80250000D03*
D25*
X243410000Y-89920000D03*
X241360000Y-89920000D03*
D19*
X214900000Y-82460000D03*
D21*
X239000000Y-92470000D03*
X235900000Y-92470000D03*
D19*
X270686600Y-110215800D03*
D26*
X266840000Y-116415000D03*
D27*
X268146600Y-110215800D03*
D26*
X265840000Y-116415000D03*
D27*
X265606600Y-110215800D03*
D26*
X264840000Y-116415000D03*
X263840000Y-116415000D03*
D27*
X263066600Y-110215800D03*
D26*
X262840000Y-116415000D03*
D27*
X260526600Y-110215800D03*
D26*
X261840000Y-116415000D03*
D27*
X257986600Y-110215800D03*
D28*
X268140000Y-113890000D03*
X260540000Y-113890000D03*
D37*
X217290000Y-132158000D03*
X217290000Y-127332000D03*
X217290000Y-122506000D03*
D19*
X256130000Y-132740000D03*
D18*
X91840000Y-152490000D03*
D21*
X237520000Y-57960000D03*
X234420000Y-57960000D03*
D38*
X225970000Y-124500000D03*
D39*
X223470000Y-124500000D03*
D12*
X265866554Y-45384256D03*
D30*
X263201997Y-48389108D03*
D14*
X261931997Y-46189403D03*
D40*
X231797500Y-61110000D03*
X231797500Y-59210000D03*
X229922500Y-60160000D03*
D10*
X291700000Y-77500000D03*
X291700000Y-68940000D03*
D29*
X255945000Y-58630000D03*
X255945000Y-55530000D03*
D22*
X258680000Y-55407500D03*
X258680000Y-58532500D03*
D18*
X97790000Y-152490000D03*
D17*
X219135000Y-77810000D03*
X222260000Y-77810000D03*
D29*
X283670000Y-83340000D03*
X283670000Y-80240000D03*
D41*
X278390000Y-123130000D03*
D39*
X275850000Y-123130000D03*
X273310000Y-123130000D03*
X270770000Y-123130000D03*
X268230000Y-123130000D03*
X265690000Y-123130000D03*
X263150000Y-123130000D03*
X260610000Y-123130000D03*
X260610000Y-130750000D03*
X263150000Y-130750000D03*
X265690000Y-130750000D03*
X268230000Y-130750000D03*
X270770000Y-130750000D03*
X273310000Y-130750000D03*
X275850000Y-130750000D03*
X278390000Y-130750000D03*
D18*
X79940000Y-152490000D03*
D42*
X272790000Y-58580000D03*
X272790000Y-60480000D03*
X274665000Y-59530000D03*
D29*
X292730000Y-83330000D03*
X292730000Y-80230000D03*
D18*
X97790000Y-146540000D03*
D17*
X276837500Y-58260000D03*
X279962500Y-58260000D03*
D43*
X219180000Y-69715000D03*
X222155000Y-69715000D03*
D19*
X256210000Y-127280000D03*
D12*
X285210000Y-56000000D03*
D13*
X286480000Y-59810000D03*
D14*
X283940000Y-59810000D03*
D44*
X226770000Y-132585000D03*
X226770000Y-129460000D03*
D45*
X222410000Y-62770000D03*
X225510000Y-62770000D03*
D18*
X85890000Y-152490000D03*
D46*
X231210000Y-125430000D03*
X231210000Y-127970000D03*
D47*
X237239000Y-123398000D03*
X237239000Y-125430000D03*
X237239000Y-127462000D03*
X237239000Y-129494000D03*
X237239000Y-131526000D03*
X239271000Y-123398000D03*
X239271000Y-125430000D03*
X239271000Y-127462000D03*
X239271000Y-129494000D03*
X239271000Y-131526000D03*
D48*
X240360000Y-127970000D03*
D47*
X241303000Y-123398000D03*
X241303000Y-125430000D03*
X241303000Y-127462000D03*
X241303000Y-129494000D03*
X241303000Y-131526000D03*
X243335000Y-123398000D03*
X243335000Y-125430000D03*
X243335000Y-127462000D03*
X243335000Y-129494000D03*
X243335000Y-131526000D03*
D46*
X231210000Y-130510000D03*
D10*
X287500000Y-77500000D03*
X287500000Y-68940000D03*
D12*
X218777626Y-60345000D03*
D13*
X220047626Y-64155000D03*
D14*
X217507626Y-64155000D03*
D17*
X219135000Y-75060000D03*
X222260000Y-75060000D03*
D44*
X261440000Y-61105000D03*
X261440000Y-57980000D03*
D17*
X219135000Y-72370000D03*
X222260000Y-72370000D03*
D49*
X249965000Y-126275000D03*
D39*
X249965000Y-123775000D03*
D19*
X211750000Y-124050000D03*
D32*
X282647500Y-109620000D03*
X282647500Y-91620000D03*
D12*
X239517547Y-49370903D03*
D36*
X243452102Y-50176051D03*
D14*
X242182102Y-52375756D03*
D22*
X248615000Y-129805000D03*
X248615000Y-132930000D03*
D19*
X284490000Y-65020000D03*
D21*
X247590000Y-58980000D03*
X244490000Y-58980000D03*
D24*
X267210000Y-57920000D03*
X267210000Y-61020000D03*
D16*
X245490000Y-56250000D03*
X247390000Y-56250000D03*
X246440000Y-54375000D03*
D19*
X211680000Y-131210000D03*
D20*
X211680000Y-128670000D03*
D45*
X276885000Y-55170000D03*
X279985000Y-55170000D03*
M02*
