G04 #@! TF.GenerationSoftware,KiCad,Pcbnew,9.0.2*
G04 #@! TF.CreationDate,2026-08-31T18:38:58-07:00*
G04 #@! TF.ProjectId,bloo,626c6f6f-2e6b-4696-9361-645f70636258,rev?*
G04 #@! TF.SameCoordinates,Original*
G04 #@! TF.FileFunction,Legend,Bot*
G04 #@! TF.FilePolarity,Positive*
%FSLAX46Y46*%
G04 Gerber Fmt 4.6, Leading zero omitted, Abs format (unit mm)*
G04 Created by KiCad (PCBNEW 9.0.2) date 2026-08-31 18:38:58*
%MOMM*%
%LPD*%
G01*
G04 APERTURE LIST*
G04 Aperture macros list*
%AMRoundRect*
0 Rectangle with rounded corners*
0 $1 Rounding radius*
0 $2 $3 $4 $5 $6 $7 $8 $9 X,Y pos of 4 corners*
0 Add a 4 corners polygon primitive as box body*
4,1,4,$2,$3,$4,$5,$6,$7,$8,$9,$2,$3,0*
0 Add four circle primitives for the rounded corners*
1,1,$1+$1,$2,$3*
1,1,$1+$1,$4,$5*
1,1,$1+$1,$6,$7*
1,1,$1+$1,$8,$9*
0 Add four rect primitives between the rounded corners*
20,1,$1+$1,$2,$3,$4,$5,0*
20,1,$1+$1,$4,$5,$6,$7,0*
20,1,$1+$1,$6,$7,$8,$9,0*
20,1,$1+$1,$8,$9,$2,$3,0*%
%AMRotRect*
0 Rectangle, with rotation*
0 The origin of the aperture is its center*
0 $1 length*
0 $2 width*
0 $3 Rotation angle, in degrees counterclockwise*
0 Add horizontal line*
21,1,$1,$2,0,0,$3*%
G04 Aperture macros list end*
%ADD10C,0.000000*%
%ADD11C,2.000000*%
%ADD12R,1.800000X1.800000*%
%ADD13C,1.800000*%
%ADD14C,2.200000*%
%ADD15R,1.700000X1.700000*%
%ADD16C,1.700000*%
%ADD17O,1.700000X1.700000*%
%ADD18RotRect,1.800000X1.800000X120.000000*%
%ADD19C,2.184400*%
%ADD20RotRect,1.800000X1.800000X240.000000*%
%ADD21C,3.000000*%
%ADD22RoundRect,0.250000X0.550000X0.550000X-0.550000X0.550000X-0.550000X-0.550000X0.550000X-0.550000X0*%
%ADD23C,1.600000*%
%ADD24RoundRect,0.250000X-0.550000X0.550000X-0.550000X-0.550000X0.550000X-0.550000X0.550000X0.550000X0*%
%ADD25RoundRect,0.250000X0.550000X-0.550000X0.550000X0.550000X-0.550000X0.550000X-0.550000X-0.550000X0*%
G04 APERTURE END LIST*
D10*
G36*
X248467678Y-96239772D02*
G01*
X248531648Y-96268468D01*
X248602759Y-96301970D01*
X248651377Y-96326879D01*
X248669515Y-96339257D01*
X248668387Y-96341948D01*
X248644569Y-96361289D01*
X248599434Y-96388221D01*
X248595137Y-96390527D01*
X248546829Y-96412508D01*
X248510574Y-96413068D01*
X248464476Y-96392979D01*
X248457502Y-96389393D01*
X248414524Y-96368314D01*
X248393313Y-96359707D01*
X248391934Y-96362097D01*
X248391036Y-96391756D01*
X248394571Y-96444442D01*
X248392182Y-96518755D01*
X248365728Y-96569978D01*
X248360175Y-96575994D01*
X248322079Y-96606670D01*
X248300318Y-96599206D01*
X248293319Y-96553241D01*
X248293227Y-96546017D01*
X248290921Y-96491036D01*
X248286155Y-96412003D01*
X248279785Y-96323462D01*
X248266377Y-96151220D01*
X248467678Y-96239772D01*
G37*
G36*
X260071273Y-90218450D02*
G01*
X260127472Y-90246664D01*
X260209018Y-90290081D01*
X260310540Y-90345667D01*
X260426668Y-90410387D01*
X260552033Y-90481209D01*
X260681263Y-90555098D01*
X260808990Y-90629020D01*
X260929841Y-90699941D01*
X261038449Y-90764828D01*
X261129441Y-90820647D01*
X261180473Y-90852782D01*
X261305006Y-90932820D01*
X261432929Y-91016993D01*
X261559423Y-91101946D01*
X261679673Y-91184322D01*
X261788860Y-91260768D01*
X261882168Y-91327925D01*
X261954780Y-91382440D01*
X262001880Y-91420956D01*
X262018651Y-91440118D01*
X262018592Y-91441713D01*
X262004629Y-91470873D01*
X262004250Y-91471223D01*
X261978289Y-91470101D01*
X261936631Y-91449191D01*
X261930452Y-91445113D01*
X261785988Y-91353378D01*
X261612605Y-91248848D01*
X261418843Y-91136272D01*
X261213246Y-91020401D01*
X261004357Y-90905984D01*
X260800718Y-90797770D01*
X260610871Y-90700509D01*
X260443360Y-90618951D01*
X260207776Y-90508257D01*
X260120994Y-90358364D01*
X260106320Y-90332721D01*
X260071695Y-90269248D01*
X260050147Y-90225054D01*
X260045851Y-90208472D01*
X260071273Y-90218450D01*
G37*
G36*
X250754511Y-99632868D02*
G01*
X250931642Y-99651376D01*
X251086608Y-99682726D01*
X251144637Y-99699308D01*
X251417591Y-99801140D01*
X251670047Y-99935416D01*
X251898645Y-100099437D01*
X252100022Y-100290504D01*
X252270815Y-100505920D01*
X252407663Y-100742986D01*
X252426224Y-100782262D01*
X252493972Y-100944779D01*
X252538183Y-101094153D01*
X252562444Y-101245143D01*
X252570339Y-101412508D01*
X252570242Y-101454217D01*
X252561994Y-101610030D01*
X252538323Y-101745084D01*
X252495534Y-101875268D01*
X252429936Y-102016469D01*
X252331184Y-102174976D01*
X252186471Y-102336812D01*
X252013123Y-102472579D01*
X251815075Y-102579768D01*
X251596259Y-102655870D01*
X251360611Y-102698377D01*
X251258134Y-102705941D01*
X250998161Y-102699420D01*
X250743359Y-102657935D01*
X250497034Y-102584218D01*
X250262494Y-102480998D01*
X250043047Y-102351007D01*
X249842000Y-102196975D01*
X249662662Y-102021632D01*
X249508339Y-101827709D01*
X249382340Y-101617937D01*
X249287972Y-101395045D01*
X249228542Y-101161765D01*
X249207359Y-100920827D01*
X249211934Y-100771199D01*
X249231940Y-100624104D01*
X249271083Y-100486455D01*
X249332883Y-100342012D01*
X249367656Y-100275774D01*
X249492468Y-100096911D01*
X249648852Y-99943339D01*
X249834126Y-99817004D01*
X250045609Y-99719854D01*
X250280617Y-99653836D01*
X250398476Y-99636696D01*
X250571396Y-99627781D01*
X250754511Y-99632868D01*
G37*
G36*
X254086916Y-92308074D02*
G01*
X254133246Y-92331221D01*
X254180997Y-92361933D01*
X254217113Y-92391668D01*
X254228538Y-92411883D01*
X254228350Y-92412322D01*
X254216458Y-92438178D01*
X254188653Y-92497873D01*
X254146702Y-92587634D01*
X254092371Y-92703689D01*
X254027426Y-92842268D01*
X253953636Y-92999598D01*
X253872765Y-93171907D01*
X253786582Y-93355425D01*
X253779026Y-93371516D01*
X253694034Y-93553643D01*
X253615476Y-93723979D01*
X253545000Y-93878808D01*
X253484255Y-94014418D01*
X253434889Y-94127094D01*
X253398550Y-94213123D01*
X253376888Y-94268791D01*
X253371551Y-94290384D01*
X253393344Y-94302515D01*
X253448804Y-94330264D01*
X253533553Y-94371510D01*
X253643246Y-94424169D01*
X253773538Y-94486153D01*
X253920083Y-94555378D01*
X254078535Y-94629756D01*
X254103862Y-94641611D01*
X254521514Y-94837623D01*
X254976643Y-95052171D01*
X255469222Y-95285239D01*
X255999221Y-95536815D01*
X256566611Y-95806884D01*
X257046121Y-96035407D01*
X256890911Y-96057263D01*
X256882833Y-96058427D01*
X256844513Y-96064375D01*
X256811949Y-96068730D01*
X256781176Y-96070020D01*
X256748226Y-96066775D01*
X256709131Y-96057523D01*
X256659924Y-96040793D01*
X256596639Y-96015114D01*
X256515308Y-95979014D01*
X256411964Y-95931022D01*
X256282640Y-95869668D01*
X256123369Y-95793480D01*
X255930183Y-95700987D01*
X255861678Y-95668280D01*
X255724376Y-95602961D01*
X255564555Y-95527158D01*
X255386238Y-95442764D01*
X255193447Y-95351670D01*
X254990207Y-95255768D01*
X254780541Y-95156949D01*
X254568470Y-95057105D01*
X254358019Y-94958128D01*
X254153211Y-94861909D01*
X253958068Y-94770340D01*
X253776613Y-94685314D01*
X253612871Y-94608721D01*
X253470863Y-94542453D01*
X253354613Y-94488401D01*
X253268144Y-94448459D01*
X253215479Y-94424517D01*
X253214116Y-94423909D01*
X253148878Y-94391905D01*
X253102418Y-94363608D01*
X253084713Y-94345079D01*
X253084795Y-94343840D01*
X253094723Y-94312621D01*
X253117989Y-94256173D01*
X253149968Y-94185786D01*
X253172872Y-94137260D01*
X253211690Y-94054920D01*
X253263437Y-93945092D01*
X253325631Y-93813051D01*
X253395787Y-93664072D01*
X253471421Y-93503429D01*
X253550048Y-93336396D01*
X253592472Y-93246309D01*
X253697742Y-93023310D01*
X253787009Y-92835164D01*
X253861401Y-92679569D01*
X253922049Y-92554225D01*
X253970083Y-92456830D01*
X254006633Y-92385084D01*
X254032829Y-92336686D01*
X254049801Y-92309334D01*
X254058680Y-92300729D01*
X254086916Y-92308074D01*
G37*
G36*
X253288561Y-101593131D02*
G01*
X253278040Y-101831640D01*
X253240413Y-102050646D01*
X253220895Y-102118355D01*
X253161894Y-102273064D01*
X253083939Y-102435260D01*
X252994434Y-102590274D01*
X252900783Y-102723439D01*
X252779593Y-102858188D01*
X252586662Y-103021897D01*
X252365269Y-103161352D01*
X252120212Y-103274068D01*
X251856286Y-103357555D01*
X251578288Y-103409326D01*
X251575000Y-103409730D01*
X251352101Y-103423039D01*
X251107886Y-103413364D01*
X250854752Y-103382222D01*
X250605091Y-103331129D01*
X250371298Y-103261604D01*
X250245236Y-103213898D01*
X249961083Y-103081215D01*
X249697218Y-102922731D01*
X249455170Y-102741328D01*
X249236472Y-102539889D01*
X249042652Y-102321297D01*
X248875242Y-102088435D01*
X248735772Y-101844185D01*
X248625772Y-101591430D01*
X248546774Y-101333053D01*
X248500306Y-101071937D01*
X248494021Y-100939716D01*
X248990096Y-100939716D01*
X248995743Y-101015273D01*
X249042103Y-101280962D01*
X249128776Y-101537520D01*
X249255065Y-101783522D01*
X249420276Y-102017542D01*
X249623712Y-102238154D01*
X249750384Y-102352107D01*
X250004916Y-102539816D01*
X250277561Y-102689832D01*
X250568084Y-102802035D01*
X250876251Y-102876305D01*
X250985388Y-102892291D01*
X251246620Y-102905912D01*
X251499833Y-102885231D01*
X251741165Y-102831882D01*
X251966757Y-102747499D01*
X252172747Y-102633716D01*
X252355274Y-102492166D01*
X252510478Y-102324483D01*
X252634497Y-102132301D01*
X252652559Y-102096636D01*
X252736460Y-101878051D01*
X252782420Y-101647147D01*
X252790825Y-101407619D01*
X252762063Y-101163160D01*
X252696523Y-100917462D01*
X252594590Y-100674218D01*
X252456653Y-100437122D01*
X252391519Y-100349739D01*
X252286023Y-100229179D01*
X252162430Y-100103986D01*
X252030583Y-99983531D01*
X251900325Y-99877185D01*
X251781498Y-99794319D01*
X251675822Y-99732032D01*
X251397525Y-99596882D01*
X251115710Y-99500483D01*
X250832940Y-99443244D01*
X250551779Y-99425576D01*
X250274791Y-99447888D01*
X250004540Y-99510589D01*
X249865156Y-99559770D01*
X249695419Y-99641638D01*
X249541705Y-99746663D01*
X249390036Y-99883320D01*
X249387168Y-99886195D01*
X249230697Y-100068478D01*
X249113745Y-100262354D01*
X249035322Y-100470440D01*
X248994436Y-100695354D01*
X248990096Y-100939716D01*
X248494021Y-100939716D01*
X248487901Y-100810964D01*
X248511087Y-100553017D01*
X248571397Y-100300979D01*
X248670359Y-100057733D01*
X248776933Y-99872228D01*
X248940920Y-99659982D01*
X249135590Y-99475704D01*
X249360167Y-99320002D01*
X249613875Y-99193485D01*
X249895937Y-99096762D01*
X249921817Y-99089815D01*
X249984042Y-99075340D01*
X250047843Y-99064851D01*
X250121272Y-99057697D01*
X250212381Y-99053233D01*
X250329224Y-99050809D01*
X250479853Y-99049778D01*
X250487105Y-99049755D01*
X250632098Y-99049698D01*
X250744452Y-99051057D01*
X250832980Y-99054598D01*
X250906497Y-99061089D01*
X250973818Y-99071297D01*
X251043755Y-99085990D01*
X251125124Y-99105933D01*
X251354113Y-99173650D01*
X251667726Y-99299473D01*
X251963053Y-99457162D01*
X252237016Y-99643999D01*
X252486537Y-99857265D01*
X252708541Y-100094241D01*
X252899948Y-100352207D01*
X253057681Y-100628446D01*
X253178664Y-100920237D01*
X253230865Y-101104869D01*
X253272621Y-101346935D01*
X253276550Y-101407619D01*
X253288561Y-101593131D01*
G37*
G36*
X262063436Y-100343125D02*
G01*
X262133567Y-100476186D01*
X262190844Y-100611452D01*
X262227418Y-100732524D01*
X262237778Y-100779320D01*
X262252914Y-100844943D01*
X262263420Y-100887123D01*
X262264412Y-100890872D01*
X262265206Y-100907354D01*
X262252783Y-100917106D01*
X262220004Y-100921184D01*
X262159733Y-100920648D01*
X262064829Y-100916556D01*
X262006864Y-100914524D01*
X261921448Y-100914488D01*
X261856191Y-100918156D01*
X261821886Y-100925147D01*
X261799898Y-100951616D01*
X261788678Y-101000327D01*
X261789577Y-101012262D01*
X261801590Y-101044341D01*
X261831773Y-101082885D01*
X261885402Y-101133873D01*
X261967751Y-101203282D01*
X262028668Y-101251233D01*
X262101784Y-101303747D01*
X262161130Y-101340774D01*
X262197772Y-101356365D01*
X262219040Y-101360271D01*
X262239802Y-101377600D01*
X262235565Y-101419133D01*
X262224030Y-101464517D01*
X262140789Y-101693792D01*
X262021697Y-101903412D01*
X261869054Y-102090467D01*
X261685159Y-102252048D01*
X261472310Y-102385244D01*
X261429680Y-102405864D01*
X261315136Y-102451279D01*
X261167502Y-102498772D01*
X260985074Y-102548796D01*
X260766144Y-102601801D01*
X260509006Y-102658238D01*
X260211954Y-102718558D01*
X260022943Y-102754851D01*
X259636190Y-102823233D01*
X259256592Y-102881717D01*
X258874383Y-102931517D01*
X258479800Y-102973844D01*
X258063077Y-103009909D01*
X257614450Y-103040926D01*
X257552585Y-103043756D01*
X257440573Y-103046699D01*
X257298117Y-103048871D01*
X257131631Y-103050296D01*
X256947530Y-103050998D01*
X256752228Y-103051001D01*
X256552140Y-103050329D01*
X256353680Y-103049006D01*
X256163262Y-103047056D01*
X255987301Y-103044502D01*
X255832212Y-103041369D01*
X255704408Y-103037680D01*
X255610305Y-103033460D01*
X255507321Y-103026926D01*
X255292043Y-103011023D01*
X255069177Y-102991872D01*
X254842513Y-102969998D01*
X254615843Y-102945921D01*
X254392957Y-102920165D01*
X254177646Y-102893252D01*
X253973703Y-102865703D01*
X253784916Y-102838043D01*
X253615079Y-102810792D01*
X253467981Y-102784473D01*
X253347413Y-102759609D01*
X253257167Y-102736722D01*
X253201034Y-102716334D01*
X253182805Y-102698969D01*
X253185869Y-102686475D01*
X253202212Y-102638461D01*
X253229064Y-102567640D01*
X253262579Y-102484361D01*
X253324047Y-102321938D01*
X253409378Y-102013884D01*
X253452995Y-101708416D01*
X253454959Y-101406180D01*
X253415332Y-101107823D01*
X253334176Y-100813991D01*
X253211554Y-100525332D01*
X253083449Y-100304434D01*
X259089560Y-100304434D01*
X259102658Y-100463120D01*
X259153615Y-100617450D01*
X259220739Y-100727318D01*
X259314227Y-100832981D01*
X259421004Y-100920116D01*
X259529513Y-100977647D01*
X259672108Y-101019428D01*
X259824952Y-101033731D01*
X259973954Y-101011230D01*
X260128449Y-100951517D01*
X260218905Y-100896213D01*
X260331040Y-100792744D01*
X260421843Y-100666934D01*
X260484667Y-100528535D01*
X260512868Y-100387302D01*
X260517462Y-100307240D01*
X260517463Y-100231800D01*
X260505898Y-100179881D01*
X260477592Y-100141141D01*
X260427376Y-100105240D01*
X260350076Y-100061838D01*
X260328677Y-100049960D01*
X260242348Y-100000038D01*
X260136082Y-99936439D01*
X260021367Y-99866100D01*
X259909692Y-99795958D01*
X259631458Y-99618714D01*
X259541996Y-99652880D01*
X259501702Y-99669798D01*
X259364185Y-99754205D01*
X259251633Y-99866276D01*
X259166626Y-99999607D01*
X259111742Y-100147795D01*
X259089560Y-100304434D01*
X253083449Y-100304434D01*
X253047527Y-100242491D01*
X252975936Y-100145652D01*
X252873778Y-100026221D01*
X252753104Y-99898160D01*
X252622042Y-99769434D01*
X252488719Y-99648006D01*
X252361266Y-99541842D01*
X252247810Y-99458907D01*
X252062895Y-99344536D01*
X251753230Y-99187716D01*
X251426701Y-99064740D01*
X251076147Y-98972637D01*
X251044796Y-98966348D01*
X250880853Y-98942595D01*
X250695470Y-98927825D01*
X250501078Y-98922167D01*
X250310110Y-98925753D01*
X250134997Y-98938713D01*
X249988173Y-98961178D01*
X249906248Y-98979628D01*
X249601905Y-99069441D01*
X249329152Y-99186014D01*
X249088241Y-99329181D01*
X248879425Y-99498770D01*
X248702957Y-99694614D01*
X248559090Y-99916544D01*
X248529537Y-99974544D01*
X248448582Y-100182353D01*
X248393833Y-100407251D01*
X248367994Y-100635562D01*
X248373771Y-100853609D01*
X248380683Y-100926425D01*
X248381710Y-100975083D01*
X248374996Y-100997053D01*
X248359806Y-101000067D01*
X248352199Y-100996479D01*
X248326713Y-100963963D01*
X248304401Y-100910366D01*
X248275569Y-100828613D01*
X248201965Y-100685634D01*
X248095058Y-100537553D01*
X248093124Y-100535183D01*
X248021687Y-100453547D01*
X247945085Y-100379111D01*
X247857733Y-100308008D01*
X247754048Y-100236373D01*
X247628447Y-100160340D01*
X247475346Y-100076043D01*
X247289161Y-99979617D01*
X246841635Y-99745163D01*
X246387596Y-99489225D01*
X245962593Y-99228887D01*
X245560032Y-98959916D01*
X245173317Y-98678079D01*
X244795853Y-98379141D01*
X244792030Y-98375989D01*
X244643599Y-98248569D01*
X244479445Y-98099254D01*
X244306451Y-97934945D01*
X244131499Y-97762542D01*
X243961474Y-97588945D01*
X243803259Y-97421054D01*
X243663737Y-97265771D01*
X243549791Y-97129995D01*
X243427353Y-96972536D01*
X243159193Y-96593398D01*
X242924094Y-96209433D01*
X242723981Y-95824214D01*
X242560779Y-95441312D01*
X242436413Y-95064300D01*
X242369248Y-94792435D01*
X242301388Y-94380557D01*
X242274795Y-93972378D01*
X242289139Y-93569150D01*
X242344091Y-93172130D01*
X242439319Y-92782571D01*
X242574494Y-92401727D01*
X242749287Y-92030853D01*
X242963367Y-91671204D01*
X243216404Y-91324033D01*
X243508068Y-90990596D01*
X243578631Y-90917861D01*
X243934224Y-90585821D01*
X244325910Y-90273109D01*
X244752513Y-89980379D01*
X245212859Y-89708286D01*
X245705772Y-89457486D01*
X246230077Y-89228632D01*
X246784598Y-89022381D01*
X247368160Y-88839387D01*
X247465616Y-88812323D01*
X247588173Y-88779806D01*
X247723195Y-88745155D01*
X247864063Y-88709961D01*
X248004158Y-88675815D01*
X248136864Y-88644309D01*
X248255561Y-88617035D01*
X248353631Y-88595582D01*
X248424456Y-88581544D01*
X248461419Y-88576511D01*
X248461893Y-88579822D01*
X248442909Y-88606651D01*
X248400011Y-88656931D01*
X248336977Y-88726448D01*
X248257588Y-88810988D01*
X248165621Y-88906337D01*
X248137669Y-88935056D01*
X248038324Y-89038504D01*
X247945488Y-89137176D01*
X247864908Y-89224842D01*
X247802327Y-89295276D01*
X247763490Y-89342249D01*
X247747415Y-89363289D01*
X247716712Y-89399766D01*
X247684283Y-89428914D01*
X247642607Y-89455055D01*
X247584163Y-89482512D01*
X247501429Y-89515605D01*
X247386884Y-89558658D01*
X247124394Y-89660493D01*
X246650192Y-89867953D01*
X246211951Y-90092119D01*
X245810047Y-90332638D01*
X245444856Y-90589153D01*
X245116754Y-90861311D01*
X244826118Y-91148756D01*
X244573323Y-91451134D01*
X244358747Y-91768089D01*
X244182764Y-92099266D01*
X244045752Y-92444312D01*
X243948086Y-92802870D01*
X243933087Y-92892125D01*
X243918394Y-93040877D01*
X243909969Y-93212600D01*
X243907723Y-93396739D01*
X243911564Y-93582743D01*
X243921404Y-93760059D01*
X243937152Y-93918134D01*
X243958717Y-94046415D01*
X244028885Y-94317124D01*
X244166434Y-94709397D01*
X244345250Y-95096971D01*
X244565116Y-95479565D01*
X244825816Y-95856898D01*
X245127135Y-96228687D01*
X245468854Y-96594653D01*
X245850759Y-96954512D01*
X246272633Y-97307985D01*
X246734258Y-97654790D01*
X246792331Y-97695616D01*
X246889028Y-97761810D01*
X246995581Y-97833135D01*
X247106421Y-97906026D01*
X247215978Y-97976918D01*
X247318682Y-98042247D01*
X247408965Y-98098447D01*
X247481256Y-98141955D01*
X247529987Y-98169206D01*
X247549587Y-98176634D01*
X247552934Y-98170843D01*
X247571880Y-98134447D01*
X247604323Y-98070558D01*
X247646879Y-97985865D01*
X247696161Y-97887055D01*
X247795031Y-97693830D01*
X247930462Y-97450620D01*
X248064138Y-97238966D01*
X248200498Y-97053449D01*
X248343981Y-96888648D01*
X248499027Y-96739146D01*
X248670075Y-96599522D01*
X248861564Y-96464357D01*
X249063927Y-96337170D01*
X249387658Y-96160655D01*
X249715274Y-96013343D01*
X250039814Y-95898244D01*
X250354318Y-95818371D01*
X250527799Y-95788211D01*
X250858179Y-95751021D01*
X251217241Y-95733619D01*
X251599941Y-95735690D01*
X252001235Y-95756919D01*
X252416079Y-95796988D01*
X252839429Y-95855584D01*
X253266240Y-95932391D01*
X253691468Y-96027093D01*
X253829348Y-96062697D01*
X253993430Y-96108702D01*
X254168884Y-96161008D01*
X254351420Y-96218088D01*
X254536752Y-96278416D01*
X254720592Y-96340462D01*
X254898653Y-96402700D01*
X255066648Y-96463601D01*
X255220288Y-96521638D01*
X255355288Y-96575283D01*
X255467358Y-96623009D01*
X255552212Y-96663287D01*
X255605563Y-96694590D01*
X255623122Y-96715391D01*
X255614261Y-96747633D01*
X255593169Y-96806407D01*
X255564687Y-96877705D01*
X255517088Y-97000404D01*
X255462451Y-97186873D01*
X255431894Y-97375214D01*
X255421721Y-97583677D01*
X255422617Y-97657940D01*
X255445596Y-97892244D01*
X255501142Y-98104914D01*
X255591573Y-98301360D01*
X255719210Y-98486991D01*
X255886373Y-98667217D01*
X255913130Y-98692576D01*
X255988200Y-98761235D01*
X256046643Y-98811134D01*
X256085924Y-98840874D01*
X256103507Y-98849057D01*
X256096857Y-98834284D01*
X256063437Y-98795157D01*
X256000713Y-98730277D01*
X255974712Y-98703816D01*
X255803169Y-98500095D01*
X255670915Y-98285670D01*
X255578435Y-98062003D01*
X255526213Y-97830557D01*
X255514731Y-97592793D01*
X255544472Y-97350175D01*
X255603442Y-97145128D01*
X255703814Y-96934069D01*
X255838511Y-96744232D01*
X256005328Y-96578175D01*
X256202057Y-96438457D01*
X256426491Y-96327635D01*
X256498491Y-96301219D01*
X256704517Y-96248092D01*
X256924489Y-96219395D01*
X257146766Y-96215575D01*
X257359710Y-96237081D01*
X257551682Y-96284360D01*
X257709060Y-96347183D01*
X257937918Y-96474507D01*
X258150878Y-96637325D01*
X258345618Y-96832872D01*
X258519822Y-97058383D01*
X258671168Y-97311094D01*
X258797339Y-97588239D01*
X258896015Y-97887055D01*
X258896677Y-97889488D01*
X258923212Y-97997833D01*
X258939856Y-98097271D01*
X258948703Y-98204669D01*
X258951845Y-98336890D01*
X258951399Y-98430879D01*
X258948588Y-98532810D01*
X258943813Y-98617100D01*
X258937592Y-98671651D01*
X258921689Y-98755341D01*
X258955009Y-98695786D01*
X258969670Y-98663681D01*
X258993420Y-98593327D01*
X259013016Y-98515208D01*
X259037702Y-98394186D01*
X259675582Y-98758818D01*
X259957577Y-98920265D01*
X260263134Y-99095957D01*
X260535804Y-99253763D01*
X260777622Y-99394973D01*
X260990621Y-99520875D01*
X261176834Y-99632758D01*
X261338294Y-99731911D01*
X261477036Y-99819624D01*
X261595091Y-99897186D01*
X261694494Y-99965885D01*
X261777278Y-100027011D01*
X261845476Y-100081852D01*
X261901121Y-100131698D01*
X261946247Y-100177837D01*
X261982887Y-100221560D01*
X261988298Y-100228668D01*
X261990354Y-100231800D01*
X262063436Y-100343125D01*
G37*
G36*
X253687308Y-87090769D02*
G01*
X253756026Y-87123026D01*
X253845295Y-87163196D01*
X253947769Y-87207875D01*
X253998279Y-87229737D01*
X254091985Y-87271270D01*
X254167151Y-87305900D01*
X254217101Y-87330513D01*
X254235163Y-87341994D01*
X254217485Y-87350902D01*
X254167080Y-87368394D01*
X254091867Y-87391738D01*
X253999784Y-87418360D01*
X253933925Y-87437518D01*
X253804215Y-87478215D01*
X253674849Y-87521910D01*
X253565932Y-87561948D01*
X253497504Y-87590141D01*
X253404525Y-87630873D01*
X253299013Y-87678824D01*
X253188218Y-87730526D01*
X253079389Y-87782514D01*
X252979778Y-87831321D01*
X252896632Y-87873480D01*
X252837203Y-87905526D01*
X252808740Y-87923992D01*
X252820165Y-87933476D01*
X252865444Y-87958465D01*
X252941021Y-87996641D01*
X253042694Y-88045966D01*
X253166256Y-88104404D01*
X253307504Y-88169919D01*
X253462233Y-88240475D01*
X253600024Y-88302864D01*
X253750435Y-88371342D01*
X253868831Y-88426019D01*
X253958722Y-88468779D01*
X254023614Y-88501503D01*
X254067016Y-88526073D01*
X254092435Y-88544373D01*
X254103380Y-88558283D01*
X254103359Y-88569687D01*
X254095878Y-88580467D01*
X254068821Y-88604131D01*
X254036002Y-88618356D01*
X254016491Y-88611878D01*
X253962419Y-88589838D01*
X253878757Y-88554076D01*
X253770009Y-88506562D01*
X253640680Y-88449266D01*
X253495275Y-88384158D01*
X253338300Y-88313208D01*
X252666184Y-88008060D01*
X252556379Y-88075465D01*
X252456617Y-88138776D01*
X252222877Y-88300899D01*
X251977567Y-88487987D01*
X251728730Y-88693274D01*
X251484403Y-88909991D01*
X251252629Y-89131371D01*
X251041446Y-89350646D01*
X251012106Y-89382822D01*
X250905530Y-89502772D01*
X250795273Y-89631079D01*
X250684438Y-89763739D01*
X250576129Y-89896750D01*
X250473448Y-90026109D01*
X250379498Y-90147813D01*
X250297383Y-90257860D01*
X250230204Y-90352248D01*
X250181067Y-90426972D01*
X250153072Y-90478032D01*
X250149324Y-90501424D01*
X250149457Y-90501531D01*
X250172516Y-90513371D01*
X250229821Y-90540615D01*
X250317598Y-90581527D01*
X250432070Y-90634367D01*
X250569460Y-90697400D01*
X250725992Y-90768886D01*
X250897890Y-90847090D01*
X251081377Y-90930272D01*
X251090741Y-90934510D01*
X251272991Y-91017093D01*
X251442896Y-91094264D01*
X251596772Y-91164336D01*
X251730934Y-91225623D01*
X251841697Y-91276439D01*
X251925375Y-91315096D01*
X251978284Y-91339909D01*
X251996740Y-91349191D01*
X251988809Y-91364877D01*
X251964002Y-91410224D01*
X251926345Y-91477764D01*
X251879963Y-91560050D01*
X251839513Y-91631986D01*
X251603430Y-92071631D01*
X251369793Y-92539299D01*
X251144059Y-93023356D01*
X250931687Y-93512170D01*
X250738133Y-93994106D01*
X250727195Y-94022735D01*
X250682570Y-94142013D01*
X250633253Y-94277014D01*
X250581641Y-94420865D01*
X250530129Y-94566692D01*
X250481113Y-94707624D01*
X250436989Y-94836785D01*
X250400152Y-94947304D01*
X250372998Y-95032307D01*
X250357922Y-95084921D01*
X250355202Y-95099850D01*
X250357575Y-95116597D01*
X250370617Y-95133895D01*
X250398910Y-95154512D01*
X250447038Y-95181216D01*
X250519583Y-95216775D01*
X250621127Y-95263957D01*
X250756253Y-95325531D01*
X251167570Y-95512343D01*
X251012015Y-95529919D01*
X250856460Y-95547495D01*
X250578363Y-95421010D01*
X250300266Y-95294524D01*
X250280216Y-95347258D01*
X250266842Y-95385284D01*
X250260166Y-95411103D01*
X250257445Y-95424923D01*
X250245755Y-95469926D01*
X250227978Y-95532935D01*
X250211534Y-95585505D01*
X250190517Y-95627230D01*
X250159798Y-95649928D01*
X250108349Y-95665853D01*
X250085065Y-95671424D01*
X250036257Y-95680415D01*
X250013248Y-95680389D01*
X250013112Y-95666510D01*
X250022847Y-95616875D01*
X250042612Y-95536685D01*
X250070864Y-95431310D01*
X250106058Y-95306119D01*
X250146653Y-95166480D01*
X250191105Y-95017762D01*
X250237871Y-94865335D01*
X250285407Y-94714567D01*
X250332170Y-94570827D01*
X250378749Y-94432371D01*
X250631952Y-93741186D01*
X250917861Y-93052573D01*
X251231324Y-92378384D01*
X251567188Y-91730469D01*
X251599097Y-91671814D01*
X251648892Y-91578638D01*
X251688733Y-91501976D01*
X251715168Y-91448518D01*
X251724746Y-91424956D01*
X251719291Y-91420806D01*
X251682125Y-91400978D01*
X251613490Y-91367080D01*
X251517734Y-91321118D01*
X251399204Y-91265102D01*
X251262245Y-91201038D01*
X251111205Y-91130934D01*
X250950431Y-91056799D01*
X250784270Y-90980639D01*
X250617068Y-90904463D01*
X250453172Y-90830279D01*
X250296928Y-90760094D01*
X250152685Y-90695915D01*
X250024787Y-90639751D01*
X249968034Y-90613482D01*
X249922102Y-90588737D01*
X249904483Y-90574243D01*
X249910453Y-90560776D01*
X249937878Y-90516993D01*
X249983932Y-90449305D01*
X250044615Y-90363205D01*
X250115924Y-90264188D01*
X250193860Y-90157747D01*
X250274421Y-90049377D01*
X250353608Y-89944573D01*
X250427418Y-89848828D01*
X250491851Y-89767637D01*
X250500590Y-89756915D01*
X250597517Y-89643678D01*
X250717607Y-89511285D01*
X250854536Y-89366077D01*
X251001977Y-89214399D01*
X251153603Y-89062592D01*
X251303088Y-88917000D01*
X251444106Y-88783966D01*
X251570331Y-88669832D01*
X251675435Y-88580942D01*
X251780664Y-88497909D01*
X252186874Y-88202882D01*
X252595916Y-87945762D01*
X253006073Y-87727485D01*
X253415626Y-87548986D01*
X253822857Y-87411202D01*
X253882689Y-87393354D01*
X253956640Y-87369391D01*
X254007282Y-87350529D01*
X254026096Y-87339763D01*
X254022961Y-87336463D01*
X253991077Y-87318244D01*
X253930267Y-87288236D01*
X253847314Y-87249714D01*
X253749005Y-87205956D01*
X253633699Y-87156309D01*
X253542792Y-87121157D01*
X253467184Y-87100209D01*
X253395601Y-87092223D01*
X253316769Y-87095958D01*
X253219412Y-87110172D01*
X253092256Y-87133623D01*
X252801439Y-87195732D01*
X252300949Y-87335890D01*
X251812001Y-87515339D01*
X251336691Y-87732979D01*
X250877112Y-87987707D01*
X250435358Y-88278423D01*
X250013523Y-88604024D01*
X249613701Y-88963410D01*
X249427481Y-89148107D01*
X249211875Y-89376093D01*
X249019905Y-89597438D01*
X248844398Y-89820132D01*
X248779332Y-89905318D01*
X248726506Y-89969706D01*
X248688508Y-90008335D01*
X248660755Y-90025804D01*
X248638667Y-90026716D01*
X248613227Y-90018771D01*
X248589550Y-90008554D01*
X248594103Y-89997509D01*
X248619011Y-89959136D01*
X248660873Y-89900274D01*
X248714724Y-89828081D01*
X248998627Y-89478536D01*
X249349257Y-89100364D01*
X249725524Y-88745805D01*
X250122999Y-88418475D01*
X250537253Y-88121993D01*
X250963858Y-87859976D01*
X251398386Y-87636040D01*
X251605551Y-87539481D01*
X251457888Y-87481547D01*
X251310224Y-87423614D01*
X251107976Y-87499364D01*
X251072040Y-87512918D01*
X250583813Y-87717244D01*
X250124262Y-87949220D01*
X249689283Y-88211527D01*
X249274771Y-88506842D01*
X248876622Y-88837843D01*
X248490732Y-89207209D01*
X248275792Y-89435958D01*
X247992521Y-89772735D01*
X247739846Y-90120908D01*
X247511212Y-90489731D01*
X247300068Y-90888455D01*
X247286571Y-90915998D01*
X247226651Y-91039462D01*
X247171891Y-91154111D01*
X247125658Y-91252780D01*
X247091316Y-91328305D01*
X247072230Y-91373521D01*
X247039537Y-91461058D01*
X247117273Y-91486294D01*
X247148881Y-91497858D01*
X247217275Y-91525064D01*
X247313753Y-91564693D01*
X247433873Y-91614833D01*
X247573193Y-91673569D01*
X247727270Y-91738985D01*
X247891664Y-91809168D01*
X248061933Y-91882203D01*
X248233634Y-91956176D01*
X248402327Y-92029173D01*
X248563568Y-92099278D01*
X248712917Y-92164577D01*
X248845932Y-92223157D01*
X248958171Y-92273102D01*
X249045192Y-92312498D01*
X249102553Y-92339431D01*
X249125812Y-92351987D01*
X249125344Y-92360804D01*
X249113646Y-92401351D01*
X249090850Y-92466534D01*
X249059932Y-92547525D01*
X248950552Y-92840752D01*
X248838031Y-93177750D01*
X248734692Y-93523781D01*
X248644936Y-93864049D01*
X248573164Y-94183760D01*
X248566694Y-94215780D01*
X248546362Y-94314892D01*
X248529285Y-94395894D01*
X248517095Y-94451140D01*
X248511425Y-94472988D01*
X248510755Y-94473462D01*
X248487856Y-94467628D01*
X248444803Y-94447826D01*
X248383047Y-94415891D01*
X248421642Y-94210904D01*
X248471939Y-93969307D01*
X248535929Y-93702690D01*
X248609440Y-93427105D01*
X248688574Y-93157164D01*
X248769432Y-92907483D01*
X248773255Y-92896326D01*
X248814637Y-92775514D01*
X248851606Y-92667499D01*
X248881874Y-92578979D01*
X248903151Y-92516650D01*
X248913145Y-92487208D01*
X248913294Y-92486749D01*
X248907847Y-92462284D01*
X248872629Y-92434895D01*
X248802366Y-92400450D01*
X248778106Y-92389787D01*
X248706537Y-92358323D01*
X248607719Y-92314876D01*
X248488896Y-92262629D01*
X248357313Y-92204769D01*
X248220216Y-92144482D01*
X248070250Y-92078830D01*
X247880741Y-91996689D01*
X247698889Y-91918742D01*
X247529065Y-91846811D01*
X247375640Y-91782719D01*
X247242986Y-91728290D01*
X247135474Y-91685345D01*
X247057477Y-91655709D01*
X247013364Y-91641204D01*
X246999637Y-91638077D01*
X246980533Y-91637703D01*
X246964135Y-91648508D01*
X246947344Y-91676224D01*
X246927061Y-91726585D01*
X246900186Y-91805324D01*
X246863620Y-91918172D01*
X246808730Y-92098966D01*
X246705631Y-92509995D01*
X246625639Y-92938897D01*
X246571401Y-93372490D01*
X246562129Y-93471353D01*
X246674069Y-93513235D01*
X246691360Y-93519724D01*
X246847289Y-93580186D01*
X246982334Y-93636081D01*
X247092742Y-93685644D01*
X247174762Y-93727111D01*
X247224640Y-93758718D01*
X247238625Y-93778700D01*
X247238157Y-93780199D01*
X247233237Y-93814040D01*
X247226608Y-93881903D01*
X247218839Y-93976893D01*
X247210500Y-94092117D01*
X247202158Y-94220683D01*
X247190087Y-94549081D01*
X247203569Y-95078063D01*
X247256704Y-95607959D01*
X247348742Y-96133815D01*
X247478933Y-96650679D01*
X247646527Y-97153599D01*
X247674108Y-97230986D01*
X247698102Y-97308487D01*
X247711164Y-97364333D01*
X247710953Y-97389942D01*
X247700269Y-97387001D01*
X247677107Y-97351744D01*
X247645596Y-97285204D01*
X247607542Y-97192534D01*
X247564751Y-97078886D01*
X247519028Y-96949411D01*
X247472180Y-96809262D01*
X247426011Y-96663591D01*
X247382329Y-96517550D01*
X247342937Y-96376291D01*
X247309644Y-96244966D01*
X247273308Y-96086167D01*
X247221124Y-95825829D01*
X247181245Y-95573743D01*
X247152649Y-95320014D01*
X247134315Y-95054748D01*
X247125221Y-94768050D01*
X247124346Y-94450025D01*
X247124995Y-94322647D01*
X247124481Y-94177388D01*
X247122583Y-94054978D01*
X247119420Y-93960164D01*
X247115111Y-93897691D01*
X247109776Y-93872307D01*
X247105983Y-93869568D01*
X247069748Y-93851149D01*
X247006246Y-93823055D01*
X246924867Y-93789025D01*
X246834999Y-93752797D01*
X246746032Y-93718111D01*
X246667353Y-93688706D01*
X246608352Y-93668321D01*
X246578418Y-93660696D01*
X246574478Y-93663436D01*
X246565868Y-93697082D01*
X246560285Y-93764356D01*
X246557549Y-93859332D01*
X246557479Y-93976087D01*
X246559894Y-94108697D01*
X246564614Y-94251240D01*
X246571456Y-94397789D01*
X246580241Y-94542423D01*
X246590786Y-94679217D01*
X246602913Y-94802246D01*
X246616439Y-94905589D01*
X246687534Y-95295840D01*
X246813004Y-95803120D01*
X246972545Y-96293492D01*
X247164780Y-96762845D01*
X247388328Y-97207071D01*
X247414922Y-97254327D01*
X247460472Y-97329112D01*
X247498415Y-97378650D01*
X247535822Y-97411391D01*
X247579766Y-97435784D01*
X247606436Y-97448908D01*
X247647259Y-97473166D01*
X247660610Y-97488091D01*
X247657966Y-97493258D01*
X247640038Y-97528393D01*
X247609751Y-97587789D01*
X247571853Y-97662137D01*
X247555452Y-97693859D01*
X247519156Y-97760621D01*
X247491378Y-97806946D01*
X247477114Y-97824287D01*
X247461623Y-97808751D01*
X247429225Y-97762017D01*
X247383804Y-97689986D01*
X247328833Y-97598625D01*
X247267786Y-97493897D01*
X247204138Y-97381767D01*
X247141362Y-97268200D01*
X247082933Y-97159161D01*
X247032324Y-97060613D01*
X247020348Y-97036490D01*
X246800924Y-96547197D01*
X246622005Y-96048957D01*
X246483320Y-95540600D01*
X246384596Y-95020958D01*
X246325561Y-94488864D01*
X246305944Y-93943150D01*
X246306096Y-93894238D01*
X246328988Y-93351059D01*
X246391045Y-92821745D01*
X246492653Y-92304891D01*
X246634201Y-91799095D01*
X246816076Y-91302951D01*
X247038666Y-90815056D01*
X247302358Y-90334007D01*
X247470592Y-90065455D01*
X247781092Y-89631426D01*
X248123179Y-89222665D01*
X248494705Y-88840648D01*
X248893520Y-88486850D01*
X249317473Y-88162748D01*
X249764416Y-87869817D01*
X250232198Y-87609533D01*
X250718671Y-87383372D01*
X250750011Y-87371499D01*
X251515120Y-87371499D01*
X251543263Y-87393058D01*
X251609947Y-87422259D01*
X251664601Y-87441644D01*
X251725767Y-87459432D01*
X251763222Y-87465435D01*
X251766229Y-87465066D01*
X251804205Y-87455253D01*
X251871442Y-87434321D01*
X251959392Y-87405020D01*
X252059507Y-87370101D01*
X252342301Y-87277584D01*
X252686851Y-87184162D01*
X253023729Y-87112736D01*
X253025050Y-87112499D01*
X253112558Y-87095222D01*
X253160155Y-87082377D01*
X253169541Y-87074176D01*
X253142415Y-87070832D01*
X253080478Y-87072560D01*
X252985430Y-87079571D01*
X252858971Y-87092078D01*
X252832529Y-87095042D01*
X252697316Y-87112654D01*
X252545899Y-87135700D01*
X252384678Y-87162896D01*
X252220051Y-87192954D01*
X252058420Y-87224588D01*
X251906182Y-87256513D01*
X251769738Y-87287441D01*
X251655487Y-87316086D01*
X251569830Y-87341162D01*
X251519164Y-87361383D01*
X251515120Y-87371499D01*
X250750011Y-87371499D01*
X251221684Y-87192809D01*
X251739088Y-87039321D01*
X252268733Y-86924383D01*
X252301717Y-86918616D01*
X252726175Y-86860377D01*
X253172556Y-86826506D01*
X253629693Y-86816962D01*
X254086423Y-86831706D01*
X254531582Y-86870699D01*
X254954005Y-86933901D01*
X255336279Y-87015115D01*
X255862847Y-87162643D01*
X256373884Y-87347757D01*
X256867558Y-87569160D01*
X257342037Y-87825552D01*
X257795489Y-88115634D01*
X258226083Y-88438110D01*
X258631987Y-88791679D01*
X259011369Y-89175044D01*
X259362397Y-89586906D01*
X259683239Y-90025966D01*
X259972064Y-90490926D01*
X260132000Y-90789767D01*
X260343975Y-91255382D01*
X260523205Y-91740918D01*
X260667895Y-92240687D01*
X260776246Y-92748995D01*
X260846462Y-93260153D01*
X260852657Y-93338182D01*
X260859539Y-93477477D01*
X260864233Y-93642168D01*
X260866740Y-93822657D01*
X260867059Y-94009345D01*
X260865191Y-94192636D01*
X260861135Y-94362932D01*
X260854892Y-94510635D01*
X260846462Y-94626148D01*
X260840082Y-94687904D01*
X260761420Y-95225899D01*
X260642704Y-95752184D01*
X260484305Y-96265809D01*
X260286593Y-96765827D01*
X260049938Y-97251287D01*
X259774711Y-97721241D01*
X259461283Y-98174740D01*
X259406925Y-98246568D01*
X259357653Y-98309744D01*
X259322566Y-98352532D01*
X259306973Y-98368274D01*
X259306410Y-98368257D01*
X259294668Y-98364367D01*
X259269271Y-98350785D01*
X259222935Y-98323362D01*
X259148374Y-98277949D01*
X259092183Y-98243538D01*
X259278402Y-97995397D01*
X259570937Y-97572777D01*
X259836358Y-97117836D01*
X260065252Y-96644281D01*
X260256654Y-96154590D01*
X260409598Y-95651241D01*
X260523120Y-95136710D01*
X260596254Y-94613476D01*
X260605252Y-94495613D01*
X260612421Y-94336197D01*
X260616792Y-94155160D01*
X260618363Y-93963018D01*
X260617130Y-93770289D01*
X260613092Y-93587489D01*
X260606246Y-93425136D01*
X260596588Y-93293747D01*
X260564950Y-93025042D01*
X260472189Y-92500212D01*
X260340015Y-91989068D01*
X260168741Y-91492290D01*
X259958677Y-91010557D01*
X259710137Y-90544549D01*
X259423432Y-90094943D01*
X259098875Y-89662419D01*
X258736777Y-89247656D01*
X258666519Y-89172804D01*
X258723021Y-89252405D01*
X258785533Y-89341054D01*
X258860380Y-89449012D01*
X258921228Y-89538986D01*
X258965445Y-89606998D01*
X258990397Y-89649067D01*
X258993452Y-89661213D01*
X258866798Y-89601084D01*
X258664721Y-89503360D01*
X258500171Y-89421103D01*
X258372429Y-89353928D01*
X258280775Y-89301453D01*
X258224492Y-89263293D01*
X258202858Y-89239064D01*
X258197541Y-89211648D01*
X258198875Y-89188159D01*
X258211951Y-89191802D01*
X258257106Y-89211151D01*
X258328418Y-89244271D01*
X258419654Y-89288252D01*
X258524581Y-89340185D01*
X258608179Y-89381652D01*
X258702878Y-89427532D01*
X258778996Y-89463147D01*
X258830294Y-89485592D01*
X258850536Y-89491962D01*
X258850771Y-89489477D01*
X258836330Y-89462152D01*
X258801912Y-89411169D01*
X258752687Y-89343298D01*
X258693823Y-89265305D01*
X258630487Y-89183960D01*
X258567848Y-89106030D01*
X258511073Y-89038283D01*
X258465331Y-88987488D01*
X258431335Y-88953169D01*
X258327624Y-88856094D01*
X258200944Y-88745482D01*
X258059618Y-88628303D01*
X257911970Y-88511528D01*
X257766324Y-88402128D01*
X257714254Y-88364918D01*
X257621253Y-88301006D01*
X257520186Y-88233952D01*
X257417156Y-88167559D01*
X257318264Y-88105627D01*
X257229613Y-88051955D01*
X257157304Y-88010343D01*
X257107440Y-87984594D01*
X257086124Y-87978506D01*
X257085970Y-87978703D01*
X257091362Y-88001075D01*
X257111804Y-88049880D01*
X257143036Y-88114915D01*
X257167400Y-88167576D01*
X257217750Y-88303071D01*
X257264422Y-88462725D01*
X257304120Y-88634575D01*
X257333551Y-88806659D01*
X257334561Y-88814445D01*
X257341252Y-88893642D01*
X257346597Y-89006059D01*
X257350514Y-89144120D01*
X257352923Y-89300247D01*
X257353741Y-89466865D01*
X257352888Y-89636398D01*
X257350283Y-89801268D01*
X257345845Y-89953900D01*
X257342456Y-90044551D01*
X257729524Y-90228307D01*
X257755625Y-90240712D01*
X257867891Y-90294300D01*
X258000536Y-90357907D01*
X258149411Y-90429518D01*
X258310369Y-90507121D01*
X258479261Y-90588703D01*
X258651939Y-90672251D01*
X258824254Y-90755753D01*
X258992058Y-90837195D01*
X259151203Y-90914564D01*
X259297541Y-90985848D01*
X259426922Y-91049034D01*
X259535199Y-91102108D01*
X259618223Y-91143058D01*
X259671846Y-91169870D01*
X259691920Y-91180533D01*
X259694777Y-91185108D01*
X259708547Y-91223302D01*
X259728500Y-91292045D01*
X259752683Y-91383547D01*
X259779140Y-91490017D01*
X259805920Y-91603664D01*
X259831067Y-91716698D01*
X259852628Y-91821328D01*
X259868830Y-91906922D01*
X259941952Y-92402445D01*
X259981597Y-92911102D01*
X259985214Y-92992369D01*
X259988950Y-93089349D01*
X259989833Y-93153961D01*
X259987320Y-93191967D01*
X259980867Y-93209127D01*
X259969930Y-93211203D01*
X259953965Y-93203958D01*
X259951995Y-93202875D01*
X259936282Y-93190341D01*
X259924704Y-93168815D01*
X259916196Y-93131729D01*
X259909693Y-93072518D01*
X259904130Y-92984613D01*
X259898444Y-92861447D01*
X259890930Y-92710439D01*
X259867970Y-92408011D01*
X259834023Y-92123411D01*
X259786995Y-91840755D01*
X259724791Y-91544162D01*
X259669113Y-91300199D01*
X259021107Y-90982536D01*
X258963838Y-90954484D01*
X258762900Y-90856378D01*
X258556825Y-90756211D01*
X258350359Y-90656261D01*
X258148247Y-90558800D01*
X257955235Y-90466107D01*
X257776068Y-90380455D01*
X257615493Y-90304120D01*
X257478253Y-90239379D01*
X257369096Y-90188506D01*
X257292766Y-90153777D01*
X257289876Y-90152493D01*
X257228516Y-90123642D01*
X257197393Y-90101155D01*
X257188442Y-90075566D01*
X257193596Y-90037411D01*
X257196482Y-90022115D01*
X257209882Y-89931852D01*
X257223729Y-89811258D01*
X257237119Y-89669695D01*
X257249147Y-89516525D01*
X257258910Y-89361107D01*
X257262971Y-89243940D01*
X257260679Y-89047189D01*
X257248287Y-88848395D01*
X257226858Y-88653814D01*
X257197457Y-88469704D01*
X257161145Y-88302324D01*
X257118987Y-88157931D01*
X257072045Y-88042783D01*
X257021384Y-87963138D01*
X257020436Y-87962106D01*
X256987189Y-87937868D01*
X256924953Y-87901398D01*
X256842284Y-87857461D01*
X256747740Y-87810819D01*
X256736721Y-87805569D01*
X256646164Y-87761465D01*
X256570788Y-87723113D01*
X256518182Y-87694472D01*
X256495938Y-87679500D01*
X256477827Y-87666466D01*
X256427213Y-87641237D01*
X256354428Y-87609450D01*
X256269128Y-87574879D01*
X256180972Y-87541295D01*
X256099616Y-87512472D01*
X256034720Y-87492180D01*
X255995939Y-87484193D01*
X255896951Y-87491149D01*
X255763042Y-87518263D01*
X255609609Y-87564057D01*
X255590478Y-87570652D01*
X255490009Y-87607898D01*
X255393812Y-87647407D01*
X255308895Y-87685862D01*
X255242267Y-87719944D01*
X255200938Y-87746338D01*
X255191918Y-87761726D01*
X255191951Y-87761755D01*
X255214902Y-87774321D01*
X255270774Y-87801787D01*
X255354440Y-87841727D01*
X255460777Y-87891716D01*
X255584657Y-87949326D01*
X255720957Y-88012133D01*
X255724407Y-88013716D01*
X255859666Y-88075837D01*
X255981748Y-88132031D01*
X256085678Y-88179997D01*
X256166485Y-88217437D01*
X256219193Y-88242051D01*
X256238830Y-88251540D01*
X256234951Y-88261376D01*
X256214745Y-88304971D01*
X256178777Y-88380312D01*
X256128683Y-88484034D01*
X256066100Y-88612773D01*
X255992665Y-88763162D01*
X255910016Y-88931837D01*
X255819789Y-89115432D01*
X255723622Y-89310584D01*
X255667513Y-89424359D01*
X255570007Y-89622384D01*
X255477105Y-89811435D01*
X255390801Y-89987433D01*
X255313086Y-90146305D01*
X255245954Y-90283973D01*
X255191397Y-90396362D01*
X255151407Y-90479395D01*
X255127978Y-90528997D01*
X255052812Y-90692603D01*
X255161967Y-90741183D01*
X255165492Y-90742758D01*
X255219506Y-90767467D01*
X255307188Y-90808195D01*
X255424801Y-90863175D01*
X255568608Y-90930642D01*
X255734873Y-91008831D01*
X255919859Y-91095975D01*
X256119829Y-91190309D01*
X256331048Y-91290067D01*
X256549777Y-91393484D01*
X256772282Y-91498793D01*
X256994824Y-91604230D01*
X257213668Y-91708029D01*
X257425077Y-91808424D01*
X257625314Y-91903649D01*
X257810643Y-91991939D01*
X257977327Y-92071527D01*
X258737733Y-92435129D01*
X258724023Y-92571924D01*
X258701886Y-92764521D01*
X258655596Y-93080197D01*
X258596464Y-93410208D01*
X258527139Y-93740189D01*
X258450271Y-94055776D01*
X258441655Y-94088845D01*
X258417022Y-94186774D01*
X258398177Y-94266934D01*
X258386835Y-94321783D01*
X258384714Y-94343782D01*
X258387638Y-94345533D01*
X258419281Y-94362018D01*
X258481371Y-94393516D01*
X258568687Y-94437431D01*
X258676006Y-94491165D01*
X258798108Y-94552123D01*
X258929771Y-94617707D01*
X259065775Y-94685321D01*
X259200898Y-94752368D01*
X259329919Y-94816252D01*
X259447616Y-94874376D01*
X259548768Y-94924144D01*
X259628154Y-94962958D01*
X259680553Y-94988223D01*
X259739252Y-95026418D01*
X259759013Y-95068162D01*
X259757476Y-95085264D01*
X259744952Y-95147019D01*
X259721596Y-95237914D01*
X259689538Y-95350963D01*
X259650912Y-95479180D01*
X259607849Y-95615580D01*
X259562482Y-95753178D01*
X259516942Y-95884987D01*
X259473363Y-96004023D01*
X259457248Y-96045382D01*
X259415256Y-96147201D01*
X259364226Y-96265156D01*
X259306749Y-96393804D01*
X259245415Y-96527702D01*
X259182815Y-96661407D01*
X259121539Y-96789476D01*
X259064177Y-96906465D01*
X259013321Y-97006931D01*
X258971561Y-97085432D01*
X258941487Y-97136524D01*
X258925690Y-97154765D01*
X258910580Y-97150238D01*
X258875349Y-97128612D01*
X258865733Y-97116831D01*
X258863471Y-97097403D01*
X258870800Y-97065609D01*
X258889630Y-97016479D01*
X258921871Y-96945045D01*
X258969434Y-96846339D01*
X259034229Y-96715391D01*
X259109027Y-96560936D01*
X259217974Y-96321137D01*
X259321659Y-96075958D01*
X259416869Y-95833677D01*
X259500393Y-95602571D01*
X259569019Y-95390916D01*
X259619536Y-95206990D01*
X259621659Y-95195278D01*
X259620098Y-95181781D01*
X259610929Y-95167017D01*
X259590822Y-95149080D01*
X259556449Y-95126064D01*
X259504479Y-95096063D01*
X259431583Y-95057170D01*
X259334432Y-95007481D01*
X259209697Y-94945089D01*
X259054047Y-94868088D01*
X258864155Y-94774573D01*
X258851715Y-94768454D01*
X258662713Y-94675773D01*
X258453739Y-94573784D01*
X258230026Y-94465006D01*
X257996806Y-94351958D01*
X257759310Y-94237159D01*
X257522771Y-94123129D01*
X257292422Y-94012386D01*
X257073493Y-93907449D01*
X256871218Y-93810838D01*
X256690828Y-93725072D01*
X256537556Y-93652670D01*
X256416633Y-93596151D01*
X256377403Y-93577752D01*
X256308955Y-93544423D01*
X256261668Y-93519679D01*
X256244021Y-93507856D01*
X256251950Y-93471855D01*
X256270910Y-93425194D01*
X256292986Y-93384923D01*
X256310264Y-93367780D01*
X256320601Y-93371107D01*
X256366931Y-93390824D01*
X256448313Y-93427597D01*
X256563134Y-93480667D01*
X256709779Y-93549275D01*
X256886636Y-93632663D01*
X257092090Y-93730070D01*
X257324529Y-93840737D01*
X257582338Y-93963905D01*
X257863904Y-94098816D01*
X257989075Y-94157887D01*
X258094969Y-94205173D01*
X258169221Y-94234491D01*
X258214525Y-94246895D01*
X258233575Y-94243439D01*
X258242109Y-94223204D01*
X258260716Y-94164926D01*
X258285552Y-94077833D01*
X258314802Y-93968880D01*
X258346653Y-93845019D01*
X258379290Y-93713206D01*
X258410898Y-93580394D01*
X258439663Y-93453538D01*
X258453618Y-93388569D01*
X258482333Y-93245362D01*
X258509023Y-93100210D01*
X258532782Y-92959247D01*
X258552703Y-92828609D01*
X258567879Y-92714429D01*
X258577404Y-92622845D01*
X258580369Y-92559989D01*
X258575870Y-92531998D01*
X258575296Y-92531513D01*
X258549174Y-92516950D01*
X258488687Y-92486241D01*
X258397034Y-92440908D01*
X258277414Y-92382474D01*
X258133025Y-92312459D01*
X257967067Y-92232386D01*
X257782739Y-92143778D01*
X257583239Y-92048156D01*
X257371766Y-91947041D01*
X257151521Y-91841957D01*
X256925700Y-91734425D01*
X256697505Y-91625966D01*
X256470132Y-91518104D01*
X256246782Y-91412360D01*
X256030654Y-91310256D01*
X255824946Y-91213313D01*
X255632857Y-91123055D01*
X255457586Y-91041003D01*
X255302333Y-90968679D01*
X255170296Y-90907604D01*
X255064675Y-90859302D01*
X254988667Y-90825294D01*
X254980540Y-90821721D01*
X254879686Y-90776165D01*
X254766639Y-90723448D01*
X254664367Y-90674265D01*
X254639547Y-90662246D01*
X254566416Y-90627560D01*
X254462799Y-90578976D01*
X254333628Y-90518784D01*
X254183837Y-90449278D01*
X254018361Y-90372747D01*
X253842132Y-90291484D01*
X253660084Y-90207781D01*
X253536856Y-90151186D01*
X253370182Y-90074565D01*
X253218218Y-90004625D01*
X253084851Y-89943157D01*
X252973970Y-89891958D01*
X252889462Y-89852820D01*
X252835215Y-89827537D01*
X252815116Y-89817902D01*
X252812878Y-89813819D01*
X252822446Y-89787660D01*
X252848236Y-89751751D01*
X252879153Y-89720004D01*
X252904101Y-89706330D01*
X252905949Y-89706677D01*
X252936934Y-89718568D01*
X253001367Y-89746153D01*
X253095523Y-89787754D01*
X253215677Y-89841689D01*
X253358101Y-89906280D01*
X253519072Y-89979846D01*
X253694863Y-90060707D01*
X253881749Y-90147183D01*
X253919950Y-90164910D01*
X254104681Y-90250608D01*
X254277337Y-90330667D01*
X254434221Y-90403374D01*
X254571636Y-90467020D01*
X254685886Y-90519890D01*
X254773273Y-90560275D01*
X254830100Y-90586461D01*
X254852670Y-90596737D01*
X254860869Y-90590203D01*
X254886824Y-90552462D01*
X254926702Y-90485673D01*
X254977646Y-90394847D01*
X255036797Y-90284991D01*
X255101295Y-90161115D01*
X255219925Y-89930531D01*
X255414581Y-89556449D01*
X255595653Y-89214130D01*
X255761997Y-88905729D01*
X255912467Y-88633401D01*
X255967339Y-88534790D01*
X256019328Y-88439791D01*
X256060422Y-88362973D01*
X256087376Y-88310411D01*
X256096943Y-88288179D01*
X256087778Y-88281366D01*
X256045803Y-88258690D01*
X255974539Y-88222995D01*
X255879195Y-88176739D01*
X255764983Y-88122377D01*
X255637114Y-88062367D01*
X255500798Y-87999165D01*
X255361247Y-87935229D01*
X255223670Y-87873014D01*
X255093280Y-87814979D01*
X254978206Y-87764253D01*
X255156048Y-87681740D01*
X255304274Y-87617028D01*
X255543268Y-87532328D01*
X255769793Y-87478498D01*
X255819334Y-87469671D01*
X255873490Y-87458556D01*
X255894439Y-87449700D01*
X255887240Y-87440098D01*
X255856954Y-87426747D01*
X255737232Y-87383829D01*
X255578714Y-87336337D01*
X255394977Y-87288230D01*
X255194433Y-87241366D01*
X254985490Y-87197600D01*
X254776559Y-87158789D01*
X254576050Y-87126789D01*
X254392374Y-87103457D01*
X254298817Y-87093851D01*
X254145321Y-87079665D01*
X254003174Y-87068404D01*
X253877417Y-87060325D01*
X253773095Y-87055686D01*
X253695250Y-87054745D01*
X253648924Y-87057758D01*
X253639161Y-87064984D01*
X253646486Y-87069824D01*
X253654968Y-87074176D01*
X253687308Y-87090769D01*
G37*
%LPC*%
D11*
X290317626Y-60435000D03*
D12*
X291587626Y-64245000D03*
D13*
X289047626Y-64245000D03*
D14*
X79940000Y-146540000D03*
D15*
X284697500Y-122819000D03*
D16*
X287237500Y-122819000D03*
X289777500Y-122819000D03*
X292317500Y-122819000D03*
X294857500Y-122819000D03*
D15*
X229350000Y-82030000D03*
D16*
X231890000Y-82030000D03*
X234430000Y-82030000D03*
X236970000Y-82030000D03*
X239510000Y-82030000D03*
X242050000Y-82030000D03*
X244590000Y-82030000D03*
X247130000Y-82030000D03*
X249670000Y-82030000D03*
X252210000Y-82030000D03*
X254750000Y-82030000D03*
X257290000Y-82030000D03*
X259830000Y-82030000D03*
X262370000Y-82030000D03*
X264910000Y-82030000D03*
X267450000Y-82030000D03*
X269990000Y-82030000D03*
X272530000Y-82030000D03*
X275070000Y-82030000D03*
X277610000Y-82030000D03*
X277610000Y-66790000D03*
X275070000Y-66790000D03*
X272530000Y-66790000D03*
X269990000Y-66790000D03*
X267450000Y-66790000D03*
X264910000Y-66790000D03*
X262370000Y-66790000D03*
X259830000Y-66790000D03*
X257290000Y-66790000D03*
X254750000Y-66790000D03*
X252210000Y-66790000D03*
X249670000Y-66790000D03*
X247130000Y-66790000D03*
X244590000Y-66790000D03*
X242050000Y-66790000D03*
X239510000Y-66790000D03*
X236970000Y-66790000D03*
X234430000Y-66790000D03*
X231890000Y-66790000D03*
X229350000Y-66790000D03*
D11*
X223750000Y-56140000D03*
D12*
X225020000Y-59950000D03*
D13*
X222480000Y-59950000D03*
D15*
X251123200Y-110326600D03*
D17*
X248583200Y-110326600D03*
X246043200Y-110326600D03*
X243503200Y-110326600D03*
X240963200Y-110326600D03*
X238423200Y-110326600D03*
D14*
X91840000Y-146540000D03*
D11*
X269650000Y-49420000D03*
D18*
X266985443Y-52424852D03*
D13*
X265715443Y-50225147D03*
D19*
X226460000Y-91620000D03*
X226460000Y-109620000D03*
D15*
X214200000Y-64620000D03*
D11*
X243395445Y-45334852D03*
D20*
X247330000Y-46140000D03*
D13*
X246060000Y-48339705D03*
D14*
X85890000Y-146540000D03*
D15*
X214900000Y-82460000D03*
X270686600Y-110215800D03*
D17*
X268146600Y-110215800D03*
X265606600Y-110215800D03*
X263066600Y-110215800D03*
X260526600Y-110215800D03*
X257986600Y-110215800D03*
D21*
X217290000Y-132158000D03*
X217290000Y-127332000D03*
X217290000Y-122506000D03*
D15*
X256130000Y-132740000D03*
D14*
X91840000Y-152490000D03*
D22*
X225970000Y-124500000D03*
D23*
X223470000Y-124500000D03*
D11*
X265866554Y-45384256D03*
D18*
X263201997Y-48389108D03*
D13*
X261931997Y-46189403D03*
D14*
X97790000Y-152490000D03*
D24*
X278390000Y-123130000D03*
D23*
X275850000Y-123130000D03*
X273310000Y-123130000D03*
X270770000Y-123130000D03*
X268230000Y-123130000D03*
X265690000Y-123130000D03*
X263150000Y-123130000D03*
X260610000Y-123130000D03*
X260610000Y-130750000D03*
X263150000Y-130750000D03*
X265690000Y-130750000D03*
X268230000Y-130750000D03*
X270770000Y-130750000D03*
X273310000Y-130750000D03*
X275850000Y-130750000D03*
X278390000Y-130750000D03*
D14*
X79940000Y-152490000D03*
X97790000Y-146540000D03*
D15*
X256210000Y-127280000D03*
D11*
X285210000Y-56000000D03*
D12*
X286480000Y-59810000D03*
D13*
X283940000Y-59810000D03*
D14*
X85890000Y-152490000D03*
D11*
X218777626Y-60345000D03*
D12*
X220047626Y-64155000D03*
D13*
X217507626Y-64155000D03*
D25*
X249965000Y-126275000D03*
D23*
X249965000Y-123775000D03*
D15*
X211750000Y-124050000D03*
D19*
X282647500Y-109620000D03*
X282647500Y-91620000D03*
D11*
X239517547Y-49370903D03*
D20*
X243452102Y-50176051D03*
D13*
X242182102Y-52375756D03*
D15*
X284490000Y-65020000D03*
X211680000Y-131210000D03*
D16*
X211680000Y-128670000D03*
%LPD*%
M02*
