M48
; DRILL file {KiCad 9.0.2} date 2026-09-01T00:42:34-0700
; FORMAT={-:-/ absolute / metric / decimal}
; #@! TF.CreationDate,2026-09-01T00:42:34-07:00
; #@! TF.GenerationSoftware,Kicad,Pcbnew,9.0.2
; #@! TF.FileFunction,Plated,1,2,PTH
FMAT,2
METRIC
; #@! TA.AperFunction,Plated,PTH,ViaDrill
T1C0.300
; #@! TA.AperFunction,Plated,PTH,ViaDrill
T2C0.400
; #@! TA.AperFunction,Plated,PTH,ComponentDrill
T3C0.800
; #@! TA.AperFunction,Plated,PTH,ComponentDrill
T4C0.900
; #@! TA.AperFunction,Plated,PTH,ComponentDrill
T5C0.950
; #@! TA.AperFunction,Plated,PTH,ComponentDrill
T6C1.000
; #@! TA.AperFunction,Plated,PTH,ComponentDrill
T7C1.850
%
G90
G05
T1
X214.82Y-71.04
X225.8Y-81.49
X226.43Y-67.799
X227.15Y-61.28
X227.66Y-74.67
X232.467Y-63.337
X233.95Y-86.04
X237.13Y-65.11
X242.9Y-84.1
X243.29Y-61.26
X243.88Y-56.88
X243.91Y-55.85
X245.8Y-61.72
X245.82Y-60.77
X248.12Y-60.82
X248.58Y-47.86
X248.67Y-55.71
X248.72Y-56.77
X252.63Y-53.66
X253.06Y-52.73
X253.64Y-53.66
X268.05Y-76.29
X271.73Y-75.08
X280.67Y-131.06
X280.7Y-128.04
X281.56Y-129.5
X281.76Y-133.53
X282.34Y-134.39
X291.57Y-66.36
X293.43Y-123.72
X294.1Y-127.57
X296.99Y-127.98
X297.01Y-129.0
X297.12Y-123.09
X297.17Y-124.03
X297.46Y-133.51
X298.5Y-134.21
T2
X210.91Y-72.75
X211.06Y-69.37
X211.141Y-76.548
X211.42Y-80.51
X211.42Y-84.07
X217.55Y-84.27
X217.64Y-73.425
X219.19Y-84.24
X219.59Y-67.1
X220.05Y-80.79
X221.31Y-121.46
X221.95Y-80.81
X222.001Y-89.348
X222.24Y-65.32
X222.26Y-120.28
X222.595Y-66.705
X223.94Y-120.29
X224.86Y-131.4
X224.96Y-134.14
X225.78Y-66.99
X226.18Y-111.64
X226.18Y-113.26
X228.08Y-52.77
X228.92Y-89.19
X229.07Y-117.63
X229.09Y-109.13
X230.13Y-51.26
X230.82Y-115.94
X230.87Y-117.65
X231.97Y-49.51
X232.08Y-134.45
X232.89Y-117.58
X233.1Y-121.68
X234.6Y-62.57
X234.82Y-111.29
X235.99Y-105.44
X236.4Y-110.38
X236.45Y-111.91
X238.35Y-98.26
X240.09Y-55.88
X242.19Y-97.38
X242.32Y-101.69
X243.49Y-54.49
X244.01Y-41.63
X245.27Y-63.0
X246.38Y-131.24
X246.478Y-132.617
X246.48Y-134.14
X247.2Y-41.09
X247.3Y-99.6
X247.71Y-92.33
X248.25Y-62.05
X249.5Y-47.14
X249.86Y-45.98
X250.27Y-104.58
X250.3Y-40.65
X250.38Y-58.42
X252.81Y-121.89
X253.35Y-89.58
X253.39Y-127.61
X253.59Y-132.84
X253.68Y-40.44
X253.99Y-124.6
X255.58Y-61.04
X257.15Y-40.51
X257.25Y-57.32
X257.25Y-59.94
X258.95Y-125.38
X259.36Y-100.81
X259.65Y-91.22
X259.92Y-121.73
X260.43Y-125.13
X260.46Y-40.72
X261.85Y-97.18
X262.49Y-70.8
X263.46Y-41.16
X263.87Y-87.82
X264.51Y-59.682
X265.08Y-102.03
X265.677Y-57.106
X266.49Y-41.58
X267.86Y-120.75
X268.32Y-56.78
X268.38Y-98.86
X268.925Y-103.583
X269.0Y-104.63
X269.32Y-92.73
X270.04Y-120.72
X270.84Y-72.0
X273.2Y-51.08
X273.97Y-100.62
X274.14Y-73.48
X274.17Y-53.5
X274.17Y-53.5
X274.3Y-50.37
X274.44Y-90.45
X274.5Y-79.54
X275.23Y-64.37
X275.32Y-113.58
X275.39Y-110.97
X276.26Y-70.7
X277.11Y-78.65
X278.3Y-46.12
X278.59Y-53.01
X280.27Y-122.67
X280.73Y-47.91
X280.86Y-68.29
X281.85Y-63.2
X282.06Y-86.52
X282.36Y-88.78
X282.36Y-102.67
X282.537Y-100.108
X282.54Y-96.17
X282.54Y-97.66
X283.22Y-49.5
X285.67Y-115.982
X285.721Y-74.629
X287.19Y-65.17
X287.27Y-72.9
X288.63Y-74.65
X292.61Y-66.29
X293.56Y-65.59
X297.0Y-126.58
X297.03Y-125.09
X298.28Y-84.09
X298.72Y-131.18
T3
X223.47Y-124.5
X225.97Y-124.5
X249.965Y-123.775
X249.965Y-126.275
X260.61Y-123.13
X260.61Y-130.75
X263.15Y-123.13
X263.15Y-130.75
X265.69Y-123.13
X265.69Y-130.75
X268.23Y-123.13
X268.23Y-130.75
X270.77Y-123.13
X270.77Y-130.75
X273.31Y-123.13
X273.31Y-130.75
X275.85Y-123.13
X275.85Y-130.75
X278.39Y-123.13
X278.39Y-130.75
T4
X217.508Y-64.155
X220.048Y-64.155
X222.48Y-59.95
X225.02Y-59.95
X242.182Y-52.376
X243.452Y-50.176
X246.06Y-48.34
X247.33Y-46.14
X261.932Y-46.189
X263.202Y-48.389
X265.715Y-50.225
X266.985Y-52.425
X283.94Y-59.81
X286.48Y-59.81
X289.048Y-64.245
X291.588Y-64.245
T5
X240.53Y-112.83
X243.03Y-112.83
X245.53Y-112.83
X248.03Y-112.83
X250.53Y-112.83
X253.03Y-112.83
X261.11Y-112.83
X263.61Y-112.83
X266.11Y-112.83
X268.61Y-112.83
X271.11Y-112.83
X273.61Y-112.83
T6
X211.68Y-128.67
X211.68Y-131.21
X211.75Y-124.05
X214.2Y-64.62
X214.69Y-82.43
X229.35Y-66.79
X229.35Y-82.03
X231.89Y-66.79
X231.89Y-82.03
X234.43Y-66.79
X234.43Y-82.03
X236.97Y-66.79
X236.97Y-82.03
X239.51Y-66.79
X239.51Y-82.03
X242.05Y-66.79
X242.05Y-82.03
X244.59Y-66.79
X244.59Y-82.03
X247.13Y-66.79
X247.13Y-82.03
X249.67Y-66.79
X249.67Y-82.03
X252.21Y-66.79
X252.21Y-82.03
X254.75Y-66.79
X254.75Y-82.03
X256.19Y-126.83
X256.26Y-132.79
X257.29Y-66.79
X257.29Y-82.03
X259.83Y-66.79
X259.83Y-82.03
X262.37Y-66.79
X262.37Y-82.03
X264.91Y-66.79
X264.91Y-82.03
X267.45Y-66.79
X267.45Y-82.03
X269.99Y-66.79
X269.99Y-82.03
X272.53Y-66.79
X272.53Y-82.03
X275.07Y-66.79
X275.07Y-82.03
X277.61Y-66.79
X277.61Y-82.03
X284.61Y-65.13
X284.697Y-122.819
X287.238Y-122.819
X289.777Y-122.819
X292.317Y-122.819
X294.857Y-122.819
T7
X217.29Y-122.506
X217.29Y-127.332
X217.29Y-132.158
M30
