G04 #@! TF.GenerationSoftware,KiCad,Pcbnew,9.0.2*
G04 #@! TF.CreationDate,2026-08-31T18:38:57-07:00*
G04 #@! TF.ProjectId,bloo,626c6f6f-2e6b-4696-9361-645f70636258,rev?*
G04 #@! TF.SameCoordinates,Original*
G04 #@! TF.FileFunction,Paste,Top*
G04 #@! TF.FilePolarity,Positive*
%FSLAX46Y46*%
G04 Gerber Fmt 4.6, Leading zero omitted, Abs format (unit mm)*
G04 Created by KiCad (PCBNEW 9.0.2) date 2026-08-31 18:38:57*
%MOMM*%
%LPD*%
G01*
G04 APERTURE LIST*
G04 Aperture macros list*
%AMRoundRect*
0 Rectangle with rounded corners*
0 $1 Rounding radius*
0 $2 $3 $4 $5 $6 $7 $8 $9 X,Y pos of 4 corners*
0 Add a 4 corners polygon primitive as box body*
4,1,4,$2,$3,$4,$5,$6,$7,$8,$9,$2,$3,0*
0 Add four circle primitives for the rounded corners*
1,1,$1+$1,$2,$3*
1,1,$1+$1,$4,$5*
1,1,$1+$1,$6,$7*
1,1,$1+$1,$8,$9*
0 Add four rect primitives between the rounded corners*
20,1,$1+$1,$2,$3,$4,$5,0*
20,1,$1+$1,$4,$5,$6,$7,0*
20,1,$1+$1,$6,$7,$8,$9,0*
20,1,$1+$1,$8,$9,$2,$3,0*%
G04 Aperture macros list end*
%ADD10R,2.000000X2.500000*%
%ADD11RoundRect,0.250000X0.325000X0.650000X-0.325000X0.650000X-0.325000X-0.650000X0.325000X-0.650000X0*%
%ADD12RoundRect,0.250000X0.412500X0.650000X-0.412500X0.650000X-0.412500X-0.650000X0.412500X-0.650000X0*%
%ADD13RoundRect,0.150000X0.150000X-0.587500X0.150000X0.587500X-0.150000X0.587500X-0.150000X-0.587500X0*%
%ADD14RoundRect,0.250000X-0.412500X-0.650000X0.412500X-0.650000X0.412500X0.650000X-0.412500X0.650000X0*%
%ADD15RoundRect,0.250000X0.400000X0.625000X-0.400000X0.625000X-0.400000X-0.625000X0.400000X-0.625000X0*%
%ADD16RoundRect,0.250000X-0.650000X0.412500X-0.650000X-0.412500X0.650000X-0.412500X0.650000X0.412500X0*%
%ADD17RoundRect,0.225000X0.225000X0.250000X-0.225000X0.250000X-0.225000X-0.250000X0.225000X-0.250000X0*%
%ADD18RoundRect,0.250000X-0.625000X0.400000X-0.625000X-0.400000X0.625000X-0.400000X0.625000X0.400000X0*%
%ADD19RoundRect,0.250000X0.325000X0.450000X-0.325000X0.450000X-0.325000X-0.450000X0.325000X-0.450000X0*%
%ADD20RoundRect,0.150000X-0.150000X-0.625000X0.150000X-0.625000X0.150000X0.625000X-0.150000X0.625000X0*%
%ADD21RoundRect,0.250000X-0.350000X-0.650000X0.350000X-0.650000X0.350000X0.650000X-0.350000X0.650000X0*%
%ADD22RoundRect,0.250000X0.625000X-0.400000X0.625000X0.400000X-0.625000X0.400000X-0.625000X-0.400000X0*%
%ADD23RoundRect,0.083750X0.486250X0.251250X-0.486250X0.251250X-0.486250X-0.251250X0.486250X-0.251250X0*%
%ADD24C,0.500000*%
%ADD25RoundRect,0.150000X-0.150000X0.512500X-0.150000X-0.512500X0.150000X-0.512500X0.150000X0.512500X0*%
%ADD26RoundRect,0.150000X0.587500X0.150000X-0.587500X0.150000X-0.587500X-0.150000X0.587500X-0.150000X0*%
%ADD27RoundRect,0.150000X-0.587500X-0.150000X0.587500X-0.150000X0.587500X0.150000X-0.587500X0.150000X0*%
%ADD28RoundRect,0.250001X-0.462499X-0.624999X0.462499X-0.624999X0.462499X0.624999X-0.462499X0.624999X0*%
%ADD29RoundRect,0.250000X0.650000X-0.412500X0.650000X0.412500X-0.650000X0.412500X-0.650000X-0.412500X0*%
%ADD30RoundRect,0.250000X-0.400000X-0.625000X0.400000X-0.625000X0.400000X0.625000X-0.400000X0.625000X0*%
%ADD31R,4.550000X5.250000*%
%ADD32R,4.600000X1.100000*%
%ADD33C,1.524000*%
G04 APERTURE END LIST*
D10*
X295900000Y-77500000D03*
X295900000Y-68940000D03*
D11*
X285337500Y-131479000D03*
X282387500Y-131479000D03*
D12*
X258705000Y-61040000D03*
X255580000Y-61040000D03*
D13*
X234845000Y-55110000D03*
X236745000Y-55110000D03*
X235795000Y-53235000D03*
D14*
X213405000Y-77680000D03*
X216530000Y-77680000D03*
D15*
X239010000Y-89960000D03*
X235910000Y-89960000D03*
D16*
X251555000Y-129805000D03*
X251555000Y-132930000D03*
D17*
X285472500Y-133599000D03*
X283922500Y-133599000D03*
D18*
X250380000Y-58420000D03*
X250380000Y-61520000D03*
X270265000Y-57830000D03*
X270265000Y-60930000D03*
D19*
X243410000Y-92160000D03*
X241360000Y-92160000D03*
D18*
X264280000Y-57970000D03*
X264280000Y-61070000D03*
D20*
X247276600Y-116525800D03*
X246276600Y-116525800D03*
X245276600Y-116525800D03*
X244276600Y-116525800D03*
X243276600Y-116525800D03*
X242276600Y-116525800D03*
D21*
X248576600Y-114000800D03*
X240976600Y-114000800D03*
D22*
X252970000Y-61510000D03*
X252970000Y-58410000D03*
D15*
X239000000Y-87480000D03*
X235900000Y-87480000D03*
D16*
X295490000Y-80180000D03*
X295490000Y-83305000D03*
D14*
X276387500Y-133480000D03*
X279512500Y-133480000D03*
D10*
X283340000Y-77520000D03*
X283340000Y-68960000D03*
D22*
X289700000Y-83330000D03*
X289700000Y-80230000D03*
D15*
X253420000Y-55730000D03*
X250320000Y-55730000D03*
D23*
X295327500Y-133609000D03*
X295327500Y-132509000D03*
X295327500Y-131409000D03*
X295327500Y-130309000D03*
X295327500Y-129209000D03*
X295327500Y-128109000D03*
X295327500Y-127009000D03*
X295327500Y-125909000D03*
X287657500Y-125909000D03*
X287657500Y-127009000D03*
X287657500Y-128109000D03*
X287657500Y-129209000D03*
X287657500Y-130309000D03*
X287657500Y-131409000D03*
X287657500Y-132509000D03*
X287657500Y-133609000D03*
D24*
X293242500Y-130610000D03*
X293242500Y-129410000D03*
X293242500Y-128210000D03*
X293242500Y-127010000D03*
X293242500Y-125810000D03*
X292042500Y-130610000D03*
X292042500Y-129410000D03*
X292042500Y-128210000D03*
X292042500Y-127010000D03*
X292042500Y-125810000D03*
X290842500Y-130610000D03*
X290842500Y-129410000D03*
X290842500Y-128210000D03*
X290842500Y-127010000D03*
X290842500Y-125810000D03*
X289642500Y-130610000D03*
X289642500Y-129410000D03*
X289642500Y-128210000D03*
X289642500Y-127010000D03*
X289642500Y-125810000D03*
D15*
X279950000Y-61290000D03*
X276850000Y-61290000D03*
D12*
X257730000Y-122410000D03*
X254605000Y-122410000D03*
D19*
X243417500Y-87760000D03*
X241367500Y-87760000D03*
D25*
X216590000Y-72930000D03*
X215640000Y-72930000D03*
X214690000Y-72930000D03*
X214690000Y-75205000D03*
X216590000Y-75205000D03*
D15*
X237570000Y-60690000D03*
X234470000Y-60690000D03*
D12*
X216710000Y-68210000D03*
X213585000Y-68210000D03*
D16*
X222990000Y-129467500D03*
X222990000Y-132592500D03*
D18*
X284982500Y-126079000D03*
X284982500Y-129179000D03*
X240090000Y-57850000D03*
X240090000Y-60950000D03*
D22*
X286700000Y-83350000D03*
X286700000Y-80250000D03*
D19*
X243410000Y-89920000D03*
X241360000Y-89920000D03*
D15*
X239000000Y-92470000D03*
X235900000Y-92470000D03*
D20*
X266840000Y-116415000D03*
X265840000Y-116415000D03*
X264840000Y-116415000D03*
X263840000Y-116415000D03*
X262840000Y-116415000D03*
X261840000Y-116415000D03*
D21*
X268140000Y-113890000D03*
X260540000Y-113890000D03*
D15*
X237520000Y-57960000D03*
X234420000Y-57960000D03*
D26*
X231797500Y-61110000D03*
X231797500Y-59210000D03*
X229922500Y-60160000D03*
D10*
X291700000Y-77500000D03*
X291700000Y-68940000D03*
D22*
X255945000Y-58630000D03*
X255945000Y-55530000D03*
D16*
X258680000Y-55407500D03*
X258680000Y-58532500D03*
D14*
X219135000Y-77810000D03*
X222260000Y-77810000D03*
D22*
X283670000Y-83340000D03*
X283670000Y-80240000D03*
D27*
X272790000Y-58580000D03*
X272790000Y-60480000D03*
X274665000Y-59530000D03*
D22*
X292730000Y-83330000D03*
X292730000Y-80230000D03*
D14*
X276837500Y-58260000D03*
X279962500Y-58260000D03*
D28*
X219180000Y-69715000D03*
X222155000Y-69715000D03*
D29*
X226770000Y-132585000D03*
X226770000Y-129460000D03*
D30*
X222410000Y-62770000D03*
X225510000Y-62770000D03*
D31*
X237935000Y-125195000D03*
X237935000Y-130745000D03*
X242785000Y-125195000D03*
X242785000Y-130745000D03*
D32*
X231210000Y-125430000D03*
X231210000Y-127970000D03*
D33*
X237239000Y-123398000D03*
X237239000Y-125430000D03*
X237239000Y-127462000D03*
X237239000Y-129494000D03*
X237239000Y-131526000D03*
X239271000Y-123398000D03*
X239271000Y-125430000D03*
X239271000Y-127462000D03*
X239271000Y-129494000D03*
X239271000Y-131526000D03*
X241303000Y-123398000D03*
X241303000Y-125430000D03*
X241303000Y-127462000D03*
X241303000Y-129494000D03*
X241303000Y-131526000D03*
X243335000Y-123398000D03*
X243335000Y-125430000D03*
X243335000Y-127462000D03*
X243335000Y-129494000D03*
X243335000Y-131526000D03*
D32*
X231210000Y-130510000D03*
D10*
X287500000Y-77500000D03*
X287500000Y-68940000D03*
D14*
X219135000Y-75060000D03*
X222260000Y-75060000D03*
D29*
X261440000Y-61105000D03*
X261440000Y-57980000D03*
D14*
X219135000Y-72370000D03*
X222260000Y-72370000D03*
D16*
X248615000Y-129805000D03*
X248615000Y-132930000D03*
D15*
X247590000Y-58980000D03*
X244490000Y-58980000D03*
D18*
X267210000Y-57920000D03*
X267210000Y-61020000D03*
D13*
X245490000Y-56250000D03*
X247390000Y-56250000D03*
X246440000Y-54375000D03*
D30*
X276885000Y-55170000D03*
X279985000Y-55170000D03*
M02*
