%TF.GenerationSoftware,KiCad,Pcbnew,9.0.2*%
%TF.CreationDate,2026-09-04T17:54:41-07:00*%
%TF.ProjectId,bloo,626c6f6f-2e6b-4696-9361-645f70636258,rev?*%
%TF.SameCoordinates,Original*%
%TF.FileFunction,Paste,Top*%
%TF.FilePolarity,Positive*%
%FSLAX46Y46*%
G04 Gerber Fmt 4.6, Leading zero omitted, Abs format (unit mm)*
G04 Created by KiCad (PCBNEW 9.0.2) date 2026-09-04 17:54:41*
%MOMM*%
%LPD*%
G01*
G04 APERTURE LIST*
G04 Aperture macros list*
%AMRoundRect*
0 Rectangle with rounded corners*
0 $1 Rounding radius*
0 $2 $3 $4 $5 $6 $7 $8 $9 X,Y pos of 4 corners*
0 Add a 4 corners polygon primitive as box body*
4,1,4,$2,$3,$4,$5,$6,$7,$8,$9,$2,$3,0*
0 Add four circle primitives for the rounded corners*
1,1,$1+$1,$2,$3*
1,1,$1+$1,$4,$5*
1,1,$1+$1,$6,$7*
1,1,$1+$1,$8,$9*
0 Add four rect primitives between the rounded corners*
20,1,$1+$1,$2,$3,$4,$5,0*
20,1,$1+$1,$4,$5,$6,$7,0*
20,1,$1+$1,$6,$7,$8,$9,0*
20,1,$1+$1,$8,$9,$2,$3,0*%
G04 Aperture macros list end*
%ADD10R,0.660400X1.041400*%
%ADD11RoundRect,0.250000X0.325000X0.650000X-0.325000X0.650000X-0.325000X-0.650000X0.325000X-0.650000X0*%
%ADD12RoundRect,0.250000X0.412500X0.650000X-0.412500X0.650000X-0.412500X-0.650000X0.412500X-0.650000X0*%
%ADD13RoundRect,0.150000X0.150000X-0.587500X0.150000X0.587500X-0.150000X0.587500X-0.150000X-0.587500X0*%
%ADD14RoundRect,0.250000X-0.412500X-0.650000X0.412500X-0.650000X0.412500X0.650000X-0.412500X0.650000X0*%
%ADD15RoundRect,0.250000X0.400000X0.625000X-0.400000X0.625000X-0.400000X-0.625000X0.400000X-0.625000X0*%
%ADD16RoundRect,0.250000X-0.650000X0.412500X-0.650000X-0.412500X0.650000X-0.412500X0.650000X0.412500X0*%
%ADD17RoundRect,0.225000X0.225000X0.250000X-0.225000X0.250000X-0.225000X-0.250000X0.225000X-0.250000X0*%
%ADD18RoundRect,0.250000X-0.625000X0.400000X-0.625000X-0.400000X0.625000X-0.400000X0.625000X0.400000X0*%
%ADD19RoundRect,0.250000X0.325000X0.450000X-0.325000X0.450000X-0.325000X-0.450000X0.325000X-0.450000X0*%
%ADD20RoundRect,0.250000X0.625000X-0.400000X0.625000X0.400000X-0.625000X0.400000X-0.625000X-0.400000X0*%
%ADD21RoundRect,0.250000X0.650000X-0.412500X0.650000X0.412500X-0.650000X0.412500X-0.650000X-0.412500X0*%
%ADD22R,0.965200X1.397000*%
%ADD23RoundRect,0.237500X-0.300000X-0.237500X0.300000X-0.237500X0.300000X0.237500X-0.300000X0.237500X0*%
%ADD24RoundRect,0.083750X0.486250X0.251250X-0.486250X0.251250X-0.486250X-0.251250X0.486250X-0.251250X0*%
%ADD25C,0.500000*%
%ADD26RoundRect,0.150000X-0.150000X0.512500X-0.150000X-0.512500X0.150000X-0.512500X0.150000X0.512500X0*%
%ADD27RoundRect,0.150000X0.200000X-0.150000X0.200000X0.150000X-0.200000X0.150000X-0.200000X-0.150000X0*%
%ADD28RoundRect,0.150000X0.587500X0.150000X-0.587500X0.150000X-0.587500X-0.150000X0.587500X-0.150000X0*%
%ADD29RoundRect,0.150000X-0.587500X-0.150000X0.587500X-0.150000X0.587500X0.150000X-0.587500X0.150000X0*%
%ADD30RoundRect,0.250001X-0.462499X-0.624999X0.462499X-0.624999X0.462499X0.624999X-0.462499X0.624999X0*%
%ADD31RoundRect,0.250000X-0.400000X-0.625000X0.400000X-0.625000X0.400000X0.625000X-0.400000X0.625000X0*%
%ADD32R,4.550000X5.250000*%
%ADD33R,4.600000X1.100000*%
%ADD34C,1.524000*%
G04 APERTURE END LIST*
D10*
%TO.C,SW2*%
X290022601Y-73495000D03*
X290022601Y-77645000D03*
X292172599Y-73495000D03*
X292172599Y-77645000D03*
%TD*%
%TO.C,SW_RST1*%
X294567401Y-73495000D03*
X294567401Y-77645000D03*
X296717399Y-73495000D03*
X296717399Y-77645000D03*
%TD*%
D11*
%TO.C,C6*%
X285337500Y-131479000D03*
X282387500Y-131479000D03*
%TD*%
D12*
%TO.C,C15*%
X258705000Y-61040000D03*
X255580000Y-61040000D03*
%TD*%
D13*
%TO.C,Q11*%
X234845000Y-55110000D03*
X236745000Y-55110000D03*
X235795000Y-53235000D03*
%TD*%
D14*
%TO.C,C25*%
X213405000Y-77680000D03*
X216530000Y-77680000D03*
%TD*%
D15*
%TO.C,R21*%
X239010000Y-89960000D03*
X235910000Y-89960000D03*
%TD*%
D16*
%TO.C,C13*%
X251555000Y-129805000D03*
X251555000Y-132930000D03*
%TD*%
D17*
%TO.C,C5*%
X285472500Y-133599000D03*
X283922500Y-133599000D03*
%TD*%
D18*
%TO.C,R22*%
X250380000Y-58420000D03*
X250380000Y-61520000D03*
%TD*%
%TO.C,R13*%
X270265000Y-57830000D03*
X270265000Y-60930000D03*
%TD*%
D19*
%TO.C,D5*%
X243410000Y-92160000D03*
X241360000Y-92160000D03*
%TD*%
D18*
%TO.C,R4*%
X264280000Y-57970000D03*
X264280000Y-61070000D03*
%TD*%
D20*
%TO.C,R23*%
X252970000Y-61510000D03*
X252970000Y-58410000D03*
%TD*%
D15*
%TO.C,R19*%
X239000000Y-87480000D03*
X235900000Y-87480000D03*
%TD*%
D21*
%TO.C,C19*%
X296600000Y-83182500D03*
X296600000Y-80057500D03*
%TD*%
D22*
%TO.C,Y1*%
X276463001Y-119550000D03*
X273416999Y-119550000D03*
%TD*%
D23*
%TO.C,C7*%
X270427500Y-117330000D03*
X272152500Y-117330000D03*
%TD*%
D14*
%TO.C,C4*%
X276387500Y-133480000D03*
X279512500Y-133480000D03*
%TD*%
D23*
%TO.C,C8*%
X274177500Y-117280000D03*
X275902500Y-117280000D03*
%TD*%
D20*
%TO.C,R9*%
X287920000Y-83230000D03*
X287920000Y-80130000D03*
%TD*%
D15*
%TO.C,R6*%
X253420000Y-55730000D03*
X250320000Y-55730000D03*
%TD*%
D24*
%TO.C,U5*%
X295327500Y-133609000D03*
X295327500Y-132509000D03*
X295327500Y-131409000D03*
X295327500Y-130309000D03*
X295327500Y-129209000D03*
X295327500Y-128109000D03*
X295327500Y-127009000D03*
X295327500Y-125909000D03*
X287657500Y-125909000D03*
X287657500Y-127009000D03*
X287657500Y-128109000D03*
X287657500Y-129209000D03*
X287657500Y-130309000D03*
X287657500Y-131409000D03*
X287657500Y-132509000D03*
X287657500Y-133609000D03*
D25*
X293242500Y-130610000D03*
X293242500Y-129410000D03*
X293242500Y-128210000D03*
X293242500Y-127010000D03*
X293242500Y-125810000D03*
X292042500Y-130610000D03*
X292042500Y-129410000D03*
X292042500Y-128210000D03*
X292042500Y-127010000D03*
X292042500Y-125810000D03*
X290842500Y-130610000D03*
X290842500Y-129410000D03*
X290842500Y-128210000D03*
X290842500Y-127010000D03*
X290842500Y-125810000D03*
X289642500Y-130610000D03*
X289642500Y-129410000D03*
X289642500Y-128210000D03*
X289642500Y-127010000D03*
X289642500Y-125810000D03*
%TD*%
D15*
%TO.C,R5*%
X279950000Y-61290000D03*
X276850000Y-61290000D03*
%TD*%
D12*
%TO.C,C3*%
X257730000Y-122410000D03*
X254605000Y-122410000D03*
%TD*%
D19*
%TO.C,D4*%
X243417500Y-87760000D03*
X241367500Y-87760000D03*
%TD*%
D12*
%TO.C,C22*%
X292212500Y-70290000D03*
X289087500Y-70290000D03*
%TD*%
D26*
%TO.C,U4*%
X216590000Y-72930000D03*
X215640000Y-72930000D03*
X214690000Y-72930000D03*
X214690000Y-75205000D03*
X216590000Y-75205000D03*
%TD*%
D27*
%TO.C,D9*%
X294280000Y-69470000D03*
X294280000Y-70870000D03*
%TD*%
D15*
%TO.C,R16*%
X237570000Y-60690000D03*
X234470000Y-60690000D03*
%TD*%
D12*
%TO.C,C17*%
X216710000Y-68210000D03*
X213585000Y-68210000D03*
%TD*%
D16*
%TO.C,C9*%
X224100000Y-129457500D03*
X224100000Y-132582500D03*
%TD*%
D18*
%TO.C,R10*%
X283530000Y-126290000D03*
X283530000Y-129390000D03*
%TD*%
%TO.C,R7*%
X240090000Y-57850000D03*
X240090000Y-60950000D03*
%TD*%
D20*
%TO.C,R24*%
X285080000Y-83260000D03*
X285080000Y-80160000D03*
%TD*%
D19*
%TO.C,D6*%
X243410000Y-89920000D03*
X241360000Y-89920000D03*
%TD*%
D15*
%TO.C,R20*%
X239000000Y-92470000D03*
X235900000Y-92470000D03*
%TD*%
%TO.C,R15*%
X237520000Y-57960000D03*
X234420000Y-57960000D03*
%TD*%
D28*
%TO.C,Q12*%
X231797500Y-61110000D03*
X231797500Y-59210000D03*
X229922500Y-60160000D03*
%TD*%
D20*
%TO.C,R2*%
X255945000Y-58630000D03*
X255945000Y-55530000D03*
%TD*%
D16*
%TO.C,C21*%
X258680000Y-55407500D03*
X258680000Y-58532500D03*
%TD*%
D14*
%TO.C,C18*%
X219135000Y-77810000D03*
X222260000Y-77810000D03*
%TD*%
D18*
%TO.C,R17*%
X291000000Y-80130000D03*
X291000000Y-83230000D03*
%TD*%
D29*
%TO.C,Q9*%
X272790000Y-58580000D03*
X272790000Y-60480000D03*
X274665000Y-59530000D03*
%TD*%
D20*
%TO.C,R12*%
X293780000Y-83220000D03*
X293780000Y-80120000D03*
%TD*%
D14*
%TO.C,C14*%
X276837500Y-58260000D03*
X279962500Y-58260000D03*
%TD*%
D30*
%TO.C,L1*%
X219180000Y-69715000D03*
X222155000Y-69715000D03*
%TD*%
D27*
%TO.C,D7*%
X296310000Y-69480000D03*
X296310000Y-70880000D03*
%TD*%
D21*
%TO.C,C1*%
X226770000Y-132585000D03*
X226770000Y-129460000D03*
%TD*%
D31*
%TO.C,R8*%
X222410000Y-62770000D03*
X225510000Y-62770000D03*
%TD*%
D32*
%TO.C,U3*%
X239026000Y-125297000D03*
X239026000Y-130847000D03*
X243876000Y-125297000D03*
X243876000Y-130847000D03*
D33*
X232301000Y-125532000D03*
X232301000Y-128072000D03*
D34*
X238330000Y-123500000D03*
X238330000Y-125532000D03*
X238330000Y-127564000D03*
X238330000Y-129596000D03*
X238330000Y-131628000D03*
X240362000Y-123500000D03*
X240362000Y-125532000D03*
X240362000Y-127564000D03*
X240362000Y-129596000D03*
X240362000Y-131628000D03*
X242394000Y-123500000D03*
X242394000Y-125532000D03*
X242394000Y-127564000D03*
X242394000Y-129596000D03*
X242394000Y-131628000D03*
X244426000Y-123500000D03*
X244426000Y-125532000D03*
X244426000Y-127564000D03*
X244426000Y-129596000D03*
X244426000Y-131628000D03*
D33*
X232301000Y-130612000D03*
%TD*%
D10*
%TO.C,SW1*%
X287630000Y-77660000D03*
X287630000Y-73510000D03*
X285480002Y-77660000D03*
X285480002Y-73510000D03*
%TD*%
D14*
%TO.C,C11*%
X219135000Y-75060000D03*
X222260000Y-75060000D03*
%TD*%
D21*
%TO.C,C20*%
X261440000Y-61105000D03*
X261440000Y-57980000D03*
%TD*%
D14*
%TO.C,C12*%
X219135000Y-72370000D03*
X222260000Y-72370000D03*
%TD*%
D16*
%TO.C,C10*%
X248615000Y-129805000D03*
X248615000Y-132930000D03*
%TD*%
D15*
%TO.C,R14*%
X247590000Y-58980000D03*
X244490000Y-58980000D03*
%TD*%
D18*
%TO.C,R3*%
X267210000Y-57920000D03*
X267210000Y-61020000D03*
%TD*%
D13*
%TO.C,Q10*%
X245490000Y-56250000D03*
X247390000Y-56250000D03*
X246440000Y-54375000D03*
%TD*%
D31*
%TO.C,R1*%
X276885000Y-55170000D03*
X279985000Y-55170000D03*
%TD*%
M02*
