%TF.GenerationSoftware,KiCad,Pcbnew,9.0.2*%
%TF.CreationDate,2026-09-04T23:27:42-07:00*%
%TF.ProjectId,bloo,626c6f6f-2e6b-4696-9361-645f70636258,rev?*%
%TF.SameCoordinates,Original*%
%TF.FileFunction,Legend,Top*%
%TF.FilePolarity,Positive*%
%FSLAX46Y46*%
G04 Gerber Fmt 4.6, Leading zero omitted, Abs format (unit mm)*
G04 Created by KiCad (PCBNEW 9.0.2) date 2026-09-04 23:27:42*
%MOMM*%
%LPD*%
G01*
G04 APERTURE LIST*
G04 Aperture macros list*
%AMRoundRect*
0 Rectangle with rounded corners*
0 $1 Rounding radius*
0 $2 $3 $4 $5 $6 $7 $8 $9 X,Y pos of 4 corners*
0 Add a 4 corners polygon primitive as box body*
4,1,4,$2,$3,$4,$5,$6,$7,$8,$9,$2,$3,0*
0 Add four circle primitives for the rounded corners*
1,1,$1+$1,$2,$3*
1,1,$1+$1,$4,$5*
1,1,$1+$1,$6,$7*
1,1,$1+$1,$8,$9*
0 Add four rect primitives between the rounded corners*
20,1,$1+$1,$2,$3,$4,$5,0*
20,1,$1+$1,$4,$5,$6,$7,0*
20,1,$1+$1,$6,$7,$8,$9,0*
20,1,$1+$1,$8,$9,$2,$3,0*%
%AMRotRect*
0 Rectangle, with rotation*
0 The origin of the aperture is its center*
0 $1 length*
0 $2 width*
0 $3 Rotation angle, in degrees counterclockwise*
0 Add horizontal line*
21,1,$1,$2,0,0,$3*%
G04 Aperture macros list end*
%ADD10C,0.150000*%
%ADD11C,0.120000*%
%ADD12C,0.152400*%
%ADD13C,0.127000*%
%ADD14C,0.200000*%
%ADD15RoundRect,0.250000X0.325000X0.650000X-0.325000X0.650000X-0.325000X-0.650000X0.325000X-0.650000X0*%
%ADD16C,2.000000*%
%ADD17R,1.800000X1.800000*%
%ADD18C,1.800000*%
%ADD19RoundRect,0.250000X0.412500X0.650000X-0.412500X0.650000X-0.412500X-0.650000X0.412500X-0.650000X0*%
%ADD20RoundRect,0.150000X0.150000X-0.587500X0.150000X0.587500X-0.150000X0.587500X-0.150000X-0.587500X0*%
%ADD21RoundRect,0.250000X-0.412500X-0.650000X0.412500X-0.650000X0.412500X0.650000X-0.412500X0.650000X0*%
%ADD22C,2.200000*%
%ADD23R,1.700000X1.700000*%
%ADD24C,1.700000*%
%ADD25R,0.660400X1.041400*%
%ADD26RoundRect,0.250000X0.400000X0.625000X-0.400000X0.625000X-0.400000X-0.625000X0.400000X-0.625000X0*%
%ADD27RoundRect,0.250000X-0.650000X0.412500X-0.650000X-0.412500X0.650000X-0.412500X0.650000X0.412500X0*%
%ADD28RoundRect,0.225000X0.225000X0.250000X-0.225000X0.250000X-0.225000X-0.250000X0.225000X-0.250000X0*%
%ADD29R,1.041400X0.660400*%
%ADD30RoundRect,0.250000X-0.625000X0.400000X-0.625000X-0.400000X0.625000X-0.400000X0.625000X0.400000X0*%
%ADD31RoundRect,0.250000X0.325000X0.450000X-0.325000X0.450000X-0.325000X-0.450000X0.325000X-0.450000X0*%
%ADD32RoundRect,0.250000X0.625000X-0.400000X0.625000X0.400000X-0.625000X0.400000X-0.625000X-0.400000X0*%
%ADD33RoundRect,0.250000X0.650000X-0.412500X0.650000X0.412500X-0.650000X0.412500X-0.650000X-0.412500X0*%
%ADD34RotRect,1.800000X1.800000X120.000000*%
%ADD35R,1.000000X1.500000*%
%ADD36R,0.965200X1.397000*%
%ADD37RoundRect,0.237500X-0.300000X-0.237500X0.300000X-0.237500X0.300000X0.237500X-0.300000X0.237500X0*%
%ADD38C,2.184400*%
%ADD39RoundRect,0.109250X0.562750X0.327750X-0.562750X0.327750X-0.562750X-0.327750X0.562750X-0.327750X0*%
%ADD40C,0.704000*%
%ADD41RoundRect,0.150000X-0.150000X0.512500X-0.150000X-0.512500X0.150000X-0.512500X0.150000X0.512500X0*%
%ADD42RoundRect,0.150000X0.200000X-0.150000X0.200000X0.150000X-0.200000X0.150000X-0.200000X-0.150000X0*%
%ADD43RotRect,1.800000X1.800000X240.000000*%
%ADD44RoundRect,0.250000X0.600000X0.725000X-0.600000X0.725000X-0.600000X-0.725000X0.600000X-0.725000X0*%
%ADD45O,1.700000X1.950000*%
%ADD46C,3.000000*%
%ADD47RoundRect,0.250000X0.550000X0.550000X-0.550000X0.550000X-0.550000X-0.550000X0.550000X-0.550000X0*%
%ADD48C,1.600000*%
%ADD49RoundRect,0.150000X0.587500X0.150000X-0.587500X0.150000X-0.587500X-0.150000X0.587500X-0.150000X0*%
%ADD50RoundRect,0.250000X-0.550000X0.550000X-0.550000X-0.550000X0.550000X-0.550000X0.550000X0.550000X0*%
%ADD51RoundRect,0.150000X-0.587500X-0.150000X0.587500X-0.150000X0.587500X0.150000X-0.587500X0.150000X0*%
%ADD52RoundRect,0.250001X-0.462499X-0.624999X0.462499X-0.624999X0.462499X0.624999X-0.462499X0.624999X0*%
%ADD53RoundRect,0.250000X-0.400000X-0.625000X0.400000X-0.625000X0.400000X0.625000X-0.400000X0.625000X0*%
%ADD54R,4.600000X1.100000*%
%ADD55C,1.524000*%
%ADD56R,9.400000X10.800000*%
%ADD57RoundRect,0.250000X0.550000X-0.550000X0.550000X0.550000X-0.550000X0.550000X-0.550000X-0.550000X0*%
%ADD58RoundRect,0.750000X0.750000X-0.750000X0.750000X0.750000X-0.750000X0.750000X-0.750000X-0.750000X0*%
G04 APERTURE END LIST*
D10*
X255440588Y-123807438D02*
X255345350Y-123759819D01*
X255345350Y-123759819D02*
X255202493Y-123759819D01*
X255202493Y-123759819D02*
X255059636Y-123807438D01*
X255059636Y-123807438D02*
X254964398Y-123902676D01*
X254964398Y-123902676D02*
X254916779Y-123997914D01*
X254916779Y-123997914D02*
X254869160Y-124188390D01*
X254869160Y-124188390D02*
X254869160Y-124331247D01*
X254869160Y-124331247D02*
X254916779Y-124521723D01*
X254916779Y-124521723D02*
X254964398Y-124616961D01*
X254964398Y-124616961D02*
X255059636Y-124712200D01*
X255059636Y-124712200D02*
X255202493Y-124759819D01*
X255202493Y-124759819D02*
X255297731Y-124759819D01*
X255297731Y-124759819D02*
X255440588Y-124712200D01*
X255440588Y-124712200D02*
X255488207Y-124664580D01*
X255488207Y-124664580D02*
X255488207Y-124331247D01*
X255488207Y-124331247D02*
X255297731Y-124331247D01*
X255916779Y-124759819D02*
X255916779Y-123759819D01*
X255916779Y-123759819D02*
X256488207Y-124759819D01*
X256488207Y-124759819D02*
X256488207Y-123759819D01*
X256964398Y-124759819D02*
X256964398Y-123759819D01*
X256964398Y-123759819D02*
X257202493Y-123759819D01*
X257202493Y-123759819D02*
X257345350Y-123807438D01*
X257345350Y-123807438D02*
X257440588Y-123902676D01*
X257440588Y-123902676D02*
X257488207Y-123997914D01*
X257488207Y-123997914D02*
X257535826Y-124188390D01*
X257535826Y-124188390D02*
X257535826Y-124331247D01*
X257535826Y-124331247D02*
X257488207Y-124521723D01*
X257488207Y-124521723D02*
X257440588Y-124616961D01*
X257440588Y-124616961D02*
X257345350Y-124712200D01*
X257345350Y-124712200D02*
X257202493Y-124759819D01*
X257202493Y-124759819D02*
X256964398Y-124759819D01*
X283930588Y-67297438D02*
X283835350Y-67249819D01*
X283835350Y-67249819D02*
X283692493Y-67249819D01*
X283692493Y-67249819D02*
X283549636Y-67297438D01*
X283549636Y-67297438D02*
X283454398Y-67392676D01*
X283454398Y-67392676D02*
X283406779Y-67487914D01*
X283406779Y-67487914D02*
X283359160Y-67678390D01*
X283359160Y-67678390D02*
X283359160Y-67821247D01*
X283359160Y-67821247D02*
X283406779Y-68011723D01*
X283406779Y-68011723D02*
X283454398Y-68106961D01*
X283454398Y-68106961D02*
X283549636Y-68202200D01*
X283549636Y-68202200D02*
X283692493Y-68249819D01*
X283692493Y-68249819D02*
X283787731Y-68249819D01*
X283787731Y-68249819D02*
X283930588Y-68202200D01*
X283930588Y-68202200D02*
X283978207Y-68154580D01*
X283978207Y-68154580D02*
X283978207Y-67821247D01*
X283978207Y-67821247D02*
X283787731Y-67821247D01*
X284406779Y-68249819D02*
X284406779Y-67249819D01*
X284406779Y-67249819D02*
X284978207Y-68249819D01*
X284978207Y-68249819D02*
X284978207Y-67249819D01*
X285454398Y-68249819D02*
X285454398Y-67249819D01*
X285454398Y-67249819D02*
X285692493Y-67249819D01*
X285692493Y-67249819D02*
X285835350Y-67297438D01*
X285835350Y-67297438D02*
X285930588Y-67392676D01*
X285930588Y-67392676D02*
X285978207Y-67487914D01*
X285978207Y-67487914D02*
X286025826Y-67678390D01*
X286025826Y-67678390D02*
X286025826Y-67821247D01*
X286025826Y-67821247D02*
X285978207Y-68011723D01*
X285978207Y-68011723D02*
X285930588Y-68106961D01*
X285930588Y-68106961D02*
X285835350Y-68202200D01*
X285835350Y-68202200D02*
X285692493Y-68249819D01*
X285692493Y-68249819D02*
X285454398Y-68249819D01*
X228433922Y-114479819D02*
X228767255Y-115479819D01*
X228767255Y-115479819D02*
X229100588Y-114479819D01*
X229433922Y-115479819D02*
X229433922Y-114479819D01*
X229910112Y-115479819D02*
X229910112Y-114479819D01*
X229910112Y-114479819D02*
X230481540Y-115479819D01*
X230481540Y-115479819D02*
X230481540Y-114479819D01*
X256152969Y-129649819D02*
X255676779Y-129649819D01*
X255676779Y-129649819D02*
X255629160Y-130126009D01*
X255629160Y-130126009D02*
X255676779Y-130078390D01*
X255676779Y-130078390D02*
X255772017Y-130030771D01*
X255772017Y-130030771D02*
X256010112Y-130030771D01*
X256010112Y-130030771D02*
X256105350Y-130078390D01*
X256105350Y-130078390D02*
X256152969Y-130126009D01*
X256152969Y-130126009D02*
X256200588Y-130221247D01*
X256200588Y-130221247D02*
X256200588Y-130459342D01*
X256200588Y-130459342D02*
X256152969Y-130554580D01*
X256152969Y-130554580D02*
X256105350Y-130602200D01*
X256105350Y-130602200D02*
X256010112Y-130649819D01*
X256010112Y-130649819D02*
X255772017Y-130649819D01*
X255772017Y-130649819D02*
X255676779Y-130602200D01*
X255676779Y-130602200D02*
X255629160Y-130554580D01*
X256486303Y-129649819D02*
X256819636Y-130649819D01*
X256819636Y-130649819D02*
X257152969Y-129649819D01*
X225172493Y-114689819D02*
X225172493Y-115404104D01*
X225172493Y-115404104D02*
X225124874Y-115546961D01*
X225124874Y-115546961D02*
X225029636Y-115642200D01*
X225029636Y-115642200D02*
X224886779Y-115689819D01*
X224886779Y-115689819D02*
X224791541Y-115689819D01*
X225648684Y-115689819D02*
X225648684Y-114689819D01*
X225648684Y-114689819D02*
X225982017Y-115404104D01*
X225982017Y-115404104D02*
X226315350Y-114689819D01*
X226315350Y-114689819D02*
X226315350Y-115689819D01*
X226791541Y-115689819D02*
X226791541Y-114689819D01*
X226791541Y-114689819D02*
X227172493Y-114689819D01*
X227172493Y-114689819D02*
X227267731Y-114737438D01*
X227267731Y-114737438D02*
X227315350Y-114785057D01*
X227315350Y-114785057D02*
X227362969Y-114880295D01*
X227362969Y-114880295D02*
X227362969Y-115023152D01*
X227362969Y-115023152D02*
X227315350Y-115118390D01*
X227315350Y-115118390D02*
X227267731Y-115166009D01*
X227267731Y-115166009D02*
X227172493Y-115213628D01*
X227172493Y-115213628D02*
X226791541Y-115213628D01*
X213163220Y-121601133D02*
X212401316Y-121601133D01*
X213680588Y-61437438D02*
X213585350Y-61389819D01*
X213585350Y-61389819D02*
X213442493Y-61389819D01*
X213442493Y-61389819D02*
X213299636Y-61437438D01*
X213299636Y-61437438D02*
X213204398Y-61532676D01*
X213204398Y-61532676D02*
X213156779Y-61627914D01*
X213156779Y-61627914D02*
X213109160Y-61818390D01*
X213109160Y-61818390D02*
X213109160Y-61961247D01*
X213109160Y-61961247D02*
X213156779Y-62151723D01*
X213156779Y-62151723D02*
X213204398Y-62246961D01*
X213204398Y-62246961D02*
X213299636Y-62342200D01*
X213299636Y-62342200D02*
X213442493Y-62389819D01*
X213442493Y-62389819D02*
X213537731Y-62389819D01*
X213537731Y-62389819D02*
X213680588Y-62342200D01*
X213680588Y-62342200D02*
X213728207Y-62294580D01*
X213728207Y-62294580D02*
X213728207Y-61961247D01*
X213728207Y-61961247D02*
X213537731Y-61961247D01*
X214156779Y-62389819D02*
X214156779Y-61389819D01*
X214156779Y-61389819D02*
X214728207Y-62389819D01*
X214728207Y-62389819D02*
X214728207Y-61389819D01*
X215204398Y-62389819D02*
X215204398Y-61389819D01*
X215204398Y-61389819D02*
X215442493Y-61389819D01*
X215442493Y-61389819D02*
X215585350Y-61437438D01*
X215585350Y-61437438D02*
X215680588Y-61532676D01*
X215680588Y-61532676D02*
X215728207Y-61627914D01*
X215728207Y-61627914D02*
X215775826Y-61818390D01*
X215775826Y-61818390D02*
X215775826Y-61961247D01*
X215775826Y-61961247D02*
X215728207Y-62151723D01*
X215728207Y-62151723D02*
X215680588Y-62246961D01*
X215680588Y-62246961D02*
X215585350Y-62342200D01*
X215585350Y-62342200D02*
X215442493Y-62389819D01*
X215442493Y-62389819D02*
X215204398Y-62389819D01*
X210231541Y-81679819D02*
X210850588Y-81679819D01*
X210850588Y-81679819D02*
X210517255Y-82060771D01*
X210517255Y-82060771D02*
X210660112Y-82060771D01*
X210660112Y-82060771D02*
X210755350Y-82108390D01*
X210755350Y-82108390D02*
X210802969Y-82156009D01*
X210802969Y-82156009D02*
X210850588Y-82251247D01*
X210850588Y-82251247D02*
X210850588Y-82489342D01*
X210850588Y-82489342D02*
X210802969Y-82584580D01*
X210802969Y-82584580D02*
X210755350Y-82632200D01*
X210755350Y-82632200D02*
X210660112Y-82679819D01*
X210660112Y-82679819D02*
X210374398Y-82679819D01*
X210374398Y-82679819D02*
X210279160Y-82632200D01*
X210279160Y-82632200D02*
X210231541Y-82584580D01*
X211136303Y-81679819D02*
X211469636Y-82679819D01*
X211469636Y-82679819D02*
X211802969Y-81679819D01*
X212041065Y-81679819D02*
X212660112Y-81679819D01*
X212660112Y-81679819D02*
X212326779Y-82060771D01*
X212326779Y-82060771D02*
X212469636Y-82060771D01*
X212469636Y-82060771D02*
X212564874Y-82108390D01*
X212564874Y-82108390D02*
X212612493Y-82156009D01*
X212612493Y-82156009D02*
X212660112Y-82251247D01*
X212660112Y-82251247D02*
X212660112Y-82489342D01*
X212660112Y-82489342D02*
X212612493Y-82584580D01*
X212612493Y-82584580D02*
X212564874Y-82632200D01*
X212564874Y-82632200D02*
X212469636Y-82679819D01*
X212469636Y-82679819D02*
X212183922Y-82679819D01*
X212183922Y-82679819D02*
X212088684Y-82632200D01*
X212088684Y-82632200D02*
X212041065Y-82584580D01*
X271123333Y-116259580D02*
X271075714Y-116307200D01*
X271075714Y-116307200D02*
X270932857Y-116354819D01*
X270932857Y-116354819D02*
X270837619Y-116354819D01*
X270837619Y-116354819D02*
X270694762Y-116307200D01*
X270694762Y-116307200D02*
X270599524Y-116211961D01*
X270599524Y-116211961D02*
X270551905Y-116116723D01*
X270551905Y-116116723D02*
X270504286Y-115926247D01*
X270504286Y-115926247D02*
X270504286Y-115783390D01*
X270504286Y-115783390D02*
X270551905Y-115592914D01*
X270551905Y-115592914D02*
X270599524Y-115497676D01*
X270599524Y-115497676D02*
X270694762Y-115402438D01*
X270694762Y-115402438D02*
X270837619Y-115354819D01*
X270837619Y-115354819D02*
X270932857Y-115354819D01*
X270932857Y-115354819D02*
X271075714Y-115402438D01*
X271075714Y-115402438D02*
X271123333Y-115450057D01*
X271456667Y-115354819D02*
X272123333Y-115354819D01*
X272123333Y-115354819D02*
X271694762Y-116354819D01*
X212664700Y-134671428D02*
X212664700Y-133528571D01*
X213236128Y-134099999D02*
X212093271Y-134099999D01*
D11*
%TO.C,C6*%
X284573752Y-130569000D02*
X283151248Y-130569000D01*
X284573752Y-132389000D02*
X283151248Y-132389000D01*
%TO.C,D0*%
X288357626Y-59375000D02*
X288757626Y-59375000D01*
X288357626Y-60495000D02*
X288357626Y-59375000D01*
X288747626Y-60505000D02*
X289247626Y-60505000D01*
X288757626Y-59375000D02*
X288757626Y-60495000D01*
X288757626Y-60495000D02*
X288357626Y-60495000D01*
X288757626Y-60495000D02*
X288757626Y-56635000D01*
X289047626Y-60505000D02*
X289047626Y-63175000D01*
X289047626Y-63165000D02*
X289047626Y-63165000D01*
X289047626Y-63175000D02*
X289047626Y-60505000D01*
X291397626Y-60495000D02*
X291877626Y-60495000D01*
X291587626Y-60495000D02*
X291587626Y-60495000D01*
X291587626Y-60495000D02*
X291587626Y-63165000D01*
X291587626Y-63165000D02*
X291587626Y-60495000D01*
X291587626Y-63165000D02*
X291587626Y-63165000D01*
X291877626Y-60495000D02*
X291877626Y-56635000D01*
X288757626Y-56635000D02*
G75*
G02*
X291877626Y-56635000I1560000J0D01*
G01*
%TO.C,C15*%
X257853752Y-60130000D02*
X256431248Y-60130000D01*
X257853752Y-61950000D02*
X256431248Y-61950000D01*
%TO.C,Q11*%
X234235000Y-54172500D02*
X234235000Y-53522500D01*
X234235000Y-54172500D02*
X234235000Y-54822500D01*
X237355000Y-54172500D02*
X237355000Y-53522500D01*
X237355000Y-54172500D02*
X237355000Y-54822500D01*
X234285000Y-55335000D02*
X233955000Y-55575000D01*
X233955000Y-55095000D01*
X234285000Y-55335000D01*
G36*
X234285000Y-55335000D02*
G01*
X233955000Y-55575000D01*
X233955000Y-55095000D01*
X234285000Y-55335000D01*
G37*
%TO.C,C25*%
X214256248Y-76770000D02*
X215678752Y-76770000D01*
X214256248Y-78590000D02*
X215678752Y-78590000D01*
%TO.C,J5*%
X283317500Y-124199000D02*
X283317500Y-122819000D01*
X284697500Y-124199000D02*
X283317500Y-124199000D01*
X285967500Y-121439000D02*
X296237500Y-121439000D01*
X285967500Y-124199000D02*
X285967500Y-121439000D01*
X285967500Y-124199000D02*
X296237500Y-124199000D01*
X296237500Y-124199000D02*
X296237500Y-121439000D01*
D12*
%TO.C,S3*%
X295352800Y-74439553D02*
X295352800Y-77380447D01*
X296667941Y-78335700D02*
X297492059Y-78335700D01*
X297492059Y-73484300D02*
X296667941Y-73484300D01*
X298807200Y-77380447D02*
X298807200Y-74439553D01*
X293295000Y-73835000D02*
G75*
G02*
X293041000Y-73835000I-127000J0D01*
G01*
X293041000Y-73835000D02*
G75*
G02*
X293295000Y-73835000I127000J0D01*
G01*
D11*
%TO.C,R21*%
X238187064Y-89050000D02*
X236732936Y-89050000D01*
X238187064Y-90870000D02*
X236732936Y-90870000D01*
%TO.C,U1*%
X226905000Y-63035000D02*
X280055000Y-63035000D01*
X226905000Y-85785000D02*
X226905000Y-63035000D01*
X228020000Y-83360000D02*
X228020000Y-82030000D01*
X228080000Y-65520000D02*
X278880000Y-65520000D01*
X228080000Y-68060000D02*
X228080000Y-65520000D01*
X229350000Y-83360000D02*
X228020000Y-83360000D01*
X230620000Y-80700000D02*
X278940000Y-80700000D01*
X230620000Y-83360000D02*
X230620000Y-80700000D01*
X272470000Y-69270000D02*
X272470000Y-79550000D01*
X272470000Y-79550000D02*
X275130000Y-79550000D01*
X275130000Y-69270000D02*
X272470000Y-69270000D01*
X275130000Y-79550000D02*
X275130000Y-69270000D01*
X278880000Y-65520000D02*
X278880000Y-68060000D01*
X278880000Y-68060000D02*
X228080000Y-68060000D01*
X278940000Y-80700000D02*
X278940000Y-83360000D01*
X278940000Y-83360000D02*
X230620000Y-83360000D01*
X280055000Y-63035000D02*
X280055000Y-85785000D01*
X280055000Y-85785000D02*
X226905000Y-85785000D01*
%TO.C,C13*%
X250645000Y-130656248D02*
X250645000Y-132078752D01*
X252465000Y-130656248D02*
X252465000Y-132078752D01*
%TO.C,Q3*%
X221790000Y-55080000D02*
X222190000Y-55080000D01*
X221790000Y-56200000D02*
X221790000Y-55080000D01*
X222180000Y-56210000D02*
X222680000Y-56210000D01*
X222190000Y-55080000D02*
X222190000Y-56200000D01*
X222190000Y-56200000D02*
X221790000Y-56200000D01*
X222190000Y-56200000D02*
X222190000Y-52340000D01*
X222480000Y-56210000D02*
X222480000Y-58880000D01*
X222480000Y-58870000D02*
X222480000Y-58870000D01*
X222480000Y-58880000D02*
X222480000Y-56210000D01*
X224830000Y-56200000D02*
X225310000Y-56200000D01*
X225020000Y-56200000D02*
X225020000Y-56200000D01*
X225020000Y-56200000D02*
X225020000Y-58870000D01*
X225020000Y-58870000D02*
X225020000Y-56200000D01*
X225020000Y-58870000D02*
X225020000Y-58870000D01*
X225310000Y-56200000D02*
X225310000Y-52340000D01*
X222190000Y-52340000D02*
G75*
G02*
X225310000Y-52340000I1560000J0D01*
G01*
%TO.C,C5*%
X284838080Y-133089000D02*
X284556920Y-133089000D01*
X284838080Y-134109000D02*
X284556920Y-134109000D01*
D12*
%TO.C,S2*%
X282894300Y-76467941D02*
X282894300Y-77292059D01*
X283849553Y-78607200D02*
X286790447Y-78607200D01*
X286790447Y-75152800D02*
X283849553Y-75152800D01*
X287745700Y-77292059D02*
X287745700Y-76467941D01*
X283372000Y-80792000D02*
G75*
G02*
X283118000Y-80792000I-127000J0D01*
G01*
X283118000Y-80792000D02*
G75*
G02*
X283372000Y-80792000I127000J0D01*
G01*
D11*
%TO.C,R22*%
X249470000Y-59242936D02*
X249470000Y-60697064D01*
X251290000Y-59242936D02*
X251290000Y-60697064D01*
%TO.C,R13*%
X269355000Y-58652936D02*
X269355000Y-60107064D01*
X271175000Y-58652936D02*
X271175000Y-60107064D01*
%TO.C,D5*%
X241385000Y-93120000D02*
X244245000Y-93120000D01*
X244245000Y-91200000D02*
X241385000Y-91200000D01*
X244245000Y-93120000D02*
X244245000Y-91200000D01*
%TO.C,R4*%
X263370000Y-58792936D02*
X263370000Y-60247064D01*
X265190000Y-58792936D02*
X265190000Y-60247064D01*
%TO.C,R23*%
X252060000Y-60687064D02*
X252060000Y-59232936D01*
X253880000Y-60687064D02*
X253880000Y-59232936D01*
%TO.C,R19*%
X238177064Y-86570000D02*
X236722936Y-86570000D01*
X238177064Y-88390000D02*
X236722936Y-88390000D01*
%TO.C,C19*%
X295690000Y-82331252D02*
X295690000Y-80908748D01*
X297510000Y-82331252D02*
X297510000Y-80908748D01*
%TO.C,Q1*%
X266642090Y-49690147D02*
X268954378Y-48355147D01*
X266650750Y-49685148D02*
X266650750Y-49685148D01*
X267920750Y-51884852D02*
X267920750Y-51884852D01*
X267920750Y-51884852D02*
X270233038Y-50549852D01*
X268618038Y-47752590D02*
X269587987Y-47192590D01*
X268804378Y-48095340D02*
X269054378Y-48528353D01*
X268818038Y-48099000D02*
X268618038Y-47752590D01*
X268818038Y-48099000D02*
X272160896Y-46169000D01*
X268954378Y-48355147D02*
X266642090Y-49690147D01*
X269587987Y-47192590D02*
X269787987Y-47539000D01*
X269787987Y-47539000D02*
X268818038Y-48099000D01*
X270138038Y-50385307D02*
X270378038Y-50800999D01*
X270233038Y-50549852D02*
X267920750Y-51884852D01*
X270233038Y-50549852D02*
X270233038Y-50549852D01*
X270378038Y-50800999D02*
X273720896Y-48870999D01*
X272160896Y-46169000D02*
G75*
G02*
X273720896Y-48871000I780000J-1351000D01*
G01*
%TO.C,JP4*%
X224590000Y-116350000D02*
X227390000Y-116350000D01*
X224590000Y-118350000D02*
X224590000Y-116350000D01*
X227390000Y-116350000D02*
X227390000Y-118350000D01*
X227390000Y-118350000D02*
X224590000Y-118350000D01*
D12*
%TO.C,Y1*%
X274207149Y-120375500D02*
X275672851Y-120375500D01*
X275672851Y-118724500D02*
X274207149Y-118724500D01*
D11*
%TO.C,C7*%
X271143733Y-116820000D02*
X271436267Y-116820000D01*
X271143733Y-117840000D02*
X271436267Y-117840000D01*
%TO.C,C4*%
X277238748Y-132570000D02*
X278661252Y-132570000D01*
X277238748Y-134390000D02*
X278661252Y-134390000D01*
%TO.C,TP6*%
X254810000Y-125450000D02*
X256190000Y-125450000D01*
X254810000Y-126830000D02*
X254810000Y-125450000D01*
X254810000Y-128100000D02*
X254810000Y-128210000D01*
X254810000Y-128100000D02*
X257570000Y-128100000D01*
X254810000Y-128210000D02*
X257570000Y-128210000D01*
X257570000Y-128100000D02*
X257570000Y-128210000D01*
%TO.C,C8*%
X274893733Y-116770000D02*
X275186267Y-116770000D01*
X274893733Y-117790000D02*
X275186267Y-117790000D01*
%TO.C,R9*%
X283940000Y-82407064D02*
X283940000Y-80952936D01*
X285760000Y-82407064D02*
X285760000Y-80952936D01*
D10*
%TO.C,M_MH1*%
X222210000Y-87320000D02*
X230710000Y-87320000D01*
X222210000Y-93120000D02*
X233710000Y-93120000D01*
X222210000Y-94620000D02*
X222210000Y-99120000D01*
X222210000Y-100620000D02*
X222210000Y-87320000D01*
X222210000Y-100620000D02*
X222210000Y-113920000D01*
X222210000Y-106620000D02*
X222210000Y-102120000D01*
X222210000Y-108120000D02*
X233710000Y-108120000D01*
X222210000Y-113920000D02*
X230710000Y-113920000D01*
X230710000Y-94620000D02*
X230710000Y-87320000D01*
X230710000Y-106620000D02*
X230710000Y-113920000D01*
X233710000Y-100620000D02*
X233710000Y-93120000D01*
X233710000Y-100620000D02*
X233710000Y-108120000D01*
X253210000Y-94620000D02*
X222210000Y-94620000D01*
X253210000Y-100620000D02*
X253210000Y-94620000D01*
X253210000Y-100620000D02*
X253210000Y-106620000D01*
X253210000Y-106620000D02*
X222210000Y-106620000D01*
D11*
%TO.C,R6*%
X252597064Y-54820000D02*
X251142936Y-54820000D01*
X252597064Y-56640000D02*
X251142936Y-56640000D01*
D13*
%TO.C,U5*%
X294437500Y-125126000D02*
X288547500Y-125126000D01*
X294437500Y-134256000D02*
X288547500Y-134256000D01*
D14*
X296727500Y-133609000D02*
G75*
G02*
X296527500Y-133609000I-100000J0D01*
G01*
X296527500Y-133609000D02*
G75*
G02*
X296727500Y-133609000I100000J0D01*
G01*
D11*
%TO.C,TP2*%
X212820000Y-63240000D02*
X214200000Y-63240000D01*
X212820000Y-64620000D02*
X212820000Y-63240000D01*
X212820000Y-65890000D02*
X212820000Y-66000000D01*
X212820000Y-65890000D02*
X215580000Y-65890000D01*
X212820000Y-66000000D02*
X215580000Y-66000000D01*
X215580000Y-65890000D02*
X215580000Y-66000000D01*
%TO.C,R5*%
X279127064Y-60380000D02*
X277672936Y-60380000D01*
X279127064Y-62200000D02*
X277672936Y-62200000D01*
%TO.C,C3*%
X256878752Y-121500000D02*
X255456248Y-121500000D01*
X256878752Y-123320000D02*
X255456248Y-123320000D01*
%TO.C,D4*%
X241392500Y-88720000D02*
X244252500Y-88720000D01*
X244252500Y-86800000D02*
X241392500Y-86800000D01*
X244252500Y-88720000D02*
X244252500Y-86800000D01*
%TO.C,C22*%
X291361252Y-69380000D02*
X289938748Y-69380000D01*
X291361252Y-71200000D02*
X289938748Y-71200000D01*
%TO.C,U4*%
X214080000Y-74067500D02*
X214080000Y-73267500D01*
X214080000Y-74067500D02*
X214080000Y-74867500D01*
X217200000Y-74067500D02*
X217200000Y-73267500D01*
X217200000Y-74067500D02*
X217200000Y-74867500D01*
X217480000Y-73007500D02*
X217150000Y-72767500D01*
X217480000Y-72527500D01*
X217480000Y-73007500D01*
G36*
X217480000Y-73007500D02*
G01*
X217150000Y-72767500D01*
X217480000Y-72527500D01*
X217480000Y-73007500D01*
G37*
%TO.C,D9*%
X293680000Y-70870000D02*
X293680000Y-68910000D01*
X294880000Y-68910000D02*
X293680000Y-68910000D01*
X294880000Y-70870000D02*
X294880000Y-68910000D01*
%TO.C,D2*%
X241497456Y-46502262D02*
X241697456Y-46155852D01*
X241697456Y-46155852D02*
X242667405Y-46715852D01*
X242467404Y-47062261D02*
X241497456Y-46502262D01*
X242667405Y-46715852D02*
X239324546Y-44785851D01*
X242667405Y-46715852D02*
X242467404Y-47062261D01*
X242671065Y-46729512D02*
X242921065Y-46296499D01*
X242821065Y-46469705D02*
X245133353Y-47804705D01*
X243987405Y-44429545D02*
X244227405Y-44013852D01*
X244082405Y-44265001D02*
X244082405Y-44265001D01*
X244082405Y-44265001D02*
X246394692Y-45600001D01*
X244227405Y-44013852D02*
X240884546Y-42083853D01*
X245124693Y-47799705D02*
X245124693Y-47799705D01*
X245133353Y-47804705D02*
X242821065Y-46469705D01*
X246394692Y-45600001D02*
X244082405Y-44265001D01*
X246394692Y-45600001D02*
X246394692Y-45600001D01*
X239324546Y-44785851D02*
G75*
G02*
X240884546Y-42083852I780001J1350999D01*
G01*
%TO.C,R16*%
X236747064Y-59780000D02*
X235292936Y-59780000D01*
X236747064Y-61600000D02*
X235292936Y-61600000D01*
%TO.C,C17*%
X215858752Y-67300000D02*
X214436248Y-67300000D01*
X215858752Y-69120000D02*
X214436248Y-69120000D01*
%TO.C,M2*%
X237970000Y-109320000D02*
X237970000Y-115290000D01*
X237970000Y-115290000D02*
X255590000Y-115290000D01*
X237980000Y-113030000D02*
X238730000Y-113030000D01*
X237980000Y-114530000D02*
X237980000Y-115280000D01*
X237980000Y-115280000D02*
X239780000Y-115280000D01*
X238730000Y-110080000D02*
X246780000Y-110080000D01*
X238730000Y-113030000D02*
X238730000Y-110080000D01*
X239780000Y-114530000D02*
X237980000Y-114530000D01*
X239780000Y-115280000D02*
X239780000Y-114530000D01*
X241280000Y-114530000D02*
X241280000Y-115280000D01*
X241280000Y-115280000D02*
X252280000Y-115280000D01*
X252280000Y-114530000D02*
X241280000Y-114530000D01*
X252280000Y-115280000D02*
X252280000Y-114530000D01*
X253780000Y-114530000D02*
X253780000Y-115280000D01*
X253780000Y-115280000D02*
X255580000Y-115280000D01*
X254630000Y-115580000D02*
X255880000Y-115580000D01*
X254830000Y-110080000D02*
X246780000Y-110080000D01*
X254830000Y-113030000D02*
X254830000Y-110080000D01*
X255580000Y-113030000D02*
X254830000Y-113030000D01*
X255580000Y-114530000D02*
X253780000Y-114530000D01*
X255580000Y-115280000D02*
X255580000Y-114530000D01*
X255590000Y-109320000D02*
X237970000Y-109320000D01*
X255590000Y-115290000D02*
X255590000Y-109320000D01*
X255880000Y-115580000D02*
X255880000Y-114330000D01*
%TO.C,M1*%
X258550000Y-109320000D02*
X258550000Y-115290000D01*
X258550000Y-115290000D02*
X276170000Y-115290000D01*
X258560000Y-113030000D02*
X259310000Y-113030000D01*
X258560000Y-114530000D02*
X258560000Y-115280000D01*
X258560000Y-115280000D02*
X260360000Y-115280000D01*
X259310000Y-110080000D02*
X267360000Y-110080000D01*
X259310000Y-113030000D02*
X259310000Y-110080000D01*
X260360000Y-114530000D02*
X258560000Y-114530000D01*
X260360000Y-115280000D02*
X260360000Y-114530000D01*
X261860000Y-114530000D02*
X261860000Y-115280000D01*
X261860000Y-115280000D02*
X272860000Y-115280000D01*
X272860000Y-114530000D02*
X261860000Y-114530000D01*
X272860000Y-115280000D02*
X272860000Y-114530000D01*
X274360000Y-114530000D02*
X274360000Y-115280000D01*
X274360000Y-115280000D02*
X276160000Y-115280000D01*
X275210000Y-115580000D02*
X276460000Y-115580000D01*
X275410000Y-110080000D02*
X267360000Y-110080000D01*
X275410000Y-113030000D02*
X275410000Y-110080000D01*
X276160000Y-113030000D02*
X275410000Y-113030000D01*
X276160000Y-114530000D02*
X274360000Y-114530000D01*
X276160000Y-115280000D02*
X276160000Y-114530000D01*
X276170000Y-109320000D02*
X258550000Y-109320000D01*
X276170000Y-115290000D02*
X276170000Y-109320000D01*
X276460000Y-115580000D02*
X276460000Y-114330000D01*
%TO.C,C9*%
X223190000Y-130308748D02*
X223190000Y-131731252D01*
X225010000Y-130308748D02*
X225010000Y-131731252D01*
%TO.C,R10*%
X282620000Y-127112936D02*
X282620000Y-128567064D01*
X284440000Y-127112936D02*
X284440000Y-128567064D01*
%TO.C,R7*%
X239180000Y-58672936D02*
X239180000Y-60127064D01*
X241000000Y-58672936D02*
X241000000Y-60127064D01*
%TO.C,R24*%
X287100000Y-82417064D02*
X287100000Y-80962936D01*
X288920000Y-82417064D02*
X288920000Y-80962936D01*
%TO.C,D6*%
X241385000Y-90880000D02*
X244245000Y-90880000D01*
X244245000Y-88960000D02*
X241385000Y-88960000D01*
X244245000Y-90880000D02*
X244245000Y-88960000D01*
%TO.C,R20*%
X238177064Y-91560000D02*
X236722936Y-91560000D01*
X238177064Y-93380000D02*
X236722936Y-93380000D01*
D12*
%TO.C,S5*%
X289329300Y-76472940D02*
X289329300Y-77297058D01*
X290284553Y-78612199D02*
X293225447Y-78612199D01*
X293225447Y-75157799D02*
X290284553Y-75157799D01*
X294180700Y-77297058D02*
X294180700Y-76472940D01*
X289807000Y-80796999D02*
G75*
G02*
X289553000Y-80796999I-127000J0D01*
G01*
X289553000Y-80796999D02*
G75*
G02*
X289807000Y-80796999I127000J0D01*
G01*
D11*
%TO.C,S1*%
X215748000Y-121112000D02*
X215748000Y-134320000D01*
X215748000Y-134320000D02*
X219050000Y-134320000D01*
X219050000Y-134320000D02*
X222352000Y-134320000D01*
X222352000Y-121112000D02*
X215748000Y-121112000D01*
X222352000Y-127716000D02*
X222352000Y-121112000D01*
X222352000Y-134320000D02*
X222352000Y-127716000D01*
%TO.C,R15*%
X236697064Y-57050000D02*
X235242936Y-57050000D01*
X236697064Y-58870000D02*
X235242936Y-58870000D01*
%TO.C,C2*%
X222710000Y-124992000D02*
X222710000Y-124188000D01*
X222750000Y-125223000D02*
X222750000Y-123957000D01*
X222790000Y-125391000D02*
X222790000Y-123789000D01*
X222830000Y-125529000D02*
X222830000Y-123651000D01*
X222870000Y-125648000D02*
X222870000Y-123532000D01*
X222910000Y-125755000D02*
X222910000Y-123425000D01*
X222950000Y-125851000D02*
X222950000Y-123329000D01*
X222990000Y-125940000D02*
X222990000Y-123240000D01*
X223030000Y-126022000D02*
X223030000Y-123158000D01*
X223070000Y-126099000D02*
X223070000Y-123081000D01*
X223110000Y-126171000D02*
X223110000Y-123009000D01*
X223150000Y-126239000D02*
X223150000Y-122941000D01*
X223190000Y-126304000D02*
X223190000Y-122876000D01*
X223230000Y-126365000D02*
X223230000Y-122815000D01*
X223270000Y-126424000D02*
X223270000Y-122756000D01*
X223310000Y-126480000D02*
X223310000Y-122700000D01*
X223350000Y-126533000D02*
X223350000Y-122647000D01*
X223390000Y-126585000D02*
X223390000Y-122595000D01*
X223430000Y-126634000D02*
X223430000Y-122546000D01*
X223470000Y-126681000D02*
X223470000Y-122499000D01*
X223510000Y-126727000D02*
X223510000Y-122453000D01*
X223550000Y-126771000D02*
X223550000Y-122409000D01*
X223590000Y-126813000D02*
X223590000Y-122367000D01*
X223630000Y-126854000D02*
X223630000Y-122326000D01*
X223670000Y-123550000D02*
X223670000Y-122286000D01*
X223670000Y-126894000D02*
X223670000Y-125630000D01*
X223710000Y-123550000D02*
X223710000Y-122248000D01*
X223710000Y-126932000D02*
X223710000Y-125630000D01*
X223750000Y-123550000D02*
X223750000Y-122211000D01*
X223750000Y-126969000D02*
X223750000Y-125630000D01*
X223790000Y-123550000D02*
X223790000Y-122175000D01*
X223790000Y-127005000D02*
X223790000Y-125630000D01*
X223830000Y-123550000D02*
X223830000Y-122140000D01*
X223830000Y-127040000D02*
X223830000Y-125630000D01*
X223870000Y-123550000D02*
X223870000Y-122107000D01*
X223870000Y-127073000D02*
X223870000Y-125630000D01*
X223910000Y-123550000D02*
X223910000Y-122074000D01*
X223910000Y-127106000D02*
X223910000Y-125630000D01*
X223950000Y-123550000D02*
X223950000Y-122043000D01*
X223950000Y-127137000D02*
X223950000Y-125630000D01*
X223990000Y-123550000D02*
X223990000Y-122013000D01*
X223990000Y-127167000D02*
X223990000Y-125630000D01*
X224030000Y-123550000D02*
X224030000Y-121983000D01*
X224030000Y-127197000D02*
X224030000Y-125630000D01*
X224070000Y-123550000D02*
X224070000Y-121954000D01*
X224070000Y-127226000D02*
X224070000Y-125630000D01*
X224110000Y-123550000D02*
X224110000Y-121927000D01*
X224110000Y-127253000D02*
X224110000Y-125630000D01*
X224150000Y-123550000D02*
X224150000Y-121900000D01*
X224150000Y-127280000D02*
X224150000Y-125630000D01*
X224190000Y-123550000D02*
X224190000Y-121874000D01*
X224190000Y-127306000D02*
X224190000Y-125630000D01*
X224230000Y-123550000D02*
X224230000Y-121849000D01*
X224230000Y-127331000D02*
X224230000Y-125630000D01*
X224270000Y-123550000D02*
X224270000Y-121825000D01*
X224270000Y-127355000D02*
X224270000Y-125630000D01*
X224310000Y-123550000D02*
X224310000Y-121801000D01*
X224310000Y-127379000D02*
X224310000Y-125630000D01*
X224350000Y-123550000D02*
X224350000Y-121778000D01*
X224350000Y-127402000D02*
X224350000Y-125630000D01*
X224390000Y-123550000D02*
X224390000Y-121756000D01*
X224390000Y-127424000D02*
X224390000Y-125630000D01*
X224430000Y-123550000D02*
X224430000Y-121735000D01*
X224430000Y-127445000D02*
X224430000Y-125630000D01*
X224470000Y-123550000D02*
X224470000Y-121714000D01*
X224470000Y-127466000D02*
X224470000Y-125630000D01*
X224510000Y-123550000D02*
X224510000Y-121694000D01*
X224510000Y-127486000D02*
X224510000Y-125630000D01*
X224550000Y-123550000D02*
X224550000Y-121675000D01*
X224550000Y-127505000D02*
X224550000Y-125630000D01*
X224590000Y-123550000D02*
X224590000Y-121656000D01*
X224590000Y-127524000D02*
X224590000Y-125630000D01*
X224630000Y-123550000D02*
X224630000Y-121638000D01*
X224630000Y-127542000D02*
X224630000Y-125630000D01*
X224670000Y-123550000D02*
X224670000Y-121621000D01*
X224670000Y-127559000D02*
X224670000Y-125630000D01*
X224710000Y-123550000D02*
X224710000Y-121604000D01*
X224710000Y-127576000D02*
X224710000Y-125630000D01*
X224750000Y-123550000D02*
X224750000Y-121588000D01*
X224750000Y-127592000D02*
X224750000Y-125630000D01*
X224790000Y-123550000D02*
X224790000Y-121573000D01*
X224790000Y-127607000D02*
X224790000Y-125630000D01*
X224830000Y-123550000D02*
X224830000Y-121558000D01*
X224830000Y-127622000D02*
X224830000Y-125630000D01*
X224870000Y-123550000D02*
X224870000Y-121543000D01*
X224870000Y-127637000D02*
X224870000Y-125630000D01*
X224910000Y-123550000D02*
X224910000Y-121530000D01*
X224910000Y-127650000D02*
X224910000Y-125630000D01*
X224950000Y-123550000D02*
X224950000Y-121517000D01*
X224950000Y-127663000D02*
X224950000Y-125630000D01*
X224990000Y-123550000D02*
X224990000Y-121504000D01*
X224990000Y-127676000D02*
X224990000Y-125630000D01*
X225030000Y-123550000D02*
X225030000Y-121492000D01*
X225030000Y-127688000D02*
X225030000Y-125630000D01*
X225070000Y-123550000D02*
X225070000Y-121481000D01*
X225070000Y-127699000D02*
X225070000Y-125630000D01*
X225110000Y-123550000D02*
X225110000Y-121470000D01*
X225110000Y-127710000D02*
X225110000Y-125630000D01*
X225150000Y-123550000D02*
X225150000Y-121459000D01*
X225150000Y-127721000D02*
X225150000Y-125630000D01*
X225190000Y-123550000D02*
X225190000Y-121450000D01*
X225190000Y-127730000D02*
X225190000Y-125630000D01*
X225230000Y-123550000D02*
X225230000Y-121440000D01*
X225230000Y-127740000D02*
X225230000Y-125630000D01*
X225270000Y-123550000D02*
X225270000Y-121431000D01*
X225270000Y-127749000D02*
X225270000Y-125630000D01*
X225310000Y-123550000D02*
X225310000Y-121423000D01*
X225310000Y-127757000D02*
X225310000Y-125630000D01*
X225350000Y-123550000D02*
X225350000Y-121416000D01*
X225350000Y-127764000D02*
X225350000Y-125630000D01*
X225390000Y-123550000D02*
X225390000Y-121408000D01*
X225390000Y-127772000D02*
X225390000Y-125630000D01*
X225430000Y-123550000D02*
X225430000Y-121402000D01*
X225430000Y-127778000D02*
X225430000Y-125630000D01*
X225470000Y-123550000D02*
X225470000Y-121395000D01*
X225470000Y-127785000D02*
X225470000Y-125630000D01*
X225510000Y-123550000D02*
X225510000Y-121390000D01*
X225510000Y-127790000D02*
X225510000Y-125630000D01*
X225550000Y-123550000D02*
X225550000Y-121385000D01*
X225550000Y-127795000D02*
X225550000Y-125630000D01*
X225590000Y-123550000D02*
X225590000Y-121380000D01*
X225590000Y-127800000D02*
X225590000Y-125630000D01*
X225630000Y-123550000D02*
X225630000Y-121376000D01*
X225630000Y-127804000D02*
X225630000Y-125630000D01*
X225670000Y-123550000D02*
X225670000Y-121372000D01*
X225670000Y-127808000D02*
X225670000Y-125630000D01*
X225710000Y-123550000D02*
X225710000Y-121369000D01*
X225710000Y-127811000D02*
X225710000Y-125630000D01*
X225750000Y-127814000D02*
X225750000Y-121366000D01*
X225790000Y-127816000D02*
X225790000Y-121364000D01*
X225830000Y-127818000D02*
X225830000Y-121362000D01*
X225870000Y-127819000D02*
X225870000Y-121361000D01*
X225910000Y-127820000D02*
X225910000Y-121360000D01*
X225950000Y-127820000D02*
X225950000Y-121360000D01*
X229135241Y-126744000D02*
X229135241Y-126114000D01*
X229450241Y-126429000D02*
X228820241Y-126429000D01*
X229220000Y-124590000D02*
G75*
G02*
X222680000Y-124590000I-3270000J0D01*
G01*
X222680000Y-124590000D02*
G75*
G02*
X229220000Y-124590000I3270000J0D01*
G01*
%TO.C,D1*%
X262858644Y-45654403D02*
X265170932Y-44319403D01*
X262867304Y-45649404D02*
X262867304Y-45649404D01*
X264137304Y-47849108D02*
X264137304Y-47849108D01*
X264137304Y-47849108D02*
X266449592Y-46514108D01*
X264834592Y-43716846D02*
X265804541Y-43156846D01*
X265020932Y-44059596D02*
X265270932Y-44492609D01*
X265034592Y-44063256D02*
X264834592Y-43716846D01*
X265034592Y-44063256D02*
X268377450Y-42133256D01*
X265170932Y-44319403D02*
X262858644Y-45654403D01*
X265804541Y-43156846D02*
X266004541Y-43503256D01*
X266004541Y-43503256D02*
X265034592Y-44063256D01*
X266354592Y-46349563D02*
X266594592Y-46765255D01*
X266449592Y-46514108D02*
X264137304Y-47849108D01*
X266449592Y-46514108D02*
X266449592Y-46514108D01*
X266594592Y-46765255D02*
X269937450Y-44835255D01*
X268377450Y-42133256D02*
G75*
G02*
X269937450Y-44835256I780000J-1351000D01*
G01*
%TO.C,Q12*%
X230860000Y-58600000D02*
X230210000Y-58600000D01*
X230860000Y-58600000D02*
X231510000Y-58600000D01*
X230860000Y-61720000D02*
X230210000Y-61720000D01*
X230860000Y-61720000D02*
X231510000Y-61720000D01*
X232262500Y-62000000D02*
X231782500Y-62000000D01*
X232022500Y-61670000D01*
X232262500Y-62000000D01*
G36*
X232262500Y-62000000D02*
G01*
X231782500Y-62000000D01*
X232022500Y-61670000D01*
X232262500Y-62000000D01*
G37*
%TO.C,R2*%
X255035000Y-57807064D02*
X255035000Y-56352936D01*
X256855000Y-57807064D02*
X256855000Y-56352936D01*
%TO.C,C21*%
X257770000Y-56258748D02*
X257770000Y-57681252D01*
X259590000Y-56258748D02*
X259590000Y-57681252D01*
%TO.C,TP4*%
X213310000Y-81050000D02*
X214690000Y-81050000D01*
X213310000Y-82430000D02*
X213310000Y-81050000D01*
X213310000Y-83700000D02*
X213310000Y-83810000D01*
X213310000Y-83700000D02*
X216070000Y-83700000D01*
X213310000Y-83810000D02*
X216070000Y-83810000D01*
X216070000Y-83700000D02*
X216070000Y-83810000D01*
%TO.C,C18*%
X219986248Y-76900000D02*
X221408752Y-76900000D01*
X219986248Y-78720000D02*
X221408752Y-78720000D01*
%TO.C,R17*%
X290090000Y-80952936D02*
X290090000Y-82407064D01*
X291910000Y-80952936D02*
X291910000Y-82407064D01*
%TO.C,U2*%
X259280000Y-124290000D02*
X259280000Y-129590000D01*
X259280000Y-129590000D02*
X279720000Y-129590000D01*
X279720000Y-124290000D02*
X259280000Y-124290000D01*
X279720000Y-125940000D02*
X279720000Y-124290000D01*
X279720000Y-129590000D02*
X279720000Y-127940000D01*
X279720000Y-127940000D02*
G75*
G02*
X279720000Y-125940000I0J1000000D01*
G01*
%TO.C,Q9*%
X273727500Y-57970000D02*
X273077500Y-57970000D01*
X273727500Y-57970000D02*
X274377500Y-57970000D01*
X273727500Y-61090000D02*
X273077500Y-61090000D01*
X273727500Y-61090000D02*
X274377500Y-61090000D01*
X272565000Y-58020000D02*
X272325000Y-57690000D01*
X272805000Y-57690000D01*
X272565000Y-58020000D01*
G36*
X272565000Y-58020000D02*
G01*
X272325000Y-57690000D01*
X272805000Y-57690000D01*
X272565000Y-58020000D01*
G37*
%TO.C,R12*%
X292870000Y-82397064D02*
X292870000Y-80942936D01*
X294690000Y-82397064D02*
X294690000Y-80942936D01*
%TO.C,C14*%
X277688748Y-57350000D02*
X279111252Y-57350000D01*
X277688748Y-59170000D02*
X279111252Y-59170000D01*
%TO.C,L1*%
X220065436Y-68805000D02*
X221269564Y-68805000D01*
X220065436Y-70625000D02*
X221269564Y-70625000D01*
%TO.C,Q0*%
X283250000Y-54940000D02*
X283650000Y-54940000D01*
X283250000Y-56060000D02*
X283250000Y-54940000D01*
X283640000Y-56070000D02*
X284140000Y-56070000D01*
X283650000Y-54940000D02*
X283650000Y-56060000D01*
X283650000Y-56060000D02*
X283250000Y-56060000D01*
X283650000Y-56060000D02*
X283650000Y-52200000D01*
X283940000Y-56070000D02*
X283940000Y-58740000D01*
X283940000Y-58730000D02*
X283940000Y-58730000D01*
X283940000Y-58740000D02*
X283940000Y-56070000D01*
X286290000Y-56060000D02*
X286770000Y-56060000D01*
X286480000Y-56060000D02*
X286480000Y-56060000D01*
X286480000Y-56060000D02*
X286480000Y-58730000D01*
X286480000Y-58730000D02*
X286480000Y-56060000D01*
X286480000Y-58730000D02*
X286480000Y-58730000D01*
X286770000Y-56060000D02*
X286770000Y-52200000D01*
X283650000Y-52200000D02*
G75*
G02*
X286770000Y-52200000I1560000J0D01*
G01*
%TO.C,D7*%
X295710000Y-70880000D02*
X295710000Y-68920000D01*
X296910000Y-68920000D02*
X295710000Y-68920000D01*
X296910000Y-70880000D02*
X296910000Y-68920000D01*
%TO.C,C1*%
X225860000Y-131733752D02*
X225860000Y-130311248D01*
X227680000Y-131733752D02*
X227680000Y-130311248D01*
%TO.C,R8*%
X223232936Y-61860000D02*
X224687064Y-61860000D01*
X223232936Y-63680000D02*
X224687064Y-63680000D01*
%TO.C,U3*%
X235126000Y-122872000D02*
X235126000Y-124682000D01*
X235126000Y-124682000D02*
X230001000Y-124682000D01*
X235126000Y-131462000D02*
X234026000Y-131462000D01*
X235126000Y-133272000D02*
X235126000Y-131462000D01*
X236626000Y-122872000D02*
X235126000Y-122872000D01*
X236626000Y-133272000D02*
X235126000Y-133272000D01*
%TO.C,D3*%
X216817626Y-59285000D02*
X217217626Y-59285000D01*
X216817626Y-60405000D02*
X216817626Y-59285000D01*
X217207626Y-60415000D02*
X217707626Y-60415000D01*
X217217626Y-59285000D02*
X217217626Y-60405000D01*
X217217626Y-60405000D02*
X216817626Y-60405000D01*
X217217626Y-60405000D02*
X217217626Y-56545000D01*
X217507626Y-60415000D02*
X217507626Y-63085000D01*
X217507626Y-63075000D02*
X217507626Y-63075000D01*
X217507626Y-63085000D02*
X217507626Y-60415000D01*
X219857626Y-60405000D02*
X220337626Y-60405000D01*
X220047626Y-60405000D02*
X220047626Y-60405000D01*
X220047626Y-60405000D02*
X220047626Y-63075000D01*
X220047626Y-63075000D02*
X220047626Y-60405000D01*
X220047626Y-63075000D02*
X220047626Y-63075000D01*
X220337626Y-60405000D02*
X220337626Y-56545000D01*
X217217626Y-56545000D02*
G75*
G02*
X220337626Y-56545000I1560000J0D01*
G01*
%TO.C,C11*%
X219986248Y-74150000D02*
X221408752Y-74150000D01*
X219986248Y-75970000D02*
X221408752Y-75970000D01*
%TO.C,TP3*%
X254880000Y-131410000D02*
X256260000Y-131410000D01*
X254880000Y-132790000D02*
X254880000Y-131410000D01*
X254880000Y-134060000D02*
X254880000Y-134170000D01*
X254880000Y-134060000D02*
X257640000Y-134060000D01*
X254880000Y-134170000D02*
X257640000Y-134170000D01*
X257640000Y-134060000D02*
X257640000Y-134170000D01*
%TO.C,C20*%
X260530000Y-60253752D02*
X260530000Y-58831248D01*
X262350000Y-60253752D02*
X262350000Y-58831248D01*
%TO.C,C12*%
X219986248Y-71460000D02*
X221408752Y-71460000D01*
X219986248Y-73280000D02*
X221408752Y-73280000D01*
%TO.C,C16*%
X246735000Y-124985000D02*
X253195000Y-124985000D01*
X246735000Y-125025000D02*
X253195000Y-125025000D01*
X246736000Y-124945000D02*
X253194000Y-124945000D01*
X246737000Y-124905000D02*
X253193000Y-124905000D01*
X246739000Y-124865000D02*
X253191000Y-124865000D01*
X246741000Y-124825000D02*
X253189000Y-124825000D01*
X246744000Y-124785000D02*
X248925000Y-124785000D01*
X246747000Y-124745000D02*
X248925000Y-124745000D01*
X246751000Y-124705000D02*
X248925000Y-124705000D01*
X246755000Y-124665000D02*
X248925000Y-124665000D01*
X246760000Y-124625000D02*
X248925000Y-124625000D01*
X246765000Y-124585000D02*
X248925000Y-124585000D01*
X246770000Y-124545000D02*
X248925000Y-124545000D01*
X246777000Y-124505000D02*
X248925000Y-124505000D01*
X246783000Y-124465000D02*
X248925000Y-124465000D01*
X246791000Y-124425000D02*
X248925000Y-124425000D01*
X246798000Y-124385000D02*
X248925000Y-124385000D01*
X246806000Y-124345000D02*
X248925000Y-124345000D01*
X246815000Y-124305000D02*
X248925000Y-124305000D01*
X246825000Y-124265000D02*
X248925000Y-124265000D01*
X246834000Y-124225000D02*
X248925000Y-124225000D01*
X246845000Y-124185000D02*
X248925000Y-124185000D01*
X246856000Y-124145000D02*
X248925000Y-124145000D01*
X246867000Y-124105000D02*
X248925000Y-124105000D01*
X246879000Y-124065000D02*
X248925000Y-124065000D01*
X246892000Y-124025000D02*
X248925000Y-124025000D01*
X246905000Y-123985000D02*
X248925000Y-123985000D01*
X246918000Y-123945000D02*
X248925000Y-123945000D01*
X246933000Y-123905000D02*
X248925000Y-123905000D01*
X246948000Y-123865000D02*
X248925000Y-123865000D01*
X246963000Y-123825000D02*
X248925000Y-123825000D01*
X246979000Y-123785000D02*
X248925000Y-123785000D01*
X246996000Y-123745000D02*
X248925000Y-123745000D01*
X247013000Y-123705000D02*
X248925000Y-123705000D01*
X247031000Y-123665000D02*
X248925000Y-123665000D01*
X247050000Y-123625000D02*
X248925000Y-123625000D01*
X247069000Y-123585000D02*
X248925000Y-123585000D01*
X247089000Y-123545000D02*
X248925000Y-123545000D01*
X247110000Y-123505000D02*
X248925000Y-123505000D01*
X247131000Y-123465000D02*
X248925000Y-123465000D01*
X247153000Y-123425000D02*
X248925000Y-123425000D01*
X247176000Y-123385000D02*
X248925000Y-123385000D01*
X247200000Y-123345000D02*
X248925000Y-123345000D01*
X247224000Y-123305000D02*
X248925000Y-123305000D01*
X247249000Y-123265000D02*
X248925000Y-123265000D01*
X247275000Y-123225000D02*
X248925000Y-123225000D01*
X247302000Y-123185000D02*
X248925000Y-123185000D01*
X247329000Y-123145000D02*
X248925000Y-123145000D01*
X247358000Y-123105000D02*
X248925000Y-123105000D01*
X247388000Y-123065000D02*
X248925000Y-123065000D01*
X247418000Y-123025000D02*
X248925000Y-123025000D01*
X247449000Y-122985000D02*
X248925000Y-122985000D01*
X247482000Y-122945000D02*
X248925000Y-122945000D01*
X247515000Y-122905000D02*
X248925000Y-122905000D01*
X247550000Y-122865000D02*
X248925000Y-122865000D01*
X247586000Y-122825000D02*
X248925000Y-122825000D01*
X247623000Y-122785000D02*
X248925000Y-122785000D01*
X247661000Y-122745000D02*
X248925000Y-122745000D01*
X247701000Y-122705000D02*
X252229000Y-122705000D01*
X247742000Y-122665000D02*
X252188000Y-122665000D01*
X247784000Y-122625000D02*
X252146000Y-122625000D01*
X247811000Y-128210241D02*
X248441000Y-128210241D01*
X247828000Y-122585000D02*
X252102000Y-122585000D01*
X247874000Y-122545000D02*
X252056000Y-122545000D01*
X247921000Y-122505000D02*
X252009000Y-122505000D01*
X247970000Y-122465000D02*
X251960000Y-122465000D01*
X248022000Y-122425000D02*
X251908000Y-122425000D01*
X248075000Y-122385000D02*
X251855000Y-122385000D01*
X248126000Y-128525241D02*
X248126000Y-127895241D01*
X248131000Y-122345000D02*
X251799000Y-122345000D01*
X248190000Y-122305000D02*
X251740000Y-122305000D01*
X248251000Y-122265000D02*
X251679000Y-122265000D01*
X248316000Y-122225000D02*
X251614000Y-122225000D01*
X248384000Y-122185000D02*
X251546000Y-122185000D01*
X248456000Y-122145000D02*
X251474000Y-122145000D01*
X248533000Y-122105000D02*
X251397000Y-122105000D01*
X248615000Y-122065000D02*
X251315000Y-122065000D01*
X248704000Y-122025000D02*
X251226000Y-122025000D01*
X248800000Y-121985000D02*
X251130000Y-121985000D01*
X248907000Y-121945000D02*
X251023000Y-121945000D01*
X249026000Y-121905000D02*
X250904000Y-121905000D01*
X249164000Y-121865000D02*
X250766000Y-121865000D01*
X249332000Y-121825000D02*
X250598000Y-121825000D01*
X249563000Y-121785000D02*
X250367000Y-121785000D01*
X251005000Y-122745000D02*
X252269000Y-122745000D01*
X251005000Y-122785000D02*
X252307000Y-122785000D01*
X251005000Y-122825000D02*
X252344000Y-122825000D01*
X251005000Y-122865000D02*
X252380000Y-122865000D01*
X251005000Y-122905000D02*
X252415000Y-122905000D01*
X251005000Y-122945000D02*
X252448000Y-122945000D01*
X251005000Y-122985000D02*
X252481000Y-122985000D01*
X251005000Y-123025000D02*
X252512000Y-123025000D01*
X251005000Y-123065000D02*
X252542000Y-123065000D01*
X251005000Y-123105000D02*
X252572000Y-123105000D01*
X251005000Y-123145000D02*
X252601000Y-123145000D01*
X251005000Y-123185000D02*
X252628000Y-123185000D01*
X251005000Y-123225000D02*
X252655000Y-123225000D01*
X251005000Y-123265000D02*
X252681000Y-123265000D01*
X251005000Y-123305000D02*
X252706000Y-123305000D01*
X251005000Y-123345000D02*
X252730000Y-123345000D01*
X251005000Y-123385000D02*
X252754000Y-123385000D01*
X251005000Y-123425000D02*
X252777000Y-123425000D01*
X251005000Y-123465000D02*
X252799000Y-123465000D01*
X251005000Y-123505000D02*
X252820000Y-123505000D01*
X251005000Y-123545000D02*
X252841000Y-123545000D01*
X251005000Y-123585000D02*
X252861000Y-123585000D01*
X251005000Y-123625000D02*
X252880000Y-123625000D01*
X251005000Y-123665000D02*
X252899000Y-123665000D01*
X251005000Y-123705000D02*
X252917000Y-123705000D01*
X251005000Y-123745000D02*
X252934000Y-123745000D01*
X251005000Y-123785000D02*
X252951000Y-123785000D01*
X251005000Y-123825000D02*
X252967000Y-123825000D01*
X251005000Y-123865000D02*
X252982000Y-123865000D01*
X251005000Y-123905000D02*
X252997000Y-123905000D01*
X251005000Y-123945000D02*
X253012000Y-123945000D01*
X251005000Y-123985000D02*
X253025000Y-123985000D01*
X251005000Y-124025000D02*
X253038000Y-124025000D01*
X251005000Y-124065000D02*
X253051000Y-124065000D01*
X251005000Y-124105000D02*
X253063000Y-124105000D01*
X251005000Y-124145000D02*
X253074000Y-124145000D01*
X251005000Y-124185000D02*
X253085000Y-124185000D01*
X251005000Y-124225000D02*
X253096000Y-124225000D01*
X251005000Y-124265000D02*
X253105000Y-124265000D01*
X251005000Y-124305000D02*
X253115000Y-124305000D01*
X251005000Y-124345000D02*
X253124000Y-124345000D01*
X251005000Y-124385000D02*
X253132000Y-124385000D01*
X251005000Y-124425000D02*
X253139000Y-124425000D01*
X251005000Y-124465000D02*
X253147000Y-124465000D01*
X251005000Y-124505000D02*
X253153000Y-124505000D01*
X251005000Y-124545000D02*
X253160000Y-124545000D01*
X251005000Y-124585000D02*
X253165000Y-124585000D01*
X251005000Y-124625000D02*
X253170000Y-124625000D01*
X251005000Y-124665000D02*
X253175000Y-124665000D01*
X251005000Y-124705000D02*
X253179000Y-124705000D01*
X251005000Y-124745000D02*
X253183000Y-124745000D01*
X251005000Y-124785000D02*
X253186000Y-124785000D01*
X253235000Y-125025000D02*
G75*
G02*
X246695000Y-125025000I-3270000J0D01*
G01*
X246695000Y-125025000D02*
G75*
G02*
X253235000Y-125025000I3270000J0D01*
G01*
%TO.C,TP1*%
X228330000Y-116180000D02*
X229710000Y-116180000D01*
X228330000Y-117560000D02*
X228330000Y-116180000D01*
X228330000Y-118830000D02*
X228330000Y-118940000D01*
X228330000Y-118830000D02*
X231090000Y-118830000D01*
X228330000Y-118940000D02*
X231090000Y-118940000D01*
X231090000Y-118830000D02*
X231090000Y-118940000D01*
D10*
%TO.C,M_MH2*%
X255897500Y-94620000D02*
X286897500Y-94620000D01*
X255897500Y-100620000D02*
X255897500Y-94620000D01*
X255897500Y-100620000D02*
X255897500Y-106620000D01*
X255897500Y-106620000D02*
X286897500Y-106620000D01*
X275397500Y-100620000D02*
X275397500Y-93120000D01*
X275397500Y-100620000D02*
X275397500Y-108120000D01*
X278397500Y-94620000D02*
X278397500Y-87320000D01*
X278397500Y-106620000D02*
X278397500Y-113920000D01*
X286897500Y-87320000D02*
X278397500Y-87320000D01*
X286897500Y-93120000D02*
X275397500Y-93120000D01*
X286897500Y-94620000D02*
X286897500Y-99120000D01*
X286897500Y-100620000D02*
X286897500Y-87320000D01*
X286897500Y-100620000D02*
X286897500Y-113920000D01*
X286897500Y-106620000D02*
X286897500Y-102120000D01*
X286897500Y-108120000D02*
X275397500Y-108120000D01*
X286897500Y-113920000D02*
X278397500Y-113920000D01*
D11*
%TO.C,Q2*%
X237619558Y-50538313D02*
X237819558Y-50191903D01*
X237819558Y-50191903D02*
X238789506Y-50751902D01*
X238589507Y-51098313D02*
X237619558Y-50538313D01*
X238789506Y-50751902D02*
X235446649Y-48821903D01*
X238789506Y-50751902D02*
X238589507Y-51098313D01*
X238793167Y-50765563D02*
X239043167Y-50332550D01*
X238943167Y-50505756D02*
X241255455Y-51840755D01*
X240109505Y-48465596D02*
X240349507Y-48049904D01*
X240204507Y-48301051D02*
X240204507Y-48301051D01*
X240204507Y-48301051D02*
X242516795Y-49636051D01*
X240349507Y-48049904D02*
X237006648Y-46119903D01*
X241246794Y-51835756D02*
X241246794Y-51835756D01*
X241255455Y-51840755D02*
X238943167Y-50505756D01*
X242516795Y-49636051D02*
X240204507Y-48301051D01*
X242516795Y-49636051D02*
X242516795Y-49636051D01*
X235446649Y-48821903D02*
G75*
G02*
X237006648Y-46119903I780000J1351000D01*
G01*
%TO.C,TP5*%
X283230000Y-63750000D02*
X284610000Y-63750000D01*
X283230000Y-65130000D02*
X283230000Y-63750000D01*
X283230000Y-66400000D02*
X283230000Y-66510000D01*
X283230000Y-66400000D02*
X285990000Y-66400000D01*
X283230000Y-66510000D02*
X285990000Y-66510000D01*
X285990000Y-66400000D02*
X285990000Y-66510000D01*
%TO.C,C10*%
X247705000Y-130656248D02*
X247705000Y-132078752D01*
X249525000Y-130656248D02*
X249525000Y-132078752D01*
%TO.C,R14*%
X246767064Y-58070000D02*
X245312936Y-58070000D01*
X246767064Y-59890000D02*
X245312936Y-59890000D01*
%TO.C,R3*%
X266300000Y-58742936D02*
X266300000Y-60197064D01*
X268120000Y-58742936D02*
X268120000Y-60197064D01*
%TO.C,Q10*%
X244880000Y-55312500D02*
X244880000Y-54662500D01*
X244880000Y-55312500D02*
X244880000Y-55962500D01*
X248000000Y-55312500D02*
X248000000Y-54662500D01*
X248000000Y-55312500D02*
X248000000Y-55962500D01*
X244930000Y-56475000D02*
X244600000Y-56715000D01*
X244600000Y-56235000D01*
X244930000Y-56475000D01*
G36*
X244930000Y-56475000D02*
G01*
X244600000Y-56715000D01*
X244600000Y-56235000D01*
X244930000Y-56475000D01*
G37*
%TO.C,BT1*%
X209990000Y-122430000D02*
X215410000Y-122430000D01*
X209990000Y-131150000D02*
X209990000Y-122430000D01*
X211290000Y-132850000D02*
X209990000Y-131150000D01*
X211290000Y-132850000D02*
X214110000Y-132850000D01*
X214110000Y-132850000D02*
X215410000Y-131150000D01*
X215410000Y-131150000D02*
X215410000Y-122430000D01*
%TO.C,R1*%
X277707936Y-54260000D02*
X279162064Y-54260000D01*
X277707936Y-56080000D02*
X279162064Y-56080000D01*
%TD*%
%LPC*%
%TO.C,JP4*%
G36*
X225840000Y-116600000D02*
G01*
X226140000Y-116600000D01*
X226140000Y-118100000D01*
X225840000Y-118100000D01*
X225840000Y-116600000D01*
G37*
%TD*%
D15*
%TO.C,C6*%
X285337500Y-131479000D03*
X282387500Y-131479000D03*
%TD*%
D16*
%TO.C,D0*%
X290317626Y-60435000D03*
D17*
X291587626Y-64245000D03*
D18*
X289047626Y-64245000D03*
%TD*%
D19*
%TO.C,C15*%
X258705000Y-61040000D03*
X255580000Y-61040000D03*
%TD*%
D20*
%TO.C,Q11*%
X234845000Y-55110000D03*
X236745000Y-55110000D03*
X235795000Y-53235000D03*
%TD*%
D21*
%TO.C,C25*%
X213405000Y-77680000D03*
X216530000Y-77680000D03*
%TD*%
D22*
%TO.C,BT_MH1*%
X136230000Y-85150000D03*
%TD*%
D23*
%TO.C,J5*%
X284697500Y-122819000D03*
D24*
X287237500Y-122819000D03*
X289777500Y-122819000D03*
X292317500Y-122819000D03*
X294857500Y-122819000D03*
%TD*%
D25*
%TO.C,S3*%
X296005001Y-73835000D03*
X296005001Y-77985000D03*
X298154999Y-73835000D03*
X298154999Y-77985000D03*
%TD*%
D26*
%TO.C,R21*%
X239010000Y-89960000D03*
X235910000Y-89960000D03*
%TD*%
D23*
%TO.C,U1*%
X229350000Y-82030000D03*
D24*
X231890000Y-82030000D03*
X234430000Y-82030000D03*
X236970000Y-82030000D03*
X239510000Y-82030000D03*
X242050000Y-82030000D03*
X244590000Y-82030000D03*
X247130000Y-82030000D03*
X249670000Y-82030000D03*
X252210000Y-82030000D03*
X254750000Y-82030000D03*
X257290000Y-82030000D03*
X259830000Y-82030000D03*
X262370000Y-82030000D03*
X264910000Y-82030000D03*
X267450000Y-82030000D03*
X269990000Y-82030000D03*
X272530000Y-82030000D03*
X275070000Y-82030000D03*
X277610000Y-82030000D03*
X277610000Y-66790000D03*
X275070000Y-66790000D03*
X272530000Y-66790000D03*
X269990000Y-66790000D03*
X267450000Y-66790000D03*
X264910000Y-66790000D03*
X262370000Y-66790000D03*
X259830000Y-66790000D03*
X257290000Y-66790000D03*
X254750000Y-66790000D03*
X252210000Y-66790000D03*
X249670000Y-66790000D03*
X247130000Y-66790000D03*
X244590000Y-66790000D03*
X242050000Y-66790000D03*
X239510000Y-66790000D03*
X236970000Y-66790000D03*
X234430000Y-66790000D03*
X231890000Y-66790000D03*
X229350000Y-66790000D03*
%TD*%
D27*
%TO.C,C13*%
X251555000Y-129805000D03*
X251555000Y-132930000D03*
%TD*%
D16*
%TO.C,Q3*%
X223750000Y-56140000D03*
D17*
X225020000Y-59950000D03*
D18*
X222480000Y-59950000D03*
%TD*%
D28*
%TO.C,C5*%
X285472500Y-133599000D03*
X283922500Y-133599000D03*
%TD*%
D29*
%TO.C,S2*%
X283245000Y-77954999D03*
X287395000Y-77954999D03*
X283245000Y-75805001D03*
X287395000Y-75805001D03*
%TD*%
D30*
%TO.C,R22*%
X250380000Y-58420000D03*
X250380000Y-61520000D03*
%TD*%
%TO.C,R13*%
X270265000Y-57830000D03*
X270265000Y-60930000D03*
%TD*%
D31*
%TO.C,D5*%
X243410000Y-92160000D03*
X241360000Y-92160000D03*
%TD*%
D30*
%TO.C,R4*%
X264280000Y-57970000D03*
X264280000Y-61070000D03*
%TD*%
D32*
%TO.C,R23*%
X252970000Y-61510000D03*
X252970000Y-58410000D03*
%TD*%
D22*
%TO.C,SK1*%
X148130000Y-85150000D03*
%TD*%
D26*
%TO.C,R19*%
X239000000Y-87480000D03*
X235900000Y-87480000D03*
%TD*%
D33*
%TO.C,C19*%
X296600000Y-83182500D03*
X296600000Y-80057500D03*
%TD*%
D16*
%TO.C,Q1*%
X269650000Y-49420000D03*
D34*
X266985443Y-52424852D03*
D18*
X265715443Y-50225147D03*
%TD*%
D35*
%TO.C,JP4*%
X225340000Y-117350000D03*
X226640000Y-117350000D03*
%TD*%
D36*
%TO.C,Y1*%
X276463001Y-119550000D03*
X273416999Y-119550000D03*
%TD*%
D37*
%TO.C,C7*%
X270427500Y-117330000D03*
X272152500Y-117330000D03*
%TD*%
D21*
%TO.C,C4*%
X276387500Y-133480000D03*
X279512500Y-133480000D03*
%TD*%
D23*
%TO.C,TP6*%
X256190000Y-126830000D03*
%TD*%
D37*
%TO.C,C8*%
X274177500Y-117280000D03*
X275902500Y-117280000D03*
%TD*%
D32*
%TO.C,R9*%
X284850000Y-83230000D03*
X284850000Y-80130000D03*
%TD*%
D38*
%TO.C,M_MH1*%
X226460000Y-91620000D03*
X226460000Y-109620000D03*
%TD*%
D26*
%TO.C,R6*%
X253420000Y-55730000D03*
X250320000Y-55730000D03*
%TD*%
D39*
%TO.C,U5*%
X295327500Y-133609000D03*
X295327500Y-132509000D03*
X295327500Y-131409000D03*
X295327500Y-130309000D03*
X295327500Y-129209000D03*
X295327500Y-128109000D03*
X295327500Y-127009000D03*
X295327500Y-125909000D03*
X287657500Y-125909000D03*
X287657500Y-127009000D03*
X287657500Y-128109000D03*
X287657500Y-129209000D03*
X287657500Y-130309000D03*
X287657500Y-131409000D03*
X287657500Y-132509000D03*
X287657500Y-133609000D03*
D40*
X293242500Y-130610000D03*
X293242500Y-129410000D03*
X293242500Y-128210000D03*
X293242500Y-127010000D03*
X293242500Y-125810000D03*
X292042500Y-130610000D03*
X292042500Y-129410000D03*
X292042500Y-128210000D03*
X292042500Y-127010000D03*
X292042500Y-125810000D03*
X290842500Y-130610000D03*
X290842500Y-129410000D03*
X290842500Y-128210000D03*
X290842500Y-127010000D03*
X290842500Y-125810000D03*
X289642500Y-130610000D03*
X289642500Y-129410000D03*
X289642500Y-128210000D03*
X289642500Y-127010000D03*
X289642500Y-125810000D03*
%TD*%
D23*
%TO.C,TP2*%
X214200000Y-64620000D03*
%TD*%
D26*
%TO.C,R5*%
X279950000Y-61290000D03*
X276850000Y-61290000D03*
%TD*%
D19*
%TO.C,C3*%
X257730000Y-122410000D03*
X254605000Y-122410000D03*
%TD*%
D31*
%TO.C,D4*%
X243417500Y-87760000D03*
X241367500Y-87760000D03*
%TD*%
D19*
%TO.C,C22*%
X292212500Y-70290000D03*
X289087500Y-70290000D03*
%TD*%
D41*
%TO.C,U4*%
X216590000Y-72930000D03*
X215640000Y-72930000D03*
X214690000Y-72930000D03*
X214690000Y-75205000D03*
X216590000Y-75205000D03*
%TD*%
D42*
%TO.C,D9*%
X294280000Y-69470000D03*
X294280000Y-70870000D03*
%TD*%
D16*
%TO.C,D2*%
X243395445Y-45334852D03*
D43*
X247330000Y-46140000D03*
D18*
X246060000Y-48339705D03*
%TD*%
D26*
%TO.C,R16*%
X237570000Y-60690000D03*
X234470000Y-60690000D03*
%TD*%
D19*
%TO.C,C17*%
X216710000Y-68210000D03*
X213585000Y-68210000D03*
%TD*%
D44*
%TO.C,M2*%
X253030000Y-112830000D03*
D45*
X250530000Y-112830000D03*
X248030000Y-112830000D03*
X245530000Y-112830000D03*
X243030000Y-112830000D03*
X240530000Y-112830000D03*
%TD*%
D44*
%TO.C,M1*%
X273610000Y-112830000D03*
D45*
X271110000Y-112830000D03*
X268610000Y-112830000D03*
X266110000Y-112830000D03*
X263610000Y-112830000D03*
X261110000Y-112830000D03*
%TD*%
D22*
%TO.C,BT_MH3*%
X142180000Y-85150000D03*
%TD*%
D27*
%TO.C,C9*%
X224100000Y-129457500D03*
X224100000Y-132582500D03*
%TD*%
D30*
%TO.C,R10*%
X283530000Y-126290000D03*
X283530000Y-129390000D03*
%TD*%
%TO.C,R7*%
X240090000Y-57850000D03*
X240090000Y-60950000D03*
%TD*%
D32*
%TO.C,R24*%
X288010000Y-83240000D03*
X288010000Y-80140000D03*
%TD*%
D31*
%TO.C,D6*%
X243410000Y-89920000D03*
X241360000Y-89920000D03*
%TD*%
D26*
%TO.C,R20*%
X239000000Y-92470000D03*
X235900000Y-92470000D03*
%TD*%
D29*
%TO.C,S5*%
X289680000Y-77959998D03*
X293830000Y-77959998D03*
X289680000Y-75810000D03*
X293830000Y-75810000D03*
%TD*%
D46*
%TO.C,S1*%
X219050000Y-132542000D03*
X219050000Y-127716000D03*
X219050000Y-122890000D03*
%TD*%
D22*
%TO.C,SK2*%
X148130000Y-91100000D03*
%TD*%
D26*
%TO.C,R15*%
X237520000Y-57960000D03*
X234420000Y-57960000D03*
%TD*%
D47*
%TO.C,C2*%
X227200000Y-124590000D03*
D48*
X224700000Y-124590000D03*
%TD*%
D16*
%TO.C,D1*%
X265866554Y-45384256D03*
D34*
X263201997Y-48389108D03*
D18*
X261931997Y-46189403D03*
%TD*%
D49*
%TO.C,Q12*%
X231797500Y-61110000D03*
X231797500Y-59210000D03*
X229922500Y-60160000D03*
%TD*%
D32*
%TO.C,R2*%
X255945000Y-58630000D03*
X255945000Y-55530000D03*
%TD*%
D27*
%TO.C,C21*%
X258680000Y-55407500D03*
X258680000Y-58532500D03*
%TD*%
D22*
%TO.C,SK4*%
X154080000Y-91100000D03*
%TD*%
D23*
%TO.C,TP4*%
X214690000Y-82430000D03*
%TD*%
D21*
%TO.C,C18*%
X219135000Y-77810000D03*
X222260000Y-77810000D03*
%TD*%
D30*
%TO.C,R17*%
X291000000Y-80130000D03*
X291000000Y-83230000D03*
%TD*%
D50*
%TO.C,U2*%
X278390000Y-123130000D03*
D48*
X275850000Y-123130000D03*
X273310000Y-123130000D03*
X270770000Y-123130000D03*
X268230000Y-123130000D03*
X265690000Y-123130000D03*
X263150000Y-123130000D03*
X260610000Y-123130000D03*
X260610000Y-130750000D03*
X263150000Y-130750000D03*
X265690000Y-130750000D03*
X268230000Y-130750000D03*
X270770000Y-130750000D03*
X273310000Y-130750000D03*
X275850000Y-130750000D03*
X278390000Y-130750000D03*
%TD*%
D22*
%TO.C,BT_MH2*%
X136230000Y-91100000D03*
%TD*%
D51*
%TO.C,Q9*%
X272790000Y-58580000D03*
X272790000Y-60480000D03*
X274665000Y-59530000D03*
%TD*%
D32*
%TO.C,R12*%
X293780000Y-83220000D03*
X293780000Y-80120000D03*
%TD*%
D22*
%TO.C,SK3*%
X154080000Y-85150000D03*
%TD*%
D21*
%TO.C,C14*%
X276837500Y-58260000D03*
X279962500Y-58260000D03*
%TD*%
D52*
%TO.C,L1*%
X219180000Y-69715000D03*
X222155000Y-69715000D03*
%TD*%
D16*
%TO.C,Q0*%
X285210000Y-56000000D03*
D17*
X286480000Y-59810000D03*
D18*
X283940000Y-59810000D03*
%TD*%
D42*
%TO.C,D7*%
X296310000Y-69480000D03*
X296310000Y-70880000D03*
%TD*%
D33*
%TO.C,C1*%
X226770000Y-132585000D03*
X226770000Y-129460000D03*
%TD*%
D53*
%TO.C,R8*%
X222410000Y-62770000D03*
X225510000Y-62770000D03*
%TD*%
D22*
%TO.C,BT_MH4*%
X142180000Y-91100000D03*
%TD*%
D54*
%TO.C,U3*%
X232301000Y-125532000D03*
X232301000Y-128072000D03*
D55*
X238330000Y-123500000D03*
X238330000Y-125532000D03*
X238330000Y-127564000D03*
X238330000Y-129596000D03*
X238330000Y-131628000D03*
X240362000Y-123500000D03*
X240362000Y-125532000D03*
X240362000Y-127564000D03*
X240362000Y-129596000D03*
X240362000Y-131628000D03*
D56*
X241451000Y-128072000D03*
D55*
X242394000Y-123500000D03*
X242394000Y-125532000D03*
X242394000Y-127564000D03*
X242394000Y-129596000D03*
X242394000Y-131628000D03*
X244426000Y-123500000D03*
X244426000Y-125532000D03*
X244426000Y-127564000D03*
X244426000Y-129596000D03*
X244426000Y-131628000D03*
D54*
X232301000Y-130612000D03*
%TD*%
D16*
%TO.C,D3*%
X218777626Y-60345000D03*
D17*
X220047626Y-64155000D03*
D18*
X217507626Y-64155000D03*
%TD*%
D21*
%TO.C,C11*%
X219135000Y-75060000D03*
X222260000Y-75060000D03*
%TD*%
D23*
%TO.C,TP3*%
X256260000Y-132790000D03*
%TD*%
D33*
%TO.C,C20*%
X261440000Y-61105000D03*
X261440000Y-57980000D03*
%TD*%
D21*
%TO.C,C12*%
X219135000Y-72370000D03*
X222260000Y-72370000D03*
%TD*%
D57*
%TO.C,C16*%
X249965000Y-126275000D03*
D48*
X249965000Y-123775000D03*
%TD*%
D23*
%TO.C,TP1*%
X229710000Y-117560000D03*
%TD*%
D38*
%TO.C,M_MH2*%
X282647500Y-109620000D03*
X282647500Y-91620000D03*
%TD*%
D16*
%TO.C,Q2*%
X239517547Y-49370903D03*
D43*
X243452102Y-50176051D03*
D18*
X242182102Y-52375756D03*
%TD*%
D23*
%TO.C,TP5*%
X284610000Y-65130000D03*
%TD*%
D27*
%TO.C,C10*%
X248615000Y-129805000D03*
X248615000Y-132930000D03*
%TD*%
D26*
%TO.C,R14*%
X247590000Y-58980000D03*
X244490000Y-58980000D03*
%TD*%
D30*
%TO.C,R3*%
X267210000Y-57920000D03*
X267210000Y-61020000D03*
%TD*%
D20*
%TO.C,Q10*%
X245490000Y-56250000D03*
X247390000Y-56250000D03*
X246440000Y-54375000D03*
%TD*%
D58*
%TO.C,BT1*%
X212700000Y-130140000D03*
D46*
X212700000Y-125140000D03*
%TD*%
D53*
%TO.C,R1*%
X276885000Y-55170000D03*
X279985000Y-55170000D03*
%TD*%
%LPD*%
M02*
