%TF.GenerationSoftware,KiCad,Pcbnew,9.0.2*%
%TF.CreationDate,2026-09-04T19:04:49-07:00*%
%TF.ProjectId,bloo,626c6f6f-2e6b-4696-9361-645f70636258,rev?*%
%TF.SameCoordinates,Original*%
%TF.FileFunction,Soldermask,Bot*%
%TF.FilePolarity,Negative*%
%FSLAX46Y46*%
G04 Gerber Fmt 4.6, Leading zero omitted, Abs format (unit mm)*
G04 Created by KiCad (PCBNEW 9.0.2) date 2026-09-04 19:04:49*
%MOMM*%
%LPD*%
G01*
G04 APERTURE LIST*
G04 Aperture macros list*
%AMRoundRect*
0 Rectangle with rounded corners*
0 $1 Rounding radius*
0 $2 $3 $4 $5 $6 $7 $8 $9 X,Y pos of 4 corners*
0 Add a 4 corners polygon primitive as box body*
4,1,4,$2,$3,$4,$5,$6,$7,$8,$9,$2,$3,0*
0 Add four circle primitives for the rounded corners*
1,1,$1+$1,$2,$3*
1,1,$1+$1,$4,$5*
1,1,$1+$1,$6,$7*
1,1,$1+$1,$8,$9*
0 Add four rect primitives between the rounded corners*
20,1,$1+$1,$2,$3,$4,$5,0*
20,1,$1+$1,$4,$5,$6,$7,0*
20,1,$1+$1,$6,$7,$8,$9,0*
20,1,$1+$1,$8,$9,$2,$3,0*%
%AMRotRect*
0 Rectangle, with rotation*
0 The origin of the aperture is its center*
0 $1 length*
0 $2 width*
0 $3 Rotation angle, in degrees counterclockwise*
0 Add horizontal line*
21,1,$1,$2,0,0,$3*%
G04 Aperture macros list end*
%ADD10C,1.700000*%
%ADD11R,1.700000X1.700000*%
%ADD12C,2.200000*%
%ADD13C,1.800000*%
%ADD14R,1.800000X1.800000*%
%ADD15C,2.000000*%
%ADD16RotRect,1.800000X1.800000X240.000000*%
%ADD17RotRect,1.800000X1.800000X120.000000*%
%ADD18C,2.184400*%
%ADD19C,3.000000*%
%ADD20RoundRect,0.750000X0.750000X-0.750000X0.750000X0.750000X-0.750000X0.750000X-0.750000X-0.750000X0*%
%ADD21RoundRect,0.250000X0.600000X0.725000X-0.600000X0.725000X-0.600000X-0.725000X0.600000X-0.725000X0*%
%ADD22O,1.700000X1.950000*%
%ADD23RoundRect,0.250000X0.550000X0.550000X-0.550000X0.550000X-0.550000X-0.550000X0.550000X-0.550000X0*%
%ADD24C,1.600000*%
%ADD25RoundRect,0.250000X-0.550000X0.550000X-0.550000X-0.550000X0.550000X-0.550000X0.550000X0.550000X0*%
%ADD26RoundRect,0.250000X0.550000X-0.550000X0.550000X0.550000X-0.550000X0.550000X-0.550000X-0.550000X0*%
G04 APERTURE END LIST*
D10*
%TO.C,U1*%
X229350000Y-66790000D03*
X231890000Y-66790000D03*
X234430000Y-66790000D03*
X236970000Y-66790000D03*
X239510000Y-66790000D03*
X242050000Y-66790000D03*
X244590000Y-66790000D03*
X247130000Y-66790000D03*
X249670000Y-66790000D03*
X252210000Y-66790000D03*
X254750000Y-66790000D03*
X257290000Y-66790000D03*
X259830000Y-66790000D03*
X262370000Y-66790000D03*
X264910000Y-66790000D03*
X267450000Y-66790000D03*
X269990000Y-66790000D03*
X272530000Y-66790000D03*
X275070000Y-66790000D03*
X277610000Y-66790000D03*
X277610000Y-82030000D03*
X275070000Y-82030000D03*
X272530000Y-82030000D03*
X269990000Y-82030000D03*
X267450000Y-82030000D03*
X264910000Y-82030000D03*
X262370000Y-82030000D03*
X259830000Y-82030000D03*
X257290000Y-82030000D03*
X254750000Y-82030000D03*
X252210000Y-82030000D03*
X249670000Y-82030000D03*
X247130000Y-82030000D03*
X244590000Y-82030000D03*
X242050000Y-82030000D03*
X239510000Y-82030000D03*
X236970000Y-82030000D03*
X234430000Y-82030000D03*
X231890000Y-82030000D03*
D11*
X229350000Y-82030000D03*
%TD*%
%TO.C,TP6*%
X256190000Y-126830000D03*
%TD*%
%TO.C,TP5*%
X284610000Y-65130000D03*
%TD*%
%TO.C,TP2*%
X214200000Y-64620000D03*
%TD*%
D12*
%TO.C,SK4*%
X154080000Y-91100000D03*
%TD*%
%TO.C,SK3*%
X154080000Y-85150000D03*
%TD*%
%TO.C,SK2*%
X148130000Y-91100000D03*
%TD*%
%TO.C,SK1*%
X148130000Y-85150000D03*
%TD*%
D13*
%TO.C,Q3*%
X222480000Y-59950000D03*
D14*
X225020000Y-59950000D03*
D15*
X223750000Y-56140000D03*
%TD*%
D13*
%TO.C,Q2*%
X242182102Y-52375756D03*
D16*
X243452102Y-50176051D03*
D15*
X239517547Y-49370903D03*
%TD*%
D13*
%TO.C,Q1*%
X265715443Y-50225147D03*
D17*
X266985443Y-52424852D03*
D15*
X269650000Y-49420000D03*
%TD*%
D13*
%TO.C,Q0*%
X283940000Y-59810000D03*
D14*
X286480000Y-59810000D03*
D15*
X285210000Y-56000000D03*
%TD*%
D18*
%TO.C,M_MH2*%
X282647500Y-91620000D03*
X282647500Y-109620000D03*
%TD*%
%TO.C,M_MH1*%
X226460000Y-109620000D03*
X226460000Y-91620000D03*
%TD*%
D10*
%TO.C,J5*%
X294857500Y-122819000D03*
X292317500Y-122819000D03*
X289777500Y-122819000D03*
X287237500Y-122819000D03*
D11*
X284697500Y-122819000D03*
%TD*%
D13*
%TO.C,D3*%
X217507626Y-64155000D03*
D14*
X220047626Y-64155000D03*
D15*
X218777626Y-60345000D03*
%TD*%
D13*
%TO.C,D2*%
X246060000Y-48339705D03*
D16*
X247330000Y-46140000D03*
D15*
X243395445Y-45334852D03*
%TD*%
D13*
%TO.C,D1*%
X261931997Y-46189403D03*
D17*
X263201997Y-48389108D03*
D15*
X265866554Y-45384256D03*
%TD*%
D13*
%TO.C,D0*%
X289047626Y-64245000D03*
D14*
X291587626Y-64245000D03*
D15*
X290317626Y-60435000D03*
%TD*%
D12*
%TO.C,BT_MH4*%
X142180000Y-91100000D03*
%TD*%
%TO.C,BT_MH3*%
X142180000Y-85150000D03*
%TD*%
%TO.C,BT_MH2*%
X136230000Y-91100000D03*
%TD*%
%TO.C,BT_MH1*%
X136230000Y-85150000D03*
%TD*%
D19*
%TO.C,BT1*%
X212700000Y-125140000D03*
D20*
X212700000Y-130140000D03*
%TD*%
D21*
%TO.C,M2*%
X253030000Y-112830000D03*
D22*
X250530000Y-112830000D03*
X248030000Y-112830000D03*
X245530000Y-112830000D03*
X243030000Y-112830000D03*
X240530000Y-112830000D03*
%TD*%
D21*
%TO.C,M1*%
X273610000Y-112830000D03*
D22*
X271110000Y-112830000D03*
X268610000Y-112830000D03*
X266110000Y-112830000D03*
X263610000Y-112830000D03*
X261110000Y-112830000D03*
%TD*%
D19*
%TO.C,S1*%
X219050000Y-132542000D03*
X219050000Y-127716000D03*
X219050000Y-122890000D03*
%TD*%
D23*
%TO.C,C2*%
X227200000Y-124590000D03*
D24*
X224700000Y-124590000D03*
%TD*%
D11*
%TO.C,TP4*%
X214690000Y-82430000D03*
%TD*%
D25*
%TO.C,U2*%
X278390000Y-123130000D03*
D24*
X275850000Y-123130000D03*
X273310000Y-123130000D03*
X270770000Y-123130000D03*
X268230000Y-123130000D03*
X265690000Y-123130000D03*
X263150000Y-123130000D03*
X260610000Y-123130000D03*
X260610000Y-130750000D03*
X263150000Y-130750000D03*
X265690000Y-130750000D03*
X268230000Y-130750000D03*
X270770000Y-130750000D03*
X273310000Y-130750000D03*
X275850000Y-130750000D03*
X278390000Y-130750000D03*
%TD*%
D11*
%TO.C,TP3*%
X256260000Y-132790000D03*
%TD*%
D26*
%TO.C,C16*%
X249965000Y-126275000D03*
D24*
X249965000Y-123775000D03*
%TD*%
D11*
%TO.C,TP1*%
X229710000Y-117560000D03*
%TD*%
M02*
