%TF.GenerationSoftware,KiCad,Pcbnew,9.0.2*%
%TF.CreationDate,2026-09-04T17:54:41-07:00*%
%TF.ProjectId,bloo,626c6f6f-2e6b-4696-9361-645f70636258,rev?*%
%TF.SameCoordinates,Original*%
%TF.FileFunction,Legend,Bot*%
%TF.FilePolarity,Positive*%
%FSLAX46Y46*%
G04 Gerber Fmt 4.6, Leading zero omitted, Abs format (unit mm)*
G04 Created by KiCad (PCBNEW 9.0.2) date 2026-09-04 17:54:41*
%MOMM*%
%LPD*%
G01*
G04 APERTURE LIST*
G04 Aperture macros list*
%AMRoundRect*
0 Rectangle with rounded corners*
0 $1 Rounding radius*
0 $2 $3 $4 $5 $6 $7 $8 $9 X,Y pos of 4 corners*
0 Add a 4 corners polygon primitive as box body*
4,1,4,$2,$3,$4,$5,$6,$7,$8,$9,$2,$3,0*
0 Add four circle primitives for the rounded corners*
1,1,$1+$1,$2,$3*
1,1,$1+$1,$4,$5*
1,1,$1+$1,$6,$7*
1,1,$1+$1,$8,$9*
0 Add four rect primitives between the rounded corners*
20,1,$1+$1,$2,$3,$4,$5,0*
20,1,$1+$1,$4,$5,$6,$7,0*
20,1,$1+$1,$6,$7,$8,$9,0*
20,1,$1+$1,$8,$9,$2,$3,0*%
%AMRotRect*
0 Rectangle, with rotation*
0 The origin of the aperture is its center*
0 $1 length*
0 $2 width*
0 $3 Rotation angle, in degrees counterclockwise*
0 Add horizontal line*
21,1,$1,$2,0,0,$3*%
G04 Aperture macros list end*
%ADD10C,0.000000*%
%ADD11C,2.000000*%
%ADD12R,1.800000X1.800000*%
%ADD13C,1.800000*%
%ADD14C,2.200000*%
%ADD15R,1.700000X1.700000*%
%ADD16C,1.700000*%
%ADD17RotRect,1.800000X1.800000X120.000000*%
%ADD18C,2.184400*%
%ADD19RotRect,1.800000X1.800000X240.000000*%
%ADD20RoundRect,0.250000X0.600000X0.725000X-0.600000X0.725000X-0.600000X-0.725000X0.600000X-0.725000X0*%
%ADD21O,1.700000X1.950000*%
%ADD22C,3.000000*%
%ADD23RoundRect,0.250000X0.550000X0.550000X-0.550000X0.550000X-0.550000X-0.550000X0.550000X-0.550000X0*%
%ADD24C,1.600000*%
%ADD25RoundRect,0.250000X-0.550000X0.550000X-0.550000X-0.550000X0.550000X-0.550000X0.550000X0.550000X0*%
%ADD26RoundRect,0.250000X0.550000X-0.550000X0.550000X0.550000X-0.550000X0.550000X-0.550000X-0.550000X0*%
%ADD27RoundRect,0.750000X0.750000X-0.750000X0.750000X0.750000X-0.750000X0.750000X-0.750000X-0.750000X0*%
G04 APERTURE END LIST*
D10*
%TO.C,G\u002A\u002A\u002A*%
G36*
X250847678Y-96089772D02*
G01*
X250911648Y-96118468D01*
X250982759Y-96151970D01*
X251031377Y-96176879D01*
X251049515Y-96189257D01*
X251048387Y-96191948D01*
X251024569Y-96211289D01*
X250979434Y-96238221D01*
X250975137Y-96240527D01*
X250926829Y-96262508D01*
X250890574Y-96263068D01*
X250844476Y-96242979D01*
X250837502Y-96239393D01*
X250794524Y-96218314D01*
X250773313Y-96209707D01*
X250771934Y-96212097D01*
X250771036Y-96241756D01*
X250774571Y-96294442D01*
X250772182Y-96368755D01*
X250745728Y-96419978D01*
X250740175Y-96425994D01*
X250702079Y-96456670D01*
X250680318Y-96449206D01*
X250673319Y-96403241D01*
X250673227Y-96396017D01*
X250670921Y-96341036D01*
X250666155Y-96262003D01*
X250659785Y-96173462D01*
X250646377Y-96001220D01*
X250847678Y-96089772D01*
G37*
G36*
X262451273Y-90068450D02*
G01*
X262507472Y-90096664D01*
X262589018Y-90140081D01*
X262690540Y-90195667D01*
X262806668Y-90260387D01*
X262932033Y-90331209D01*
X263061263Y-90405098D01*
X263188990Y-90479020D01*
X263309841Y-90549941D01*
X263418449Y-90614828D01*
X263509441Y-90670647D01*
X263560473Y-90702782D01*
X263685006Y-90782820D01*
X263812929Y-90866993D01*
X263939423Y-90951946D01*
X264059673Y-91034322D01*
X264168860Y-91110768D01*
X264262168Y-91177925D01*
X264334780Y-91232440D01*
X264381880Y-91270956D01*
X264398651Y-91290118D01*
X264398592Y-91291713D01*
X264384629Y-91320873D01*
X264384250Y-91321223D01*
X264358289Y-91320101D01*
X264316631Y-91299191D01*
X264310452Y-91295113D01*
X264165988Y-91203378D01*
X263992605Y-91098848D01*
X263798843Y-90986272D01*
X263593246Y-90870401D01*
X263384357Y-90755984D01*
X263180718Y-90647770D01*
X262990871Y-90550509D01*
X262823360Y-90468951D01*
X262587776Y-90358257D01*
X262500994Y-90208364D01*
X262486320Y-90182721D01*
X262451695Y-90119248D01*
X262430147Y-90075054D01*
X262425851Y-90058472D01*
X262451273Y-90068450D01*
G37*
G36*
X253134511Y-99482868D02*
G01*
X253311642Y-99501376D01*
X253466608Y-99532726D01*
X253524637Y-99549308D01*
X253797591Y-99651140D01*
X254050047Y-99785416D01*
X254278645Y-99949437D01*
X254480022Y-100140504D01*
X254650815Y-100355920D01*
X254787663Y-100592986D01*
X254806224Y-100632262D01*
X254873972Y-100794779D01*
X254918183Y-100944153D01*
X254942444Y-101095143D01*
X254950339Y-101262508D01*
X254950242Y-101304217D01*
X254941994Y-101460030D01*
X254918323Y-101595084D01*
X254875534Y-101725268D01*
X254809936Y-101866469D01*
X254711184Y-102024976D01*
X254566471Y-102186812D01*
X254393123Y-102322579D01*
X254195075Y-102429768D01*
X253976259Y-102505870D01*
X253740611Y-102548377D01*
X253638134Y-102555941D01*
X253378161Y-102549420D01*
X253123359Y-102507935D01*
X252877034Y-102434218D01*
X252642494Y-102330998D01*
X252423047Y-102201007D01*
X252222000Y-102046975D01*
X252042662Y-101871632D01*
X251888339Y-101677709D01*
X251762340Y-101467937D01*
X251667972Y-101245045D01*
X251608542Y-101011765D01*
X251587359Y-100770827D01*
X251591934Y-100621199D01*
X251611940Y-100474104D01*
X251651083Y-100336455D01*
X251712883Y-100192012D01*
X251747656Y-100125774D01*
X251872468Y-99946911D01*
X252028852Y-99793339D01*
X252214126Y-99667004D01*
X252425609Y-99569854D01*
X252660617Y-99503836D01*
X252778476Y-99486696D01*
X252951396Y-99477781D01*
X253134511Y-99482868D01*
G37*
G36*
X256466916Y-92158074D02*
G01*
X256513246Y-92181221D01*
X256560997Y-92211933D01*
X256597113Y-92241668D01*
X256608538Y-92261883D01*
X256608350Y-92262322D01*
X256596458Y-92288178D01*
X256568653Y-92347873D01*
X256526702Y-92437634D01*
X256472371Y-92553689D01*
X256407426Y-92692268D01*
X256333636Y-92849598D01*
X256252765Y-93021907D01*
X256166582Y-93205425D01*
X256159026Y-93221516D01*
X256074034Y-93403643D01*
X255995476Y-93573979D01*
X255925000Y-93728808D01*
X255864255Y-93864418D01*
X255814889Y-93977094D01*
X255778550Y-94063123D01*
X255756888Y-94118791D01*
X255751551Y-94140384D01*
X255773344Y-94152515D01*
X255828804Y-94180264D01*
X255913553Y-94221510D01*
X256023246Y-94274169D01*
X256153538Y-94336153D01*
X256300083Y-94405378D01*
X256458535Y-94479756D01*
X256483862Y-94491611D01*
X256901514Y-94687623D01*
X257356643Y-94902171D01*
X257849222Y-95135239D01*
X258379221Y-95386815D01*
X258946611Y-95656884D01*
X259426121Y-95885407D01*
X259270911Y-95907263D01*
X259262833Y-95908427D01*
X259224513Y-95914375D01*
X259191949Y-95918730D01*
X259161176Y-95920020D01*
X259128226Y-95916775D01*
X259089131Y-95907523D01*
X259039924Y-95890793D01*
X258976639Y-95865114D01*
X258895308Y-95829014D01*
X258791964Y-95781022D01*
X258662640Y-95719668D01*
X258503369Y-95643480D01*
X258310183Y-95550987D01*
X258241678Y-95518280D01*
X258104376Y-95452961D01*
X257944555Y-95377158D01*
X257766238Y-95292764D01*
X257573447Y-95201670D01*
X257370207Y-95105768D01*
X257160541Y-95006949D01*
X256948470Y-94907105D01*
X256738019Y-94808128D01*
X256533211Y-94711909D01*
X256338068Y-94620340D01*
X256156613Y-94535314D01*
X255992871Y-94458721D01*
X255850863Y-94392453D01*
X255734613Y-94338401D01*
X255648144Y-94298459D01*
X255595479Y-94274517D01*
X255594116Y-94273909D01*
X255528878Y-94241905D01*
X255482418Y-94213608D01*
X255464713Y-94195079D01*
X255464795Y-94193840D01*
X255474723Y-94162621D01*
X255497989Y-94106173D01*
X255529968Y-94035786D01*
X255552872Y-93987260D01*
X255591690Y-93904920D01*
X255643437Y-93795092D01*
X255705631Y-93663051D01*
X255775787Y-93514072D01*
X255851421Y-93353429D01*
X255930048Y-93186396D01*
X255972472Y-93096309D01*
X256077742Y-92873310D01*
X256167009Y-92685164D01*
X256241401Y-92529569D01*
X256302049Y-92404225D01*
X256350083Y-92306830D01*
X256386633Y-92235084D01*
X256412829Y-92186686D01*
X256429801Y-92159334D01*
X256438680Y-92150729D01*
X256466916Y-92158074D01*
G37*
G36*
X255668561Y-101443131D02*
G01*
X255658040Y-101681640D01*
X255620413Y-101900646D01*
X255600895Y-101968355D01*
X255541894Y-102123064D01*
X255463939Y-102285260D01*
X255374434Y-102440274D01*
X255280783Y-102573439D01*
X255159593Y-102708188D01*
X254966662Y-102871897D01*
X254745269Y-103011352D01*
X254500212Y-103124068D01*
X254236286Y-103207555D01*
X253958288Y-103259326D01*
X253955000Y-103259730D01*
X253732101Y-103273039D01*
X253487886Y-103263364D01*
X253234752Y-103232222D01*
X252985091Y-103181129D01*
X252751298Y-103111604D01*
X252625236Y-103063898D01*
X252341083Y-102931215D01*
X252077218Y-102772731D01*
X251835170Y-102591328D01*
X251616472Y-102389889D01*
X251422652Y-102171297D01*
X251255242Y-101938435D01*
X251115772Y-101694185D01*
X251005772Y-101441430D01*
X250926774Y-101183053D01*
X250880306Y-100921937D01*
X250874021Y-100789716D01*
X251370096Y-100789716D01*
X251375743Y-100865273D01*
X251422103Y-101130962D01*
X251508776Y-101387520D01*
X251635065Y-101633522D01*
X251800276Y-101867542D01*
X252003712Y-102088154D01*
X252130384Y-102202107D01*
X252384916Y-102389816D01*
X252657561Y-102539832D01*
X252948084Y-102652035D01*
X253256251Y-102726305D01*
X253365388Y-102742291D01*
X253626620Y-102755912D01*
X253879833Y-102735231D01*
X254121165Y-102681882D01*
X254346757Y-102597499D01*
X254552747Y-102483716D01*
X254735274Y-102342166D01*
X254890478Y-102174483D01*
X255014497Y-101982301D01*
X255032559Y-101946636D01*
X255116460Y-101728051D01*
X255162420Y-101497147D01*
X255170825Y-101257619D01*
X255142063Y-101013160D01*
X255076523Y-100767462D01*
X254974590Y-100524218D01*
X254836653Y-100287122D01*
X254771519Y-100199739D01*
X254666023Y-100079179D01*
X254542430Y-99953986D01*
X254410583Y-99833531D01*
X254280325Y-99727185D01*
X254161498Y-99644319D01*
X254055822Y-99582032D01*
X253777525Y-99446882D01*
X253495710Y-99350483D01*
X253212940Y-99293244D01*
X252931779Y-99275576D01*
X252654791Y-99297888D01*
X252384540Y-99360589D01*
X252245156Y-99409770D01*
X252075419Y-99491638D01*
X251921705Y-99596663D01*
X251770036Y-99733320D01*
X251767168Y-99736195D01*
X251610697Y-99918478D01*
X251493745Y-100112354D01*
X251415322Y-100320440D01*
X251374436Y-100545354D01*
X251370096Y-100789716D01*
X250874021Y-100789716D01*
X250867901Y-100660964D01*
X250891087Y-100403017D01*
X250951397Y-100150979D01*
X251050359Y-99907733D01*
X251156933Y-99722228D01*
X251320920Y-99509982D01*
X251515590Y-99325704D01*
X251740167Y-99170002D01*
X251993875Y-99043485D01*
X252275937Y-98946762D01*
X252301817Y-98939815D01*
X252364042Y-98925340D01*
X252427843Y-98914851D01*
X252501272Y-98907697D01*
X252592381Y-98903233D01*
X252709224Y-98900809D01*
X252859853Y-98899778D01*
X252867105Y-98899755D01*
X253012098Y-98899698D01*
X253124452Y-98901057D01*
X253212980Y-98904598D01*
X253286497Y-98911089D01*
X253353818Y-98921297D01*
X253423755Y-98935990D01*
X253505124Y-98955933D01*
X253734113Y-99023650D01*
X254047726Y-99149473D01*
X254343053Y-99307162D01*
X254617016Y-99493999D01*
X254866537Y-99707265D01*
X255088541Y-99944241D01*
X255279948Y-100202207D01*
X255437681Y-100478446D01*
X255558664Y-100770237D01*
X255610865Y-100954869D01*
X255652621Y-101196935D01*
X255656550Y-101257619D01*
X255668561Y-101443131D01*
G37*
G36*
X264443436Y-100193125D02*
G01*
X264513567Y-100326186D01*
X264570844Y-100461452D01*
X264607418Y-100582524D01*
X264617778Y-100629320D01*
X264632914Y-100694943D01*
X264643420Y-100737123D01*
X264644412Y-100740872D01*
X264645206Y-100757354D01*
X264632783Y-100767106D01*
X264600004Y-100771184D01*
X264539733Y-100770648D01*
X264444829Y-100766556D01*
X264386864Y-100764524D01*
X264301448Y-100764488D01*
X264236191Y-100768156D01*
X264201886Y-100775147D01*
X264179898Y-100801616D01*
X264168678Y-100850327D01*
X264169577Y-100862262D01*
X264181590Y-100894341D01*
X264211773Y-100932885D01*
X264265402Y-100983873D01*
X264347751Y-101053282D01*
X264408668Y-101101233D01*
X264481784Y-101153747D01*
X264541130Y-101190774D01*
X264577772Y-101206365D01*
X264599040Y-101210271D01*
X264619802Y-101227600D01*
X264615565Y-101269133D01*
X264604030Y-101314517D01*
X264520789Y-101543792D01*
X264401697Y-101753412D01*
X264249054Y-101940467D01*
X264065159Y-102102048D01*
X263852310Y-102235244D01*
X263809680Y-102255864D01*
X263695136Y-102301279D01*
X263547502Y-102348772D01*
X263365074Y-102398796D01*
X263146144Y-102451801D01*
X262889006Y-102508238D01*
X262591954Y-102568558D01*
X262402943Y-102604851D01*
X262016190Y-102673233D01*
X261636592Y-102731717D01*
X261254383Y-102781517D01*
X260859800Y-102823844D01*
X260443077Y-102859909D01*
X259994450Y-102890926D01*
X259932585Y-102893756D01*
X259820573Y-102896699D01*
X259678117Y-102898871D01*
X259511631Y-102900296D01*
X259327530Y-102900998D01*
X259132228Y-102901001D01*
X258932140Y-102900329D01*
X258733680Y-102899006D01*
X258543262Y-102897056D01*
X258367301Y-102894502D01*
X258212212Y-102891369D01*
X258084408Y-102887680D01*
X257990305Y-102883460D01*
X257887321Y-102876926D01*
X257672043Y-102861023D01*
X257449177Y-102841872D01*
X257222513Y-102819998D01*
X256995843Y-102795921D01*
X256772957Y-102770165D01*
X256557646Y-102743252D01*
X256353703Y-102715703D01*
X256164916Y-102688043D01*
X255995079Y-102660792D01*
X255847981Y-102634473D01*
X255727413Y-102609609D01*
X255637167Y-102586722D01*
X255581034Y-102566334D01*
X255562805Y-102548969D01*
X255565869Y-102536475D01*
X255582212Y-102488461D01*
X255609064Y-102417640D01*
X255642579Y-102334361D01*
X255704047Y-102171938D01*
X255789378Y-101863884D01*
X255832995Y-101558416D01*
X255834959Y-101256180D01*
X255795332Y-100957823D01*
X255714176Y-100663991D01*
X255591554Y-100375332D01*
X255463449Y-100154434D01*
X261469560Y-100154434D01*
X261482658Y-100313120D01*
X261533615Y-100467450D01*
X261600739Y-100577318D01*
X261694227Y-100682981D01*
X261801004Y-100770116D01*
X261909513Y-100827647D01*
X262052108Y-100869428D01*
X262204952Y-100883731D01*
X262353954Y-100861230D01*
X262508449Y-100801517D01*
X262598905Y-100746213D01*
X262711040Y-100642744D01*
X262801843Y-100516934D01*
X262864667Y-100378535D01*
X262892868Y-100237302D01*
X262897462Y-100157240D01*
X262897463Y-100081800D01*
X262885898Y-100029881D01*
X262857592Y-99991141D01*
X262807376Y-99955240D01*
X262730076Y-99911838D01*
X262708677Y-99899960D01*
X262622348Y-99850038D01*
X262516082Y-99786439D01*
X262401367Y-99716100D01*
X262289692Y-99645958D01*
X262011458Y-99468714D01*
X261921996Y-99502880D01*
X261881702Y-99519798D01*
X261744185Y-99604205D01*
X261631633Y-99716276D01*
X261546626Y-99849607D01*
X261491742Y-99997795D01*
X261469560Y-100154434D01*
X255463449Y-100154434D01*
X255427527Y-100092491D01*
X255355936Y-99995652D01*
X255253778Y-99876221D01*
X255133104Y-99748160D01*
X255002042Y-99619434D01*
X254868719Y-99498006D01*
X254741266Y-99391842D01*
X254627810Y-99308907D01*
X254442895Y-99194536D01*
X254133230Y-99037716D01*
X253806701Y-98914740D01*
X253456147Y-98822637D01*
X253424796Y-98816348D01*
X253260853Y-98792595D01*
X253075470Y-98777825D01*
X252881078Y-98772167D01*
X252690110Y-98775753D01*
X252514997Y-98788713D01*
X252368173Y-98811178D01*
X252286248Y-98829628D01*
X251981905Y-98919441D01*
X251709152Y-99036014D01*
X251468241Y-99179181D01*
X251259425Y-99348770D01*
X251082957Y-99544614D01*
X250939090Y-99766544D01*
X250909537Y-99824544D01*
X250828582Y-100032353D01*
X250773833Y-100257251D01*
X250747994Y-100485562D01*
X250753771Y-100703609D01*
X250760683Y-100776425D01*
X250761710Y-100825083D01*
X250754996Y-100847053D01*
X250739806Y-100850067D01*
X250732199Y-100846479D01*
X250706713Y-100813963D01*
X250684401Y-100760366D01*
X250655569Y-100678613D01*
X250581965Y-100535634D01*
X250475058Y-100387553D01*
X250473124Y-100385183D01*
X250401687Y-100303547D01*
X250325085Y-100229111D01*
X250237733Y-100158008D01*
X250134048Y-100086373D01*
X250008447Y-100010340D01*
X249855346Y-99926043D01*
X249669161Y-99829617D01*
X249221635Y-99595163D01*
X248767596Y-99339225D01*
X248342593Y-99078887D01*
X247940032Y-98809916D01*
X247553317Y-98528079D01*
X247175853Y-98229141D01*
X247172030Y-98225989D01*
X247023599Y-98098569D01*
X246859445Y-97949254D01*
X246686451Y-97784945D01*
X246511499Y-97612542D01*
X246341474Y-97438945D01*
X246183259Y-97271054D01*
X246043737Y-97115771D01*
X245929791Y-96979995D01*
X245807353Y-96822536D01*
X245539193Y-96443398D01*
X245304094Y-96059433D01*
X245103981Y-95674214D01*
X244940779Y-95291312D01*
X244816413Y-94914300D01*
X244749248Y-94642435D01*
X244681388Y-94230557D01*
X244654795Y-93822378D01*
X244669139Y-93419150D01*
X244724091Y-93022130D01*
X244819319Y-92632571D01*
X244954494Y-92251727D01*
X245129287Y-91880853D01*
X245343367Y-91521204D01*
X245596404Y-91174033D01*
X245888068Y-90840596D01*
X245958631Y-90767861D01*
X246314224Y-90435821D01*
X246705910Y-90123109D01*
X247132513Y-89830379D01*
X247592859Y-89558286D01*
X248085772Y-89307486D01*
X248610077Y-89078632D01*
X249164598Y-88872381D01*
X249748160Y-88689387D01*
X249845616Y-88662323D01*
X249968173Y-88629806D01*
X250103195Y-88595155D01*
X250244063Y-88559961D01*
X250384158Y-88525815D01*
X250516864Y-88494309D01*
X250635561Y-88467035D01*
X250733631Y-88445582D01*
X250804456Y-88431544D01*
X250841419Y-88426511D01*
X250841893Y-88429822D01*
X250822909Y-88456651D01*
X250780011Y-88506931D01*
X250716977Y-88576448D01*
X250637588Y-88660988D01*
X250545621Y-88756337D01*
X250517669Y-88785056D01*
X250418324Y-88888504D01*
X250325488Y-88987176D01*
X250244908Y-89074842D01*
X250182327Y-89145276D01*
X250143490Y-89192249D01*
X250127415Y-89213289D01*
X250096712Y-89249766D01*
X250064283Y-89278914D01*
X250022607Y-89305055D01*
X249964163Y-89332512D01*
X249881429Y-89365605D01*
X249766884Y-89408658D01*
X249504394Y-89510493D01*
X249030192Y-89717953D01*
X248591951Y-89942119D01*
X248190047Y-90182638D01*
X247824856Y-90439153D01*
X247496754Y-90711311D01*
X247206118Y-90998756D01*
X246953323Y-91301134D01*
X246738747Y-91618089D01*
X246562764Y-91949266D01*
X246425752Y-92294312D01*
X246328086Y-92652870D01*
X246313087Y-92742125D01*
X246298394Y-92890877D01*
X246289969Y-93062600D01*
X246287723Y-93246739D01*
X246291564Y-93432743D01*
X246301404Y-93610059D01*
X246317152Y-93768134D01*
X246338717Y-93896415D01*
X246408885Y-94167124D01*
X246546434Y-94559397D01*
X246725250Y-94946971D01*
X246945116Y-95329565D01*
X247205816Y-95706898D01*
X247507135Y-96078687D01*
X247848854Y-96444653D01*
X248230759Y-96804512D01*
X248652633Y-97157985D01*
X249114258Y-97504790D01*
X249172331Y-97545616D01*
X249269028Y-97611810D01*
X249375581Y-97683135D01*
X249486421Y-97756026D01*
X249595978Y-97826918D01*
X249698682Y-97892247D01*
X249788965Y-97948447D01*
X249861256Y-97991955D01*
X249909987Y-98019206D01*
X249929587Y-98026634D01*
X249932934Y-98020843D01*
X249951880Y-97984447D01*
X249984323Y-97920558D01*
X250026879Y-97835865D01*
X250076161Y-97737055D01*
X250175031Y-97543830D01*
X250310462Y-97300620D01*
X250444138Y-97088966D01*
X250580498Y-96903449D01*
X250723981Y-96738648D01*
X250879027Y-96589146D01*
X251050075Y-96449522D01*
X251241564Y-96314357D01*
X251443927Y-96187170D01*
X251767658Y-96010655D01*
X252095274Y-95863343D01*
X252419814Y-95748244D01*
X252734318Y-95668371D01*
X252907799Y-95638211D01*
X253238179Y-95601021D01*
X253597241Y-95583619D01*
X253979941Y-95585690D01*
X254381235Y-95606919D01*
X254796079Y-95646988D01*
X255219429Y-95705584D01*
X255646240Y-95782391D01*
X256071468Y-95877093D01*
X256209348Y-95912697D01*
X256373430Y-95958702D01*
X256548884Y-96011008D01*
X256731420Y-96068088D01*
X256916752Y-96128416D01*
X257100592Y-96190462D01*
X257278653Y-96252700D01*
X257446648Y-96313601D01*
X257600288Y-96371638D01*
X257735288Y-96425283D01*
X257847358Y-96473009D01*
X257932212Y-96513287D01*
X257985563Y-96544590D01*
X258003122Y-96565391D01*
X257994261Y-96597633D01*
X257973169Y-96656407D01*
X257944687Y-96727705D01*
X257897088Y-96850404D01*
X257842451Y-97036873D01*
X257811894Y-97225214D01*
X257801721Y-97433677D01*
X257802617Y-97507940D01*
X257825596Y-97742244D01*
X257881142Y-97954914D01*
X257971573Y-98151360D01*
X258099210Y-98336991D01*
X258266373Y-98517217D01*
X258293130Y-98542576D01*
X258368200Y-98611235D01*
X258426643Y-98661134D01*
X258465924Y-98690874D01*
X258483507Y-98699057D01*
X258476857Y-98684284D01*
X258443437Y-98645157D01*
X258380713Y-98580277D01*
X258354712Y-98553816D01*
X258183169Y-98350095D01*
X258050915Y-98135670D01*
X257958435Y-97912003D01*
X257906213Y-97680557D01*
X257894731Y-97442793D01*
X257924472Y-97200175D01*
X257983442Y-96995128D01*
X258083814Y-96784069D01*
X258218511Y-96594232D01*
X258385328Y-96428175D01*
X258582057Y-96288457D01*
X258806491Y-96177635D01*
X258878491Y-96151219D01*
X259084517Y-96098092D01*
X259304489Y-96069395D01*
X259526766Y-96065575D01*
X259739710Y-96087081D01*
X259931682Y-96134360D01*
X260089060Y-96197183D01*
X260317918Y-96324507D01*
X260530878Y-96487325D01*
X260725618Y-96682872D01*
X260899822Y-96908383D01*
X261051168Y-97161094D01*
X261177339Y-97438239D01*
X261276015Y-97737055D01*
X261276677Y-97739488D01*
X261303212Y-97847833D01*
X261319856Y-97947271D01*
X261328703Y-98054669D01*
X261331845Y-98186890D01*
X261331399Y-98280879D01*
X261328588Y-98382810D01*
X261323813Y-98467100D01*
X261317592Y-98521651D01*
X261301689Y-98605341D01*
X261335009Y-98545786D01*
X261349670Y-98513681D01*
X261373420Y-98443327D01*
X261393016Y-98365208D01*
X261417702Y-98244186D01*
X262055582Y-98608818D01*
X262337577Y-98770265D01*
X262643134Y-98945957D01*
X262915804Y-99103763D01*
X263157622Y-99244973D01*
X263370621Y-99370875D01*
X263556834Y-99482758D01*
X263718294Y-99581911D01*
X263857036Y-99669624D01*
X263975091Y-99747186D01*
X264074494Y-99815885D01*
X264157278Y-99877011D01*
X264225476Y-99931852D01*
X264281121Y-99981698D01*
X264326247Y-100027837D01*
X264362887Y-100071560D01*
X264368298Y-100078668D01*
X264370354Y-100081800D01*
X264443436Y-100193125D01*
G37*
G36*
X256067308Y-86940769D02*
G01*
X256136026Y-86973026D01*
X256225295Y-87013196D01*
X256327769Y-87057875D01*
X256378279Y-87079737D01*
X256471985Y-87121270D01*
X256547151Y-87155900D01*
X256597101Y-87180513D01*
X256615163Y-87191994D01*
X256597485Y-87200902D01*
X256547080Y-87218394D01*
X256471867Y-87241738D01*
X256379784Y-87268360D01*
X256313925Y-87287518D01*
X256184215Y-87328215D01*
X256054849Y-87371910D01*
X255945932Y-87411948D01*
X255877504Y-87440141D01*
X255784525Y-87480873D01*
X255679013Y-87528824D01*
X255568218Y-87580526D01*
X255459389Y-87632514D01*
X255359778Y-87681321D01*
X255276632Y-87723480D01*
X255217203Y-87755526D01*
X255188740Y-87773992D01*
X255200165Y-87783476D01*
X255245444Y-87808465D01*
X255321021Y-87846641D01*
X255422694Y-87895966D01*
X255546256Y-87954404D01*
X255687504Y-88019919D01*
X255842233Y-88090475D01*
X255980024Y-88152864D01*
X256130435Y-88221342D01*
X256248831Y-88276019D01*
X256338722Y-88318779D01*
X256403614Y-88351503D01*
X256447016Y-88376073D01*
X256472435Y-88394373D01*
X256483380Y-88408283D01*
X256483359Y-88419687D01*
X256475878Y-88430467D01*
X256448821Y-88454131D01*
X256416002Y-88468356D01*
X256396491Y-88461878D01*
X256342419Y-88439838D01*
X256258757Y-88404076D01*
X256150009Y-88356562D01*
X256020680Y-88299266D01*
X255875275Y-88234158D01*
X255718300Y-88163208D01*
X255046184Y-87858060D01*
X254936379Y-87925465D01*
X254836617Y-87988776D01*
X254602877Y-88150899D01*
X254357567Y-88337987D01*
X254108730Y-88543274D01*
X253864403Y-88759991D01*
X253632629Y-88981371D01*
X253421446Y-89200646D01*
X253392106Y-89232822D01*
X253285530Y-89352772D01*
X253175273Y-89481079D01*
X253064438Y-89613739D01*
X252956129Y-89746750D01*
X252853448Y-89876109D01*
X252759498Y-89997813D01*
X252677383Y-90107860D01*
X252610204Y-90202248D01*
X252561067Y-90276972D01*
X252533072Y-90328032D01*
X252529324Y-90351424D01*
X252529457Y-90351531D01*
X252552516Y-90363371D01*
X252609821Y-90390615D01*
X252697598Y-90431527D01*
X252812070Y-90484367D01*
X252949460Y-90547400D01*
X253105992Y-90618886D01*
X253277890Y-90697090D01*
X253461377Y-90780272D01*
X253470741Y-90784510D01*
X253652991Y-90867093D01*
X253822896Y-90944264D01*
X253976772Y-91014336D01*
X254110934Y-91075623D01*
X254221697Y-91126439D01*
X254305375Y-91165096D01*
X254358284Y-91189909D01*
X254376740Y-91199191D01*
X254368809Y-91214877D01*
X254344002Y-91260224D01*
X254306345Y-91327764D01*
X254259963Y-91410050D01*
X254219513Y-91481986D01*
X253983430Y-91921631D01*
X253749793Y-92389299D01*
X253524059Y-92873356D01*
X253311687Y-93362170D01*
X253118133Y-93844106D01*
X253107195Y-93872735D01*
X253062570Y-93992013D01*
X253013253Y-94127014D01*
X252961641Y-94270865D01*
X252910129Y-94416692D01*
X252861113Y-94557624D01*
X252816989Y-94686785D01*
X252780152Y-94797304D01*
X252752998Y-94882307D01*
X252737922Y-94934921D01*
X252735202Y-94949850D01*
X252737575Y-94966597D01*
X252750617Y-94983895D01*
X252778910Y-95004512D01*
X252827038Y-95031216D01*
X252899583Y-95066775D01*
X253001127Y-95113957D01*
X253136253Y-95175531D01*
X253547570Y-95362343D01*
X253392015Y-95379919D01*
X253236460Y-95397495D01*
X252958363Y-95271010D01*
X252680266Y-95144524D01*
X252660216Y-95197258D01*
X252646842Y-95235284D01*
X252640166Y-95261103D01*
X252637445Y-95274923D01*
X252625755Y-95319926D01*
X252607978Y-95382935D01*
X252591534Y-95435505D01*
X252570517Y-95477230D01*
X252539798Y-95499928D01*
X252488349Y-95515853D01*
X252465065Y-95521424D01*
X252416257Y-95530415D01*
X252393248Y-95530389D01*
X252393112Y-95516510D01*
X252402847Y-95466875D01*
X252422612Y-95386685D01*
X252450864Y-95281310D01*
X252486058Y-95156119D01*
X252526653Y-95016480D01*
X252571105Y-94867762D01*
X252617871Y-94715335D01*
X252665407Y-94564567D01*
X252712170Y-94420827D01*
X252758749Y-94282371D01*
X253011952Y-93591186D01*
X253297861Y-92902573D01*
X253611324Y-92228384D01*
X253947188Y-91580469D01*
X253979097Y-91521814D01*
X254028892Y-91428638D01*
X254068733Y-91351976D01*
X254095168Y-91298518D01*
X254104746Y-91274956D01*
X254099291Y-91270806D01*
X254062125Y-91250978D01*
X253993490Y-91217080D01*
X253897734Y-91171118D01*
X253779204Y-91115102D01*
X253642245Y-91051038D01*
X253491205Y-90980934D01*
X253330431Y-90906799D01*
X253164270Y-90830639D01*
X252997068Y-90754463D01*
X252833172Y-90680279D01*
X252676928Y-90610094D01*
X252532685Y-90545915D01*
X252404787Y-90489751D01*
X252348034Y-90463482D01*
X252302102Y-90438737D01*
X252284483Y-90424243D01*
X252290453Y-90410776D01*
X252317878Y-90366993D01*
X252363932Y-90299305D01*
X252424615Y-90213205D01*
X252495924Y-90114188D01*
X252573860Y-90007747D01*
X252654421Y-89899377D01*
X252733608Y-89794573D01*
X252807418Y-89698828D01*
X252871851Y-89617637D01*
X252880590Y-89606915D01*
X252977517Y-89493678D01*
X253097607Y-89361285D01*
X253234536Y-89216077D01*
X253381977Y-89064399D01*
X253533603Y-88912592D01*
X253683088Y-88767000D01*
X253824106Y-88633966D01*
X253950331Y-88519832D01*
X254055435Y-88430942D01*
X254160664Y-88347909D01*
X254566874Y-88052882D01*
X254975916Y-87795762D01*
X255386073Y-87577485D01*
X255795626Y-87398986D01*
X256202857Y-87261202D01*
X256262689Y-87243354D01*
X256336640Y-87219391D01*
X256387282Y-87200529D01*
X256406096Y-87189763D01*
X256402961Y-87186463D01*
X256371077Y-87168244D01*
X256310267Y-87138236D01*
X256227314Y-87099714D01*
X256129005Y-87055956D01*
X256013699Y-87006309D01*
X255922792Y-86971157D01*
X255847184Y-86950209D01*
X255775601Y-86942223D01*
X255696769Y-86945958D01*
X255599412Y-86960172D01*
X255472256Y-86983623D01*
X255181439Y-87045732D01*
X254680949Y-87185890D01*
X254192001Y-87365339D01*
X253716691Y-87582979D01*
X253257112Y-87837707D01*
X252815358Y-88128423D01*
X252393523Y-88454024D01*
X251993701Y-88813410D01*
X251807481Y-88998107D01*
X251591875Y-89226093D01*
X251399905Y-89447438D01*
X251224398Y-89670132D01*
X251159332Y-89755318D01*
X251106506Y-89819706D01*
X251068508Y-89858335D01*
X251040755Y-89875804D01*
X251018667Y-89876716D01*
X250993227Y-89868771D01*
X250969550Y-89858554D01*
X250974103Y-89847509D01*
X250999011Y-89809136D01*
X251040873Y-89750274D01*
X251094724Y-89678081D01*
X251378627Y-89328536D01*
X251729257Y-88950364D01*
X252105524Y-88595805D01*
X252502999Y-88268475D01*
X252917253Y-87971993D01*
X253343858Y-87709976D01*
X253778386Y-87486040D01*
X253985551Y-87389481D01*
X253837888Y-87331547D01*
X253690224Y-87273614D01*
X253487976Y-87349364D01*
X253452040Y-87362918D01*
X252963813Y-87567244D01*
X252504262Y-87799220D01*
X252069283Y-88061527D01*
X251654771Y-88356842D01*
X251256622Y-88687843D01*
X250870732Y-89057209D01*
X250655792Y-89285958D01*
X250372521Y-89622735D01*
X250119846Y-89970908D01*
X249891212Y-90339731D01*
X249680068Y-90738455D01*
X249666571Y-90765998D01*
X249606651Y-90889462D01*
X249551891Y-91004111D01*
X249505658Y-91102780D01*
X249471316Y-91178305D01*
X249452230Y-91223521D01*
X249419537Y-91311058D01*
X249497273Y-91336294D01*
X249528881Y-91347858D01*
X249597275Y-91375064D01*
X249693753Y-91414693D01*
X249813873Y-91464833D01*
X249953193Y-91523569D01*
X250107270Y-91588985D01*
X250271664Y-91659168D01*
X250441933Y-91732203D01*
X250613634Y-91806176D01*
X250782327Y-91879173D01*
X250943568Y-91949278D01*
X251092917Y-92014577D01*
X251225932Y-92073157D01*
X251338171Y-92123102D01*
X251425192Y-92162498D01*
X251482553Y-92189431D01*
X251505812Y-92201987D01*
X251505344Y-92210804D01*
X251493646Y-92251351D01*
X251470850Y-92316534D01*
X251439932Y-92397525D01*
X251330552Y-92690752D01*
X251218031Y-93027750D01*
X251114692Y-93373781D01*
X251024936Y-93714049D01*
X250953164Y-94033760D01*
X250946694Y-94065780D01*
X250926362Y-94164892D01*
X250909285Y-94245894D01*
X250897095Y-94301140D01*
X250891425Y-94322988D01*
X250890755Y-94323462D01*
X250867856Y-94317628D01*
X250824803Y-94297826D01*
X250763047Y-94265891D01*
X250801642Y-94060904D01*
X250851939Y-93819307D01*
X250915929Y-93552690D01*
X250989440Y-93277105D01*
X251068574Y-93007164D01*
X251149432Y-92757483D01*
X251153255Y-92746326D01*
X251194637Y-92625514D01*
X251231606Y-92517499D01*
X251261874Y-92428979D01*
X251283151Y-92366650D01*
X251293145Y-92337208D01*
X251293294Y-92336749D01*
X251287847Y-92312284D01*
X251252629Y-92284895D01*
X251182366Y-92250450D01*
X251158106Y-92239787D01*
X251086537Y-92208323D01*
X250987719Y-92164876D01*
X250868896Y-92112629D01*
X250737313Y-92054769D01*
X250600216Y-91994482D01*
X250450250Y-91928830D01*
X250260741Y-91846689D01*
X250078889Y-91768742D01*
X249909065Y-91696811D01*
X249755640Y-91632719D01*
X249622986Y-91578290D01*
X249515474Y-91535345D01*
X249437477Y-91505709D01*
X249393364Y-91491204D01*
X249379637Y-91488077D01*
X249360533Y-91487703D01*
X249344135Y-91498508D01*
X249327344Y-91526224D01*
X249307061Y-91576585D01*
X249280186Y-91655324D01*
X249243620Y-91768172D01*
X249188730Y-91948966D01*
X249085631Y-92359995D01*
X249005639Y-92788897D01*
X248951401Y-93222490D01*
X248942129Y-93321353D01*
X249054069Y-93363235D01*
X249071360Y-93369724D01*
X249227289Y-93430186D01*
X249362334Y-93486081D01*
X249472742Y-93535644D01*
X249554762Y-93577111D01*
X249604640Y-93608718D01*
X249618625Y-93628700D01*
X249618157Y-93630199D01*
X249613237Y-93664040D01*
X249606608Y-93731903D01*
X249598839Y-93826893D01*
X249590500Y-93942117D01*
X249582158Y-94070683D01*
X249570087Y-94399081D01*
X249583569Y-94928063D01*
X249636704Y-95457959D01*
X249728742Y-95983815D01*
X249858933Y-96500679D01*
X250026527Y-97003599D01*
X250054108Y-97080986D01*
X250078102Y-97158487D01*
X250091164Y-97214333D01*
X250090953Y-97239942D01*
X250080269Y-97237001D01*
X250057107Y-97201744D01*
X250025596Y-97135204D01*
X249987542Y-97042534D01*
X249944751Y-96928886D01*
X249899028Y-96799411D01*
X249852180Y-96659262D01*
X249806011Y-96513591D01*
X249762329Y-96367550D01*
X249722937Y-96226291D01*
X249689644Y-96094966D01*
X249653308Y-95936167D01*
X249601124Y-95675829D01*
X249561245Y-95423743D01*
X249532649Y-95170014D01*
X249514315Y-94904748D01*
X249505221Y-94618050D01*
X249504346Y-94300025D01*
X249504995Y-94172647D01*
X249504481Y-94027388D01*
X249502583Y-93904978D01*
X249499420Y-93810164D01*
X249495111Y-93747691D01*
X249489776Y-93722307D01*
X249485983Y-93719568D01*
X249449748Y-93701149D01*
X249386246Y-93673055D01*
X249304867Y-93639025D01*
X249214999Y-93602797D01*
X249126032Y-93568111D01*
X249047353Y-93538706D01*
X248988352Y-93518321D01*
X248958418Y-93510696D01*
X248954478Y-93513436D01*
X248945868Y-93547082D01*
X248940285Y-93614356D01*
X248937549Y-93709332D01*
X248937479Y-93826087D01*
X248939894Y-93958697D01*
X248944614Y-94101240D01*
X248951456Y-94247789D01*
X248960241Y-94392423D01*
X248970786Y-94529217D01*
X248982913Y-94652246D01*
X248996439Y-94755589D01*
X249067534Y-95145840D01*
X249193004Y-95653120D01*
X249352545Y-96143492D01*
X249544780Y-96612845D01*
X249768328Y-97057071D01*
X249794922Y-97104327D01*
X249840472Y-97179112D01*
X249878415Y-97228650D01*
X249915822Y-97261391D01*
X249959766Y-97285784D01*
X249986436Y-97298908D01*
X250027259Y-97323166D01*
X250040610Y-97338091D01*
X250037966Y-97343258D01*
X250020038Y-97378393D01*
X249989751Y-97437789D01*
X249951853Y-97512137D01*
X249935452Y-97543859D01*
X249899156Y-97610621D01*
X249871378Y-97656946D01*
X249857114Y-97674287D01*
X249841623Y-97658751D01*
X249809225Y-97612017D01*
X249763804Y-97539986D01*
X249708833Y-97448625D01*
X249647786Y-97343897D01*
X249584138Y-97231767D01*
X249521362Y-97118200D01*
X249462933Y-97009161D01*
X249412324Y-96910613D01*
X249400348Y-96886490D01*
X249180924Y-96397197D01*
X249002005Y-95898957D01*
X248863320Y-95390600D01*
X248764596Y-94870958D01*
X248705561Y-94338864D01*
X248685944Y-93793150D01*
X248686096Y-93744238D01*
X248708988Y-93201059D01*
X248771045Y-92671745D01*
X248872653Y-92154891D01*
X249014201Y-91649095D01*
X249196076Y-91152951D01*
X249418666Y-90665056D01*
X249682358Y-90184007D01*
X249850592Y-89915455D01*
X250161092Y-89481426D01*
X250503179Y-89072665D01*
X250874705Y-88690648D01*
X251273520Y-88336850D01*
X251697473Y-88012748D01*
X252144416Y-87719817D01*
X252612198Y-87459533D01*
X253098671Y-87233372D01*
X253130011Y-87221499D01*
X253895120Y-87221499D01*
X253923263Y-87243058D01*
X253989947Y-87272259D01*
X254044601Y-87291644D01*
X254105767Y-87309432D01*
X254143222Y-87315435D01*
X254146229Y-87315066D01*
X254184205Y-87305253D01*
X254251442Y-87284321D01*
X254339392Y-87255020D01*
X254439507Y-87220101D01*
X254722301Y-87127584D01*
X255066851Y-87034162D01*
X255403729Y-86962736D01*
X255405050Y-86962499D01*
X255492558Y-86945222D01*
X255540155Y-86932377D01*
X255549541Y-86924176D01*
X255522415Y-86920832D01*
X255460478Y-86922560D01*
X255365430Y-86929571D01*
X255238971Y-86942078D01*
X255212529Y-86945042D01*
X255077316Y-86962654D01*
X254925899Y-86985700D01*
X254764678Y-87012896D01*
X254600051Y-87042954D01*
X254438420Y-87074588D01*
X254286182Y-87106513D01*
X254149738Y-87137441D01*
X254035487Y-87166086D01*
X253949830Y-87191162D01*
X253899164Y-87211383D01*
X253895120Y-87221499D01*
X253130011Y-87221499D01*
X253601684Y-87042809D01*
X254119088Y-86889321D01*
X254648733Y-86774383D01*
X254681717Y-86768616D01*
X255106175Y-86710377D01*
X255552556Y-86676506D01*
X256009693Y-86666962D01*
X256466423Y-86681706D01*
X256911582Y-86720699D01*
X257334005Y-86783901D01*
X257716279Y-86865115D01*
X258242847Y-87012643D01*
X258753884Y-87197757D01*
X259247558Y-87419160D01*
X259722037Y-87675552D01*
X260175489Y-87965634D01*
X260606083Y-88288110D01*
X261011987Y-88641679D01*
X261391369Y-89025044D01*
X261742397Y-89436906D01*
X262063239Y-89875966D01*
X262352064Y-90340926D01*
X262512000Y-90639767D01*
X262723975Y-91105382D01*
X262903205Y-91590918D01*
X263047895Y-92090687D01*
X263156246Y-92598995D01*
X263226462Y-93110153D01*
X263232657Y-93188182D01*
X263239539Y-93327477D01*
X263244233Y-93492168D01*
X263246740Y-93672657D01*
X263247059Y-93859345D01*
X263245191Y-94042636D01*
X263241135Y-94212932D01*
X263234892Y-94360635D01*
X263226462Y-94476148D01*
X263220082Y-94537904D01*
X263141420Y-95075899D01*
X263022704Y-95602184D01*
X262864305Y-96115809D01*
X262666593Y-96615827D01*
X262429938Y-97101287D01*
X262154711Y-97571241D01*
X261841283Y-98024740D01*
X261786925Y-98096568D01*
X261737653Y-98159744D01*
X261702566Y-98202532D01*
X261686973Y-98218274D01*
X261686410Y-98218257D01*
X261674668Y-98214367D01*
X261649271Y-98200785D01*
X261602935Y-98173362D01*
X261528374Y-98127949D01*
X261472183Y-98093538D01*
X261658402Y-97845397D01*
X261950937Y-97422777D01*
X262216358Y-96967836D01*
X262445252Y-96494281D01*
X262636654Y-96004590D01*
X262789598Y-95501241D01*
X262903120Y-94986710D01*
X262976254Y-94463476D01*
X262985252Y-94345613D01*
X262992421Y-94186197D01*
X262996792Y-94005160D01*
X262998363Y-93813018D01*
X262997130Y-93620289D01*
X262993092Y-93437489D01*
X262986246Y-93275136D01*
X262976588Y-93143747D01*
X262944950Y-92875042D01*
X262852189Y-92350212D01*
X262720015Y-91839068D01*
X262548741Y-91342290D01*
X262338677Y-90860557D01*
X262090137Y-90394549D01*
X261803432Y-89944943D01*
X261478875Y-89512419D01*
X261116777Y-89097656D01*
X261046519Y-89022804D01*
X261103021Y-89102405D01*
X261165533Y-89191054D01*
X261240380Y-89299012D01*
X261301228Y-89388986D01*
X261345445Y-89456998D01*
X261370397Y-89499067D01*
X261373452Y-89511213D01*
X261246798Y-89451084D01*
X261044721Y-89353360D01*
X260880171Y-89271103D01*
X260752429Y-89203928D01*
X260660775Y-89151453D01*
X260604492Y-89113293D01*
X260582858Y-89089064D01*
X260577541Y-89061648D01*
X260578875Y-89038159D01*
X260591951Y-89041802D01*
X260637106Y-89061151D01*
X260708418Y-89094271D01*
X260799654Y-89138252D01*
X260904581Y-89190185D01*
X260988179Y-89231652D01*
X261082878Y-89277532D01*
X261158996Y-89313147D01*
X261210294Y-89335592D01*
X261230536Y-89341962D01*
X261230771Y-89339477D01*
X261216330Y-89312152D01*
X261181912Y-89261169D01*
X261132687Y-89193298D01*
X261073823Y-89115305D01*
X261010487Y-89033960D01*
X260947848Y-88956030D01*
X260891073Y-88888283D01*
X260845331Y-88837488D01*
X260811335Y-88803169D01*
X260707624Y-88706094D01*
X260580944Y-88595482D01*
X260439618Y-88478303D01*
X260291970Y-88361528D01*
X260146324Y-88252128D01*
X260094254Y-88214918D01*
X260001253Y-88151006D01*
X259900186Y-88083952D01*
X259797156Y-88017559D01*
X259698264Y-87955627D01*
X259609613Y-87901955D01*
X259537304Y-87860343D01*
X259487440Y-87834594D01*
X259466124Y-87828506D01*
X259465970Y-87828703D01*
X259471362Y-87851075D01*
X259491804Y-87899880D01*
X259523036Y-87964915D01*
X259547400Y-88017576D01*
X259597750Y-88153071D01*
X259644422Y-88312725D01*
X259684120Y-88484575D01*
X259713551Y-88656659D01*
X259714561Y-88664445D01*
X259721252Y-88743642D01*
X259726597Y-88856059D01*
X259730514Y-88994120D01*
X259732923Y-89150247D01*
X259733741Y-89316865D01*
X259732888Y-89486398D01*
X259730283Y-89651268D01*
X259725845Y-89803900D01*
X259722456Y-89894551D01*
X260109524Y-90078307D01*
X260135625Y-90090712D01*
X260247891Y-90144300D01*
X260380536Y-90207907D01*
X260529411Y-90279518D01*
X260690369Y-90357121D01*
X260859261Y-90438703D01*
X261031939Y-90522251D01*
X261204254Y-90605753D01*
X261372058Y-90687195D01*
X261531203Y-90764564D01*
X261677541Y-90835848D01*
X261806922Y-90899034D01*
X261915199Y-90952108D01*
X261998223Y-90993058D01*
X262051846Y-91019870D01*
X262071920Y-91030533D01*
X262074777Y-91035108D01*
X262088547Y-91073302D01*
X262108500Y-91142045D01*
X262132683Y-91233547D01*
X262159140Y-91340017D01*
X262185920Y-91453664D01*
X262211067Y-91566698D01*
X262232628Y-91671328D01*
X262248830Y-91756922D01*
X262321952Y-92252445D01*
X262361597Y-92761102D01*
X262365214Y-92842369D01*
X262368950Y-92939349D01*
X262369833Y-93003961D01*
X262367320Y-93041967D01*
X262360867Y-93059127D01*
X262349930Y-93061203D01*
X262333965Y-93053958D01*
X262331995Y-93052875D01*
X262316282Y-93040341D01*
X262304704Y-93018815D01*
X262296196Y-92981729D01*
X262289693Y-92922518D01*
X262284130Y-92834613D01*
X262278444Y-92711447D01*
X262270930Y-92560439D01*
X262247970Y-92258011D01*
X262214023Y-91973411D01*
X262166995Y-91690755D01*
X262104791Y-91394162D01*
X262049113Y-91150199D01*
X261401107Y-90832536D01*
X261343838Y-90804484D01*
X261142900Y-90706378D01*
X260936825Y-90606211D01*
X260730359Y-90506261D01*
X260528247Y-90408800D01*
X260335235Y-90316107D01*
X260156068Y-90230455D01*
X259995493Y-90154120D01*
X259858253Y-90089379D01*
X259749096Y-90038506D01*
X259672766Y-90003777D01*
X259669876Y-90002493D01*
X259608516Y-89973642D01*
X259577393Y-89951155D01*
X259568442Y-89925566D01*
X259573596Y-89887411D01*
X259576482Y-89872115D01*
X259589882Y-89781852D01*
X259603729Y-89661258D01*
X259617119Y-89519695D01*
X259629147Y-89366525D01*
X259638910Y-89211107D01*
X259642971Y-89093940D01*
X259640679Y-88897189D01*
X259628287Y-88698395D01*
X259606858Y-88503814D01*
X259577457Y-88319704D01*
X259541145Y-88152324D01*
X259498987Y-88007931D01*
X259452045Y-87892783D01*
X259401384Y-87813138D01*
X259400436Y-87812106D01*
X259367189Y-87787868D01*
X259304953Y-87751398D01*
X259222284Y-87707461D01*
X259127740Y-87660819D01*
X259116721Y-87655569D01*
X259026164Y-87611465D01*
X258950788Y-87573113D01*
X258898182Y-87544472D01*
X258875938Y-87529500D01*
X258857827Y-87516466D01*
X258807213Y-87491237D01*
X258734428Y-87459450D01*
X258649128Y-87424879D01*
X258560972Y-87391295D01*
X258479616Y-87362472D01*
X258414720Y-87342180D01*
X258375939Y-87334193D01*
X258276951Y-87341149D01*
X258143042Y-87368263D01*
X257989609Y-87414057D01*
X257970478Y-87420652D01*
X257870009Y-87457898D01*
X257773812Y-87497407D01*
X257688895Y-87535862D01*
X257622267Y-87569944D01*
X257580938Y-87596338D01*
X257571918Y-87611726D01*
X257571951Y-87611755D01*
X257594902Y-87624321D01*
X257650774Y-87651787D01*
X257734440Y-87691727D01*
X257840777Y-87741716D01*
X257964657Y-87799326D01*
X258100957Y-87862133D01*
X258104407Y-87863716D01*
X258239666Y-87925837D01*
X258361748Y-87982031D01*
X258465678Y-88029997D01*
X258546485Y-88067437D01*
X258599193Y-88092051D01*
X258618830Y-88101540D01*
X258614951Y-88111376D01*
X258594745Y-88154971D01*
X258558777Y-88230312D01*
X258508683Y-88334034D01*
X258446100Y-88462773D01*
X258372665Y-88613162D01*
X258290016Y-88781837D01*
X258199789Y-88965432D01*
X258103622Y-89160584D01*
X258047513Y-89274359D01*
X257950007Y-89472384D01*
X257857105Y-89661435D01*
X257770801Y-89837433D01*
X257693086Y-89996305D01*
X257625954Y-90133973D01*
X257571397Y-90246362D01*
X257531407Y-90329395D01*
X257507978Y-90378997D01*
X257432812Y-90542603D01*
X257541967Y-90591183D01*
X257545492Y-90592758D01*
X257599506Y-90617467D01*
X257687188Y-90658195D01*
X257804801Y-90713175D01*
X257948608Y-90780642D01*
X258114873Y-90858831D01*
X258299859Y-90945975D01*
X258499829Y-91040309D01*
X258711048Y-91140067D01*
X258929777Y-91243484D01*
X259152282Y-91348793D01*
X259374824Y-91454230D01*
X259593668Y-91558029D01*
X259805077Y-91658424D01*
X260005314Y-91753649D01*
X260190643Y-91841939D01*
X260357327Y-91921527D01*
X261117733Y-92285129D01*
X261104023Y-92421924D01*
X261081886Y-92614521D01*
X261035596Y-92930197D01*
X260976464Y-93260208D01*
X260907139Y-93590189D01*
X260830271Y-93905776D01*
X260821655Y-93938845D01*
X260797022Y-94036774D01*
X260778177Y-94116934D01*
X260766835Y-94171783D01*
X260764714Y-94193782D01*
X260767638Y-94195533D01*
X260799281Y-94212018D01*
X260861371Y-94243516D01*
X260948687Y-94287431D01*
X261056006Y-94341165D01*
X261178108Y-94402123D01*
X261309771Y-94467707D01*
X261445775Y-94535321D01*
X261580898Y-94602368D01*
X261709919Y-94666252D01*
X261827616Y-94724376D01*
X261928768Y-94774144D01*
X262008154Y-94812958D01*
X262060553Y-94838223D01*
X262119252Y-94876418D01*
X262139013Y-94918162D01*
X262137476Y-94935264D01*
X262124952Y-94997019D01*
X262101596Y-95087914D01*
X262069538Y-95200963D01*
X262030912Y-95329180D01*
X261987849Y-95465580D01*
X261942482Y-95603178D01*
X261896942Y-95734987D01*
X261853363Y-95854023D01*
X261837248Y-95895382D01*
X261795256Y-95997201D01*
X261744226Y-96115156D01*
X261686749Y-96243804D01*
X261625415Y-96377702D01*
X261562815Y-96511407D01*
X261501539Y-96639476D01*
X261444177Y-96756465D01*
X261393321Y-96856931D01*
X261351561Y-96935432D01*
X261321487Y-96986524D01*
X261305690Y-97004765D01*
X261290580Y-97000238D01*
X261255349Y-96978612D01*
X261245733Y-96966831D01*
X261243471Y-96947403D01*
X261250800Y-96915609D01*
X261269630Y-96866479D01*
X261301871Y-96795045D01*
X261349434Y-96696339D01*
X261414229Y-96565391D01*
X261489027Y-96410936D01*
X261597974Y-96171137D01*
X261701659Y-95925958D01*
X261796869Y-95683677D01*
X261880393Y-95452571D01*
X261949019Y-95240916D01*
X261999536Y-95056990D01*
X262001659Y-95045278D01*
X262000098Y-95031781D01*
X261990929Y-95017017D01*
X261970822Y-94999080D01*
X261936449Y-94976064D01*
X261884479Y-94946063D01*
X261811583Y-94907170D01*
X261714432Y-94857481D01*
X261589697Y-94795089D01*
X261434047Y-94718088D01*
X261244155Y-94624573D01*
X261231715Y-94618454D01*
X261042713Y-94525773D01*
X260833739Y-94423784D01*
X260610026Y-94315006D01*
X260376806Y-94201958D01*
X260139310Y-94087159D01*
X259902771Y-93973129D01*
X259672422Y-93862386D01*
X259453493Y-93757449D01*
X259251218Y-93660838D01*
X259070828Y-93575072D01*
X258917556Y-93502670D01*
X258796633Y-93446151D01*
X258757403Y-93427752D01*
X258688955Y-93394423D01*
X258641668Y-93369679D01*
X258624021Y-93357856D01*
X258631950Y-93321855D01*
X258650910Y-93275194D01*
X258672986Y-93234923D01*
X258690264Y-93217780D01*
X258700601Y-93221107D01*
X258746931Y-93240824D01*
X258828313Y-93277597D01*
X258943134Y-93330667D01*
X259089779Y-93399275D01*
X259266636Y-93482663D01*
X259472090Y-93580070D01*
X259704529Y-93690737D01*
X259962338Y-93813905D01*
X260243904Y-93948816D01*
X260369075Y-94007887D01*
X260474969Y-94055173D01*
X260549221Y-94084491D01*
X260594525Y-94096895D01*
X260613575Y-94093439D01*
X260622109Y-94073204D01*
X260640716Y-94014926D01*
X260665552Y-93927833D01*
X260694802Y-93818880D01*
X260726653Y-93695019D01*
X260759290Y-93563206D01*
X260790898Y-93430394D01*
X260819663Y-93303538D01*
X260833618Y-93238569D01*
X260862333Y-93095362D01*
X260889023Y-92950210D01*
X260912782Y-92809247D01*
X260932703Y-92678609D01*
X260947879Y-92564429D01*
X260957404Y-92472845D01*
X260960369Y-92409989D01*
X260955870Y-92381998D01*
X260955296Y-92381513D01*
X260929174Y-92366950D01*
X260868687Y-92336241D01*
X260777034Y-92290908D01*
X260657414Y-92232474D01*
X260513025Y-92162459D01*
X260347067Y-92082386D01*
X260162739Y-91993778D01*
X259963239Y-91898156D01*
X259751766Y-91797041D01*
X259531521Y-91691957D01*
X259305700Y-91584425D01*
X259077505Y-91475966D01*
X258850132Y-91368104D01*
X258626782Y-91262360D01*
X258410654Y-91160256D01*
X258204946Y-91063313D01*
X258012857Y-90973055D01*
X257837586Y-90891003D01*
X257682333Y-90818679D01*
X257550296Y-90757604D01*
X257444675Y-90709302D01*
X257368667Y-90675294D01*
X257360540Y-90671721D01*
X257259686Y-90626165D01*
X257146639Y-90573448D01*
X257044367Y-90524265D01*
X257019547Y-90512246D01*
X256946416Y-90477560D01*
X256842799Y-90428976D01*
X256713628Y-90368784D01*
X256563837Y-90299278D01*
X256398361Y-90222747D01*
X256222132Y-90141484D01*
X256040084Y-90057781D01*
X255916856Y-90001186D01*
X255750182Y-89924565D01*
X255598218Y-89854625D01*
X255464851Y-89793157D01*
X255353970Y-89741958D01*
X255269462Y-89702820D01*
X255215215Y-89677537D01*
X255195116Y-89667902D01*
X255192878Y-89663819D01*
X255202446Y-89637660D01*
X255228236Y-89601751D01*
X255259153Y-89570004D01*
X255284101Y-89556330D01*
X255285949Y-89556677D01*
X255316934Y-89568568D01*
X255381367Y-89596153D01*
X255475523Y-89637754D01*
X255595677Y-89691689D01*
X255738101Y-89756280D01*
X255899072Y-89829846D01*
X256074863Y-89910707D01*
X256261749Y-89997183D01*
X256299950Y-90014910D01*
X256484681Y-90100608D01*
X256657337Y-90180667D01*
X256814221Y-90253374D01*
X256951636Y-90317020D01*
X257065886Y-90369890D01*
X257153273Y-90410275D01*
X257210100Y-90436461D01*
X257232670Y-90446737D01*
X257240869Y-90440203D01*
X257266824Y-90402462D01*
X257306702Y-90335673D01*
X257357646Y-90244847D01*
X257416797Y-90134991D01*
X257481295Y-90011115D01*
X257599925Y-89780531D01*
X257794581Y-89406449D01*
X257975653Y-89064130D01*
X258141997Y-88755729D01*
X258292467Y-88483401D01*
X258347339Y-88384790D01*
X258399328Y-88289791D01*
X258440422Y-88212973D01*
X258467376Y-88160411D01*
X258476943Y-88138179D01*
X258467778Y-88131366D01*
X258425803Y-88108690D01*
X258354539Y-88072995D01*
X258259195Y-88026739D01*
X258144983Y-87972377D01*
X258017114Y-87912367D01*
X257880798Y-87849165D01*
X257741247Y-87785229D01*
X257603670Y-87723014D01*
X257473280Y-87664979D01*
X257358206Y-87614253D01*
X257536048Y-87531740D01*
X257684274Y-87467028D01*
X257923268Y-87382328D01*
X258149793Y-87328498D01*
X258199334Y-87319671D01*
X258253490Y-87308556D01*
X258274439Y-87299700D01*
X258267240Y-87290098D01*
X258236954Y-87276747D01*
X258117232Y-87233829D01*
X257958714Y-87186337D01*
X257774977Y-87138230D01*
X257574433Y-87091366D01*
X257365490Y-87047600D01*
X257156559Y-87008789D01*
X256956050Y-86976789D01*
X256772374Y-86953457D01*
X256678817Y-86943851D01*
X256525321Y-86929665D01*
X256383174Y-86918404D01*
X256257417Y-86910325D01*
X256153095Y-86905686D01*
X256075250Y-86904745D01*
X256028924Y-86907758D01*
X256019161Y-86914984D01*
X256026486Y-86919824D01*
X256034968Y-86924176D01*
X256067308Y-86940769D01*
G37*
%TD*%
%LPC*%
D11*
%TO.C,D0*%
X290317626Y-60435000D03*
D12*
X291587626Y-64245000D03*
D13*
X289047626Y-64245000D03*
%TD*%
D14*
%TO.C,BT_MH1*%
X136230000Y-85150000D03*
%TD*%
D15*
%TO.C,J5*%
X284697500Y-122819000D03*
D16*
X287237500Y-122819000D03*
X289777500Y-122819000D03*
X292317500Y-122819000D03*
X294857500Y-122819000D03*
%TD*%
D15*
%TO.C,U1*%
X229350000Y-82030000D03*
D16*
X231890000Y-82030000D03*
X234430000Y-82030000D03*
X236970000Y-82030000D03*
X239510000Y-82030000D03*
X242050000Y-82030000D03*
X244590000Y-82030000D03*
X247130000Y-82030000D03*
X249670000Y-82030000D03*
X252210000Y-82030000D03*
X254750000Y-82030000D03*
X257290000Y-82030000D03*
X259830000Y-82030000D03*
X262370000Y-82030000D03*
X264910000Y-82030000D03*
X267450000Y-82030000D03*
X269990000Y-82030000D03*
X272530000Y-82030000D03*
X275070000Y-82030000D03*
X277610000Y-82030000D03*
X277610000Y-66790000D03*
X275070000Y-66790000D03*
X272530000Y-66790000D03*
X269990000Y-66790000D03*
X267450000Y-66790000D03*
X264910000Y-66790000D03*
X262370000Y-66790000D03*
X259830000Y-66790000D03*
X257290000Y-66790000D03*
X254750000Y-66790000D03*
X252210000Y-66790000D03*
X249670000Y-66790000D03*
X247130000Y-66790000D03*
X244590000Y-66790000D03*
X242050000Y-66790000D03*
X239510000Y-66790000D03*
X236970000Y-66790000D03*
X234430000Y-66790000D03*
X231890000Y-66790000D03*
X229350000Y-66790000D03*
%TD*%
D11*
%TO.C,Q3*%
X223750000Y-56140000D03*
D12*
X225020000Y-59950000D03*
D13*
X222480000Y-59950000D03*
%TD*%
D14*
%TO.C,SK1*%
X148130000Y-85150000D03*
%TD*%
D11*
%TO.C,Q1*%
X269650000Y-49420000D03*
D17*
X266985443Y-52424852D03*
D13*
X265715443Y-50225147D03*
%TD*%
D15*
%TO.C,TP6*%
X256190000Y-126830000D03*
%TD*%
D18*
%TO.C,M_MH1*%
X226460000Y-91620000D03*
X226460000Y-109620000D03*
%TD*%
D15*
%TO.C,TP2*%
X214200000Y-64620000D03*
%TD*%
D11*
%TO.C,D2*%
X243395445Y-45334852D03*
D19*
X247330000Y-46140000D03*
D13*
X246060000Y-48339705D03*
%TD*%
D20*
%TO.C,M2*%
X253030000Y-112830000D03*
D21*
X250530000Y-112830000D03*
X248030000Y-112830000D03*
X245530000Y-112830000D03*
X243030000Y-112830000D03*
X240530000Y-112830000D03*
%TD*%
D20*
%TO.C,M1*%
X273610000Y-112830000D03*
D21*
X271110000Y-112830000D03*
X268610000Y-112830000D03*
X266110000Y-112830000D03*
X263610000Y-112830000D03*
X261110000Y-112830000D03*
%TD*%
D14*
%TO.C,BT_MH3*%
X142180000Y-85150000D03*
%TD*%
D22*
%TO.C,S1*%
X219050000Y-132542000D03*
X219050000Y-127716000D03*
X219050000Y-122890000D03*
%TD*%
D14*
%TO.C,SK2*%
X148130000Y-91100000D03*
%TD*%
D23*
%TO.C,C2*%
X227200000Y-124590000D03*
D24*
X224700000Y-124590000D03*
%TD*%
D11*
%TO.C,D1*%
X265866554Y-45384256D03*
D17*
X263201997Y-48389108D03*
D13*
X261931997Y-46189403D03*
%TD*%
D14*
%TO.C,SK4*%
X154080000Y-91100000D03*
%TD*%
D15*
%TO.C,TP4*%
X214690000Y-82430000D03*
%TD*%
D25*
%TO.C,U2*%
X278390000Y-123130000D03*
D24*
X275850000Y-123130000D03*
X273310000Y-123130000D03*
X270770000Y-123130000D03*
X268230000Y-123130000D03*
X265690000Y-123130000D03*
X263150000Y-123130000D03*
X260610000Y-123130000D03*
X260610000Y-130750000D03*
X263150000Y-130750000D03*
X265690000Y-130750000D03*
X268230000Y-130750000D03*
X270770000Y-130750000D03*
X273310000Y-130750000D03*
X275850000Y-130750000D03*
X278390000Y-130750000D03*
%TD*%
D14*
%TO.C,BT_MH2*%
X136230000Y-91100000D03*
%TD*%
%TO.C,SK3*%
X154080000Y-85150000D03*
%TD*%
D11*
%TO.C,Q0*%
X285210000Y-56000000D03*
D12*
X286480000Y-59810000D03*
D13*
X283940000Y-59810000D03*
%TD*%
D14*
%TO.C,BT_MH4*%
X142180000Y-91100000D03*
%TD*%
D11*
%TO.C,D3*%
X218777626Y-60345000D03*
D12*
X220047626Y-64155000D03*
D13*
X217507626Y-64155000D03*
%TD*%
D15*
%TO.C,TP3*%
X256260000Y-132790000D03*
%TD*%
D26*
%TO.C,C16*%
X249965000Y-126275000D03*
D24*
X249965000Y-123775000D03*
%TD*%
D15*
%TO.C,TP1*%
X229710000Y-117560000D03*
%TD*%
D18*
%TO.C,M_MH2*%
X282647500Y-109620000D03*
X282647500Y-91620000D03*
%TD*%
D11*
%TO.C,Q2*%
X239517547Y-49370903D03*
D19*
X243452102Y-50176051D03*
D13*
X242182102Y-52375756D03*
%TD*%
D15*
%TO.C,TP5*%
X284610000Y-65130000D03*
%TD*%
D27*
%TO.C,BT1*%
X212700000Y-130140000D03*
D22*
X212700000Y-125140000D03*
%TD*%
%LPD*%
M02*
