M48
; DRILL file {KiCad 9.0.2} date 2026-09-04T19:04:48-0700
; FORMAT={-:-/ absolute / metric / decimal}
; #@! TF.CreationDate,2026-09-04T19:04:48-07:00
; #@! TF.GenerationSoftware,Kicad,Pcbnew,9.0.2
; #@! TF.FileFunction,Plated,1,2,PTH
FMAT,2
METRIC
; #@! TA.AperFunction,Plated,PTH,ViaDrill
T1C0.300
; #@! TA.AperFunction,Plated,PTH,ViaDrill
T2C0.400
; #@! TA.AperFunction,Plated,PTH,ComponentDrill
T3C0.800
; #@! TA.AperFunction,Plated,PTH,ComponentDrill
T4C0.900
; #@! TA.AperFunction,Plated,PTH,ComponentDrill
T5C0.950
; #@! TA.AperFunction,Plated,PTH,ComponentDrill
T6C1.000
; #@! TA.AperFunction,Plated,PTH,ComponentDrill
T7C1.800
; #@! TA.AperFunction,Plated,PTH,ComponentDrill
T8C1.850
%
G90
G05
T1
X214.82Y-71.04
X228.68Y-84.55
X229.88Y-84.54
X232.78Y-117.88
X233.82Y-108.99
X235.66Y-84.45
X236.45Y-114.92
X237.13Y-65.11
X237.8Y-118.96
X238.25Y-116.89
X241.778Y-118.94
X243.29Y-61.26
X243.31Y-82.97
X243.88Y-56.88
X243.91Y-55.85
X245.59Y-83.84
X245.8Y-61.72
X245.82Y-60.77
X245.85Y-82.91
X246.14Y-75.68
X247.26Y-71.5
X247.681Y-79.91
X248.12Y-60.82
X248.36Y-69.3
X248.58Y-47.86
X248.67Y-55.71
X248.72Y-56.77
X252.63Y-53.66
X253.06Y-52.73
X253.64Y-53.66
X257.05Y-112.16
X257.36Y-110.61
X258.77Y-116.39
X262.49Y-70.8
X262.89Y-128.61
X263.312Y-105.79
X264.32Y-104.97
X265.109Y-85.64
X266.04Y-104.54
X270.57Y-121.18
X273.65Y-83.09
X274.56Y-121.43
X274.69Y-73.03
X275.63Y-87.72
X275.88Y-71.15
X276.56Y-83.09
X280.42Y-79.74
X280.77Y-131.21
X280.93Y-82.01
X281.046Y-121.962
X281.19Y-133.34
X281.95Y-134.08
X283.14Y-72.72
X284.16Y-71.71
X284.722Y-127.468
X284.96Y-120.51
X285.259Y-128.751
X285.54Y-126.08
X285.67Y-115.982
X285.91Y-125.33
X286.27Y-130.01
X286.45Y-132.62
X286.562Y-131.46
X288.85Y-127.86
X288.87Y-130.02
X291.57Y-66.36
X291.66Y-77.0
X293.43Y-123.72
X294.1Y-126.417
X294.11Y-130.08
X294.12Y-127.83
X296.6Y-125.63
X296.85Y-132.32
X296.92Y-127.63
X296.99Y-128.74
X297.0Y-126.58
X297.17Y-124.03
X297.21Y-123.17
X297.75Y-134.32
X298.32Y-133.55
X298.57Y-132.47
T2
X210.91Y-72.75
X211.06Y-69.37
X211.141Y-76.548
X211.42Y-80.51
X211.42Y-84.07
X217.55Y-84.27
X217.64Y-73.425
X219.19Y-84.24
X219.59Y-67.1
X220.05Y-80.79
X221.95Y-80.81
X222.001Y-89.348
X222.24Y-65.32
X222.595Y-66.705
X223.59Y-134.22
X223.64Y-118.62
X224.61Y-111.82
X225.72Y-134.49
X225.78Y-66.99
X226.31Y-112.2
X226.31Y-113.82
X227.54Y-134.33
X228.08Y-52.77
X228.49Y-109.12
X230.13Y-51.26
X231.97Y-49.51
X232.37Y-118.87
X233.1Y-121.68
X233.85Y-113.65
X234.38Y-52.85
X234.6Y-62.57
X234.91Y-110.06
X236.4Y-110.38
X236.45Y-111.91
X238.35Y-98.26
X240.09Y-55.88
X242.19Y-97.38
X242.32Y-101.69
X243.49Y-54.49
X243.74Y-134.41
X244.01Y-41.63
X245.27Y-63.0
X245.69Y-134.35
X247.2Y-41.09
X247.3Y-99.6
X247.71Y-92.33
X248.25Y-62.05
X249.5Y-47.14
X249.86Y-45.98
X250.27Y-104.58
X250.3Y-40.65
X250.38Y-58.42
X252.81Y-121.89
X253.35Y-89.58
X253.39Y-127.61
X253.59Y-132.84
X253.68Y-40.44
X253.99Y-124.6
X255.58Y-61.04
X257.15Y-40.51
X257.25Y-57.32
X257.25Y-59.94
X258.49Y-112.9
X258.7Y-120.47
X259.36Y-100.81
X259.65Y-91.22
X260.06Y-121.17
X260.46Y-40.72
X260.62Y-109.76
X261.85Y-97.18
X263.46Y-41.16
X263.87Y-87.82
X264.51Y-59.682
X265.08Y-102.03
X265.677Y-57.106
X266.49Y-41.58
X266.78Y-124.88
X267.94Y-125.13
X268.32Y-56.78
X268.38Y-98.86
X269.2Y-124.84
X269.266Y-115.946
X269.32Y-92.73
X271.99Y-114.33
X273.2Y-51.08
X273.97Y-100.62
X274.17Y-53.5
X274.17Y-53.5
X274.3Y-50.37
X274.44Y-90.45
X274.5Y-79.54
X275.23Y-64.37
X275.32Y-113.58
X277.11Y-78.65
X278.3Y-46.12
X278.59Y-53.01
X280.61Y-119.902
X280.73Y-47.91
X280.97Y-66.15
X281.01Y-67.22
X281.85Y-63.2
X283.22Y-49.5
X287.19Y-65.17
X288.87Y-126.42
X291.0Y-80.13
X292.61Y-66.29
X293.56Y-65.59
X298.61Y-84.38
T3
X224.7Y-124.59
X227.2Y-124.59
X249.965Y-123.775
X249.965Y-126.275
X260.61Y-123.13
X260.61Y-130.75
X263.15Y-123.13
X263.15Y-130.75
X265.69Y-123.13
X265.69Y-130.75
X268.23Y-123.13
X268.23Y-130.75
X270.77Y-123.13
X270.77Y-130.75
X273.31Y-123.13
X273.31Y-130.75
X275.85Y-123.13
X275.85Y-130.75
X278.39Y-123.13
X278.39Y-130.75
T4
X217.508Y-64.155
X220.048Y-64.155
X222.48Y-59.95
X225.02Y-59.95
X242.182Y-52.376
X243.452Y-50.176
X246.06Y-48.34
X247.33Y-46.14
X261.932Y-46.189
X263.202Y-48.389
X265.715Y-50.225
X266.985Y-52.425
X283.94Y-59.81
X286.48Y-59.81
X289.048Y-64.245
X291.588Y-64.245
T5
X240.53Y-112.83
X243.03Y-112.83
X245.53Y-112.83
X248.03Y-112.83
X250.53Y-112.83
X253.03Y-112.83
X261.11Y-112.83
X263.61Y-112.83
X266.11Y-112.83
X268.61Y-112.83
X271.11Y-112.83
X273.61Y-112.83
T6
X214.2Y-64.62
X214.69Y-82.43
X229.35Y-66.79
X229.35Y-82.03
X229.71Y-117.56
X231.89Y-66.79
X231.89Y-82.03
X234.43Y-66.79
X234.43Y-82.03
X236.97Y-66.79
X236.97Y-82.03
X239.51Y-66.79
X239.51Y-82.03
X242.05Y-66.79
X242.05Y-82.03
X244.59Y-66.79
X244.59Y-82.03
X247.13Y-66.79
X247.13Y-82.03
X249.67Y-66.79
X249.67Y-82.03
X252.21Y-66.79
X252.21Y-82.03
X254.75Y-66.79
X254.75Y-82.03
X256.19Y-126.83
X256.26Y-132.79
X257.29Y-66.79
X257.29Y-82.03
X259.83Y-66.79
X259.83Y-82.03
X262.37Y-66.79
X262.37Y-82.03
X264.91Y-66.79
X264.91Y-82.03
X267.45Y-66.79
X267.45Y-82.03
X269.99Y-66.79
X269.99Y-82.03
X272.53Y-66.79
X272.53Y-82.03
X275.07Y-66.79
X275.07Y-82.03
X277.61Y-66.79
X277.61Y-82.03
X284.61Y-65.13
X284.697Y-122.819
X287.238Y-122.819
X289.777Y-122.819
X292.317Y-122.819
X294.857Y-122.819
T7
X212.7Y-125.14
X212.7Y-130.14
T8
X219.05Y-122.89
X219.05Y-127.716
X219.05Y-132.542
M30
